<?xml version="1.0" encoding="utf-8"?>
<svg version="1.1" xmlns:xlink="http://www.w3.org/1999/xlink" width="9px" height="7px" xmlns="http://www.w3.org/2000/svg">
  <g transform="matrix(1 0 0 1 -357 -224 )">
    <path d="M 3.34195816769596 6.69239904988125  C 3.25643487885985 6.69240778076008  3.17441484465559 6.65442914441806  3.11395820332541 6.58682575320664  L 0.812947860807597 4.0152949871734  C 0.752491471733961 3.94773309216151  0.718527315914486 3.85609830023751  0.718527315914486 3.7605500144893  C 0.718527315914486 3.66500163064132  0.752491471733961 3.57336683871732  0.812947860807597 3.50580504180524  C 0.873390459857475 3.43819321401424  0.955402169596198 3.40020408099763  1.04092091781473 3.40020408099763  C 1.12643966603325 3.40020408099763  1.20845145985749 3.43819321401424  1.26889405890736 3.50580504180524  L 3.34190443705464 5.82253089619951  L 7.73586115961996 0.911934409263675  C 7.79631561472684 0.844370552256535  7.87831050736341 0.806413301662692  7.96380739334916 0.806413301662692  C 8.04930419524939 0.806413301662692  8.13129917197149 0.844370552256535  8.19175362707838 0.911934409263675  C 8.25223953016626 0.979490908788601  8.28622327790973 1.07114149477435  8.28622327790973 1.16670940047506  C 8.28622327790973 1.26227740427553  8.25223953016626 1.35392799026128  8.19175362707838 1.42148439168647  L 3.56985067078384 6.58682575320664  C 3.50944717149643 6.65444454608075  3.42745370831354 6.69242877410927  3.34195816769596 6.69239904988125  Z " fill-rule="nonzero" fill="#ffffff" stroke="none" transform="matrix(1 0 0 1 357 224 )" />
  </g>
</svg>