<?xml version="1.0" encoding="utf-8"?>
<svg version="1.1" xmlns:xlink="http://www.w3.org/1999/xlink" width="69px" height="193px" xmlns="http://www.w3.org/2000/svg">
  <g transform="matrix(1 0 0 1 -239 -148 )">
    <path d="M 64.9704900314022 25.5354254598863  C 79.476890429977 -2.09172433619145  48.3626952556302 -5.7885490528669  39.4903120960103 7.78159484440021  C 30.6179290347276 21.3517387810092  40.7628574290269 28.766556123622  31.2249300328274 34.2278774803657  C 21.6870026366279 39.6891989354639  8.19586540266113 44.4988510603527  11.3572007230887 59.3662855694955  C 14.5185360926849 74.2337200786382  30.1089490760578 80.22272735888  30.1089490760578 92.4471968263817  C 30.1089490760578 104.67166599882  30.2497227449414 118.937327138098  16.986596109312 126.994741782365  C 3.72346946384878 135.052156426632  -4.09975706902533 151.628143724322  2.35386560698417 166.265755280443  C 6.65628071776802 176.024162984525  12.6620989268892 184.909646366775  20.3713201753452 193  L 64.9704900314022 193  C 70.1931639506421 183.862338414021  70.1931639506421 172.240650647405  64.9704900314022 158.057141143799  C 57.1364792508797 136.781877871936  55.7237382755827 125.892498869733  60.3471141534925 118.184354079148  C 64.9704900314022 110.476210272108  71.3640289169129 86.9571474775672  60.3471141534925 75.1590603031772  C 49.3301994884093 63.3609730304326  50.4640897311647 53.1625751871158  64.9704900314022 25.5354254598863  Z " fill-rule="nonzero" fill="#eef2f8" stroke="none" transform="matrix(1 0 0 1 239 148 )" />
  </g>
</svg>