<?xml version="1.0" encoding="utf-8"?>
<svg version="1.1" xmlns:xlink="http://www.w3.org/1999/xlink" width="29px" height="52px" xmlns="http://www.w3.org/2000/svg">
  <g transform="matrix(1 0 0 1 -425 -264 )">
    <path d="M 10.9363085542042 3.44755889287237  C 6.82526073040375 -4.44331572262512  26.9406182010166 2.75657042687076  27.7128078309263 11.7462287566465  C 28.4849974527078 20.7358870540336  23.2089071160712 22.4043423767045  24.1681224982613 29.1718936989531  C 25.127337872323 35.9394450212017  29.1636685638351 36.1525323984517  28.511157732342 41.8702853753849  C 28.0761505156817 45.6821206393596  26.4309346453966 48.810898861054  23.5755101296152 51  L 10.9363085542042 51  C 4.57457499705461 47.812689717111  1.08310831577195 42.8517157414973  0.461908510356268 36.3736981136272  C -0.46989119776725 26.6566716718219  7.81416508384795 21.4014769010645  10.9363085542042 18.0317037571215  C 14.0584519432779 14.6619306131785  15.0473562967221 11.3384335002727  10.9363085542042 3.44755889287237  Z " fill-rule="nonzero" fill="#eef2f8" stroke="none" transform="matrix(1 0 0 1 425 264 )" />
  </g>
</svg>