<?xml version="1.0" encoding="utf-8"?>
<svg version="1.1" xmlns:xlink="http://www.w3.org/1999/xlink" width="109px" height="111px" xmlns="http://www.w3.org/2000/svg">
  <defs>
    <linearGradient gradientUnits="userSpaceOnUse" x1="54.5091996359494" y1="15.0590168211986" x2="44.0791243187575" y2="110.029171694465" id="LinearGradient228">
      <stop id="Stop229" stop-color="#ffffff" stop-opacity="0" offset="0" />
      <stop id="Stop230" stop-color="#79a3ee" stop-opacity="0.168627450980392" offset="0.27" />
      <stop id="Stop231" stop-color="#125de1" stop-opacity="0.301960784313725" offset="1" />
    </linearGradient>
  </defs>
  <g transform="matrix(1 0 0 1 -353 -51 )">
    <path d="M 108.626116242922 1  L 95.1780228860499 26.6394648223702  C 72.2962922025037 33.3044794017984  60.1143024350902 40.0392284143494  58.6320538315208 46.8437117766882  C 58.4460944294537 47.6973864269003  64.8625042298003 56.9756827602435  77.8812833977017 74  L 49.7761974938692 74  C 53.975228549862 86.4301754053275  53.3735005596328 94.8403514267051  47.9710134406112 99.9091274241602  C 39.8672828033639 107.512291420343  29.2022636724401 116.087141068926  14.2246474834307 103.99651427125  C -0.752968713835795 91.9058883069223  -0.752968713835795 40.5340877268578  1.43504417796622 24.8768159170597  C 2.89371943641521 14.4386347383059  4.87254825955318 6.32542076355489  7.37153065563714 1  L 108.626116242922 1  Z " fill-rule="nonzero" fill="url(#LinearGradient228)" stroke="none" transform="matrix(1 0 0 1 353 51 )" />
  </g>
</svg>