<?xml version="1.0" encoding="utf-8"?>
<svg version="1.1" xmlns:xlink="http://www.w3.org/1999/xlink" width="84px" height="146px" xmlns="http://www.w3.org/2000/svg">
  <defs>
    <linearGradient gradientUnits="userSpaceOnUse" x1="42.0675770453003" y1="51.4023165401139" x2="39.5216581622757" y2="145.616804530345" id="LinearGradient194">
      <stop id="Stop195" stop-color="#c2d6f8" offset="0" />
      <stop id="Stop196" stop-color="#e9f1ff" offset="1" />
    </linearGradient>
  </defs>
  <g transform="matrix(1 0 0 1 -405 -95 )">
    <path d="M 25.2655543877714 21.2497320195252  C 22.1729247155177 8.92674676376092  14.037983751516 2.58353900796631  0.860731495766401 2.22010879333767  L 30.4348646994886 0.951928229941474  C 56.1004148838452 1.18280232638989  72.0897159429482 7.31942433482056  78.4027678767976 19.3617942420507  C 87.8723458606679 37.4253491111352  82.7880313159592 47.9254626908894  69.6064981066033 66.0321254879943  C 56.4249649803437 84.1387882850994  48.7055912848177 92.790002237179  50.4609747974403 101.502659582522  C 52.2163583100629 110.215316927864  59.0531429290932 112.820455337404  66.8852589007462 120.255881235792  C 74.7173749554953 127.69130713418  64.854845599307 137.762819718153  51.4391888171469 138.6119413111  C 42.4954176013414 139.178022373065  35.4939762287886 141.51297677948  30.4348646994886 145.616804530345  L 27.6227626314266 145.616804530345  C 34.0853630874836 140.851562635464  39.6704175796339 137.309989638222  44.3779261078776 134.992083890768  C 51.4391888171469 131.515225269588  48.9924529852396 120.255881235792  35.7115550850692 117.01961617032  C 22.4306571848987 113.783350280923  9.08444266707281 108.156131089161  6.66165558717453 92.790002237179  C 4.23886851558589 77.4238736323742  10.8603947084198 71.4170963528001  18.2945887382088 58.1918955292384  C 25.7287826849015 44.9666947056768  29.9044987715076 39.7342099732053  25.2655543877714 21.2497320195252  Z " fill-rule="nonzero" fill="url(#LinearGradient194)" stroke="none" transform="matrix(1 0 0 1 405 95 )" />
  </g>
</svg>