<?xml version="1.0" encoding="utf-8"?>
<svg version="1.1" xmlns:xlink="http://www.w3.org/1999/xlink" width="37px" height="46px" xmlns="http://www.w3.org/2000/svg">
  <g transform="matrix(1 0 0 1 -346 -239 )">
    <path d="M 26.8947503218345 9.5998153882044  C 25.400939256861 4.68651904850662  23.083288402558 1.69965340346694  19.9417977589256 0.639218453085374  C 14.9054580097935 -0.09450787387677  11.6001818181253 0.435709601314013  10.0259693434679 2.22987087865772  C 7.6646505915951 4.92111275352506  8.66570068094282 8.33001915578916  7.10511845463183 9.5998153882044  C 5.54453622832085 10.8696117029161  3.65216847546136 12.5815405496336  3.65216847546136 14.8642902976298  C 3.65216847546136 17.1470401279224  7.63152379594372 18.9145025417092  5.64184617558926 23.0869953883055  C 3.65216847546136 27.2594883171982  0.00511633133564661 30.5466479740638  0.00511633133564661 34.3015712299591  C 0.00511633133564661 38.0564944035579  6.75055825108716 45.9726969553747  16.3350694100493 45.9726969553747  C 25.9195804892381 45.9726969553747  36.5165290760461 44.9725588087128  36.5165290760461 40.1283234339516  C 36.5165290760461 35.2840880591904  28.8792518429746 33.5000723713954  28.8792518429746 26.3127478153535  C 28.8792518429746 19.1254233416081  29.135466879408 16.9697598977511  26.8947503218345 9.5998153882044  Z " fill-rule="nonzero" fill="#3a3939" stroke="none" transform="matrix(1 0 0 1 346 239 )" />
  </g>
</svg>