<?xml version="1.0" encoding="utf-8"?>
<svg version="1.1" xmlns:xlink="http://www.w3.org/1999/xlink" width="27px" height="20px" xmlns="http://www.w3.org/2000/svg">
  <g transform="matrix(1 0 0 1 -352 -282 )">
    <path d="M 7.59717439834549 2.87781470583827  C 4.6888269524613 2.39525459832479  2.44310388574003 1.53501503737971  0.860005354754689 0.297095934491836  C 2.23040789314439 3.06904763895492  2.91560924062577 6.4809366365796  2.91560924062577 10.5327631043881  C 2.91560924062577 14.5845894836855  2.53674175400115 17.6505198884861  1.77900693732493 19.7305542302788  C 5.65778527076747 17.2335391328917  10.169161192481 15.7897583422928  15.3131348590384 15.3992118584823  C 20.4571085255959 15.0086654631829  24.2598042709149 15.2032243765471  26.721222016709 15.9828887755969  C 24.6719861121304 12.5134267828479  23.3494531911213 9.90307503837979  22.7536234102547 8.15183354219279  C 22.1577935511016 6.40059204600579  21.8956757544926 4.35339583997999  21.9672700204276 2.01024492411552  C 15.2955537443525 3.07118491561446  10.5055218442297 3.36037481335169  7.59717439834549 2.87781470583827  Z " fill-rule="nonzero" fill="#ffb90c" stroke="none" transform="matrix(1 0 0 1 352 282 )" />
  </g>
</svg>