<?xml version="1.0" encoding="utf-8"?>
<svg version="1.1" xmlns:xlink="http://www.w3.org/1999/xlink" width="48px" height="48px" xmlns="http://www.w3.org/2000/svg">
  <g transform="matrix(1 0 0 1 -670 -195 )">
    <path d="M 12.051612890625 25.187096765625  C 11.97419353125 25.316129015625  12 25.470967734375  12.077419359375 25.5741935625  L 19.948387078125 33.72903225  C 20.05161290625 33.832258078125  20.206451578125 33.832258078125  20.30967740625 33.72903225  L 37.367741953125 16.92903225  C 37.47096778125 16.825806421875  37.47096778125 16.67096775  37.367741953125 16.567741921875  L 36.335483859375 15.56129034375  C 36.23225803125 15.458064515625  36.051612890625 15.458064515625  35.948387109375 15.535483875  L 20.30967740625 28.567741921875  C 20.206451578125 28.64516128125  20.0258064375 28.67096775  19.8967741875 28.567741921875  L 13.496774203125 23.664516140625  C 13.393548375 23.58709678125  13.212903234375 23.61290325  13.135483875 23.71612903125  L 12.051612890625 25.187096765625  Z M 23.71612903125 0  C 37.264516125 0  48 10.735483875  48 24.28387096875  C 48 37.23870965625  37.264516125 48  23.71612903125 48  C 10.735483875 48  0 37.264516125  0 24.28387096875  C 0 10.735483875  10.735483875 0  23.71612903125 0  Z " fill-rule="nonzero" fill="#5dcb75" stroke="none" transform="matrix(1 0 0 1 670 195 )" />
  </g>
</svg>