<?xml version="1.0" encoding="utf-8"?>
<svg version="1.1" xmlns:xlink="http://www.w3.org/1999/xlink" width="50px" height="50px" xmlns="http://www.w3.org/2000/svg">
  <g transform="matrix(1 0 0 1 -648 -195 )">
    <path d="M 0 25  C 0 11.25  11.25 0  25 0  C 38.75 0  50 11.25  50 25  C 50 38.75  38.75 50  25 50  C 11.25 50  0 38.75  0 25  Z M 32.1875 15  L 24.6875 22.8125  L 16.875 15  C 16.25 14.375  15.3125 14.375  14.6875 15  C 14.0625 15.625  14.0625 16.5625  14.6875 17.1875  L 22.5 25  L 14.6875 32.8125  C 14.0625 33.4375  14.0625 34.375  14.6875 35  C 15.3125 35.625  16.25 35.625  16.875 35  L 24.6875 27.1875  L 32.5 35  C 33.125 35.625  34.0625 35.625  34.6875 35  C 35.3125 34.375  35.3125 33.4375  34.6875 32.8125  L 26.875 25  L 34.375 17.1875  C 35 16.5625  35 15.625  34.375 15  C 33.75 14.375  32.8125 14.375  32.1875 15  Z " fill-rule="nonzero" fill="#f5222d" stroke="none" transform="matrix(1 0 0 1 648 195 )" />
  </g>
</svg>