<?xml version="1.0" encoding="utf-8"?>
<svg version="1.1" xmlns:xlink="http://www.w3.org/1999/xlink" width="20px" height="20px" xmlns="http://www.w3.org/2000/svg">
  <g transform="matrix(1 0 0 1 -30 -1530 )">
    <path d="M 19.9781873967695 9.91493055555566  C 19.9781873967695 4.46017419457712  15.5398639790155 0.0218126032305008  10.0850694444443 0.0218126032305008  C 4.62958811793942 0.0218126032305008  0.191951492119188 4.45944920686907  0.191951492119188 9.91493055555566  C 0.191951492119188 15.3704119042422  4.62958811793942 19.8080485078808  10.0850694444443 19.8080485078808  C 15.5398258054238 19.8080485078808  19.9781873967695 15.3704119042422  19.9781873967695 9.91493055555566  Z M 10.0850694444443 6.36598119974224  C 9.49705007016291 6.36598119974224  9.02036937713638 5.88930050671479  9.02036937713638 5.30128113243336  C 9.02036937713638 4.71326175815193  9.49705007016291 4.23658106512539  10.0850694444443 4.23658106512539  C 10.6730888187258 4.23658106512539  11.1497695117523 4.71326175815193  11.1497695117523 5.30128113243336  C 11.1497695117523 5.88930050671479  10.6730888187258 6.36598119974224  10.0850694444443 6.36598119974224  Z M 10.0850694444443 15.593280045985  C 9.6932473148845 15.593280045985  9.37525668243507 15.276014379062  9.37525668243507 14.8834672839766  C 9.37525668243507 14.8834672839766  9.37525668243507 8.49534318294809  9.37525668243507 8.49534318294809  C 9.37525668243507 8.10352105338825  9.6932473148845 7.78553042093881  10.0850694444443 7.78553042093881  C 10.4768915740042 7.78553042093881  10.7948822064536 8.10352105338825  10.7948822064536 8.49534318294809  C 10.7948822064536 8.49534318294809  10.7948822064536 14.8834672839766  10.7948822064536 14.8834672839766  C 10.7948822064536 15.276014379062  10.4768915740042 15.593280045985  10.0850694444443 15.593280045985  Z " fill-rule="nonzero" fill="#fe983d" stroke="none" transform="matrix(1 0 0 1 30 1530 )" />
  </g>
</svg>