<?xml version="1.0" encoding="utf-8"?>
<svg version="1.1" xmlns:xlink="http://www.w3.org/1999/xlink" width="13px" height="14px" xmlns="http://www.w3.org/2000/svg">
  <g transform="matrix(1 0 0 1 -586 -189 )">
    <path d="M 0.724470805303497 11.6578720142006  C 0.341984492618508 11.7625250438755  0.111449883945909 11.5338525944712  0.208281869133259 11.1524835563982  C 0.208281869133259 11.1524835563982  0.858545853659393 8.59016041586028  0.858545853659393 8.59016041586028  C 0.90696183752425 8.39910347195337  1.0604032933922 8.13020850804241  1.19708535075802 7.99352645067665  C 1.19708535075802 7.99352645067665  8.97716245647973 0.213449344954824  8.97679003160908 0.213821769825699  C 9.25425088974862 -0.0632666634433008  9.71271308062626 -0.0543283268862069  10.0054435854123 0.238402195357594  C 10.0054435854123 0.238402195357594  11.585667014201 1.81862560668833  11.585667014201 1.81862560668833  C 11.8765353771761 2.10949396966362  11.8884531650714 2.56907345261106  11.6106198646036 2.84727917794953  C 11.6106198646036 2.84727917794953  3.83054275888179 10.6273562836714  3.83054275888179 10.6273562836714  C 3.6919985422474 10.7655280754348  3.42720032174446 10.9197143810443  3.23316392649906 10.9725995331873  C 3.23316392649906 10.9725995331873  0.724470805303497 11.6578720142006  0.724470805303497 11.6578720142006  Z M 10.0220404760378 3.38225214485283  C 10.2136719640365 3.19062065685375  10.3853803848952 3.01891223599523  10.5320273703596 2.87226525053029  L 10.0220404760378 3.38225214485283  Z M 8.97000391653893 1.27421429029982  L 10.5320273703596 2.87226525053029  C 10.8666329272774 2.53765969361257  11.0840028749358 2.32028974595414  11.0840028749358 2.32028974595414  L 9.50377944614718 0.740438759493827  L 8.97000391653893 1.27421429029982  Z M 4.21191177949703 9.19238084139261  L 3.68529478983021 9.71899783105982  C 3.68749930225192 9.71679331863834  3.68971231043707 9.71458031045313  3.69193378604041 9.71235883484997  C 3.83372978761531 9.57056283327483  4.01002394523204 9.39426867565771  4.21191177949703 9.19238084139261  Z M 2.63206079303671 7.61215743006187  L 2.1050713712508 8.13914685099235  L 2.63206079303671 7.61215743006187  Z M 3.68529478982947 9.71899783106028  L 2.1050713712508 8.13914685099235  L 2.10036661115265 8.14385161110113  L 1.72370234042546 8.52051588267341  C 1.67305177242139 8.57116645067754  1.58217867245281 8.73131165896302  1.56430199933868 8.80021132495222  C 1.56430199933868 8.80021132495222  1.0559341076559 10.8038884306739  1.0559341076559 10.8038884306739  C 1.0559341076559 10.8038884306739  3.01045037977144 10.2701952637181  3.01045037977144 10.2701952637181  C 3.08791595744674 10.248966714395  3.24843359060316 10.1558590477448  3.30392575175648 10.1003668691337  C 3.30392575175648 10.1003668691337  3.44351365486585 9.96077896602401  3.68529478982947 9.71899783106028  Z M 4.21344490190273 9.19084771898724  C 4.21844705657503 9.18584556431506  4.22346561417606 9.18082700671403  4.22850046510052 9.17579215578962  C 5.68086082926652 7.72343179162363  8.4889887032088 4.91530391768174  10.0220404760378 3.38225214485283  L 8.42161926561482 1.82259894245408  L 2.63206079303671 7.61215743006187  L 4.21344490190273 9.19084771898724  Z M 8.44181135945189 1.8023953767788  L 8.42161926561482 1.82259894245408  L 8.44181135945189 1.8023953767788  Z M 8.44181709655169 1.80240111147214  L 8.95220960607713 1.29163619215115  L 8.44181709655169 1.80240111147214  Z M 0.386303733075408 13.8090316731141  C 0.287142370930951 13.809626652022  0.191838089658859 13.7706513487624  0.121509742867374 13.7007424553381  C 0.05118139607589 13.6308335619137  0.0116366799250045 13.535764136137  0.0116384648778762 13.4366009890559  C 0.0116384648778762 13.2310192482437  0.176252823984498 13.0641703049978  0.386303733075408 13.06417028754  C 0.386303733075408 13.06417028754  11.9271859451801 13.06417028754  11.9271859451801 13.06417028754  C 12.1328737371754 13.06417028754  12.2996166379672 13.2309131883317  12.2996166379672 13.4366009803271  C 12.2996166379672 13.6422887723224  12.1328737371754 13.8090316731141  11.9271859451801 13.8090316731141  C 11.9271859451801 13.8090316731141  0.386303733075408 13.8090316731141  0.386303733075408 13.8090316731141  Z " fill-rule="nonzero" fill="#337dff" stroke="none" transform="matrix(1 0 0 1 586 189 )" />
  </g>
</svg>