<?xml version="1.0" encoding="utf-8"?>
<svg version="1.1" xmlns:xlink="http://www.w3.org/1999/xlink" width="12px" height="12px" xmlns="http://www.w3.org/2000/svg">
  <g transform="matrix(1 0 0 1 -568 -19 )">
    <path d="M 11.75 11.0420168067227  C 11.75 11.0420168067227  6.85 6  6.85 6  C 6.85 6  11.85 0.957983193277311  11.85 0.957983193277311  C 12.05 0.756302521008403  12.05 0.352941176470588  11.85 0.151260504201681  C 11.65 -0.0504201680672267  11.25 -0.0504201680672267  11.05 0.151260504201681  C 11.05 0.151260504201681  6.05 5.19327731092437  6.05 5.19327731092437  C 6.05 5.19327731092437  1.05 0.151260504201681  1.05 0.151260504201681  C 0.85 -0.0504201680672267  0.45 -0.0504201680672267  0.25 0.151260504201681  C -0.0499999999999998 0.352941176470588  -0.0499999999999998 0.756302521008403  0.15 0.957983193277311  C 0.15 0.957983193277311  5.15 6  5.15 6  C 5.15 6  0.15 11.0420168067227  0.15 11.0420168067227  C -0.0499999999999998 11.2436974789916  -0.0499999999999998 11.6470588235294  0.15 11.8487394957983  C 0.350000000000001 12.0504201680672  0.75 12.0504201680672  0.95 11.8487394957983  C 0.95 11.8487394957983  5.95 6.80672268907563  5.95 6.80672268907563  C 5.95 6.80672268907563  10.95 11.8487394957983  10.95 11.8487394957983  C 11.15 12.0504201680672  11.55 12.0504201680672  11.75 11.8487394957983  C 11.95 11.6470588235294  11.95 11.2436974789916  11.75 11.0420168067227  Z " fill-rule="nonzero" fill="#555555" stroke="none" transform="matrix(1 0 0 1 568 19 )" />
  </g>
</svg>