<?xml version="1.0" encoding="utf-8"?>
<svg version="1.1" xmlns:xlink="http://www.w3.org/1999/xlink" width="14px" height="12px" xmlns="http://www.w3.org/2000/svg">
  <g>
    <path d="M 4.27532961132812 2.61349328320313  L 4.27532961132812 0.55647939453125  C 4.27532961132812 0.371896900390625  4.43330561132812 0.222235423828125  4.61622520898437 0.222235423828125  C 4.80413350976562 0.222235423828125  4.95712080664062 0.36857109375  4.95712079296875 0.55647939453125  L 4.95712079296875 2.61349328320313  C 4.95712079296875 2.79807577734375  4.79914479296875 2.94773725390625  4.61622520898437 2.94773726757813  C 4.42831690820312 2.94773726757813  4.27532961132812 2.80140159765625  4.27532961132812 2.61349328320313  Z M 9.04287920703125 2.61349328320313  L 9.04287920703125 0.55647939453125  C 9.04287920703125 0.371896900390625  9.20085520703125 0.222235423828125  9.38377479101563 0.222235423828125  C 9.57168309179687 0.222235423828125  9.72467038867187 0.36857109375  9.72467038867187 0.55647939453125  L 9.72467038867187 2.61349328320313  C 9.72467038867187 2.79807577734375  9.56669438867188 2.94773725390625  9.38377479101563 2.94773726757813  C 9.19586649023437 2.94773726757813  9.04287919335937 2.80140159765625  9.04287920703125 2.61349328320313  Z M 5.637249078125 1.58581778710937  L 5.637249078125 0.90402660546875  L 8.36108801171875 0.90402660546875  L 8.36108801171875 1.58581778710937  L 5.637249078125 1.58581778710937  Z M 12.4485093222656 0.90402660546875  L 10.4047986738281 0.90402660546875  L 10.4047986738281 1.58581778710937  L 12.4485093222656 1.58581778710937  L 12.4485093222656 3.62952844921875  L 1.54982776757812 3.62952844921875  L 1.54982776757812 1.58581778710937  L 3.5935384296875 1.58581778710937  L 3.5935384296875 0.90402660546875  L 1.54982776757812 0.90402660546875  C 1.20893216992187 0.90402660546875  0.8680365859375 1.244922203125  0.8680365859375 1.58581778710937  C 0.8680365859375 1.58581778710937  0.83810428515625 10.6752583417969  0.8680365859375 11.1209169785156  C 0.89796888671875 11.5665756015625  1.20893218359375 11.8027081601563  1.54982776757812 11.8027081601563  L 12.4485093222656 11.8027081601563  C 12.4784416230469 11.8027081601563  13.1303005039063 11.8027081601563  13.1303005175781 11.1209169785156  L 13.1303005175781 1.58581778710937  C 13.1303005175781 1.24492218945313  12.7894049199219 0.90402660546875  12.4485093222656 0.90402660546875  Z M 1.54982776757812 11  L 1.54982776757812 4.309656734375  L 12.4485093222656 4.309656734375  L 12.4485093222656 11  L 1.54982776757812 11  Z " fill-rule="nonzero" fill="#999999" stroke="none" />
  </g>
</svg>