<?xml version="1.0" encoding="utf-8"?>
<svg version="1.1" xmlns:xlink="http://www.w3.org/1999/xlink" width="14px" height="14px" xmlns="http://www.w3.org/2000/svg">
  <g transform="matrix(1 0 0 1 0 1 )">
    <path d="M 14 7  C 14 3.12306640625  10.87693359375 0  7 0  C 3.12306640625 0  0 3.12306640625  0 7  C 0 10.87693359375  3.12306640625 14  7 14  C 10.87693359375 14  14 10.87693359375  14 7  Z M 7.64616015625 7  L 9.85383984375 9.207693359375  C 10.01538671875 9.3692265625  10.01538671875 9.638466796875  9.85383984375 9.74616015625  C 9.692306640625 9.907693359375  9.423080078125 9.907693359375  9.31538671875 9.74616015625  L 7.107693359375 7.538466796875  L 4.9 9.74616015625  C 4.738466796875 9.907693359375  4.4692265625 9.907693359375  4.361533203125 9.74616015625  C 4.2 9.58461328125  4.2 9.31538671875  4.361533203125 9.207693359375  L 6.5692265625 7  L 4.361533203125 4.792306640625  C 4.25383984375 4.6307734375  4.25383984375 4.415373046875  4.361533203125 4.25383984375  C 4.523080078125 4.092306640625  4.792306640625 4.092306640625  4.9 4.25383984375  L 7.107693359375 6.461533203125  L 9.31538671875 4.25383984375  C 9.476919921875 4.092306640625  9.74616015625 4.092306640625  9.85383984375 4.25383984375  C 10.01538671875 4.41538671875  10.01538671875 4.68461328125  9.85383984375 4.792306640625  L 7.64616015625 7  Z " fill-rule="nonzero" fill="#555555" stroke="none" transform="matrix(1 0 0 1 0 -1 )" />
  </g>
</svg>