<?xml version="1.0" encoding="utf-8"?>
<svg version="1.1" xmlns:xlink="http://www.w3.org/1999/xlink" width="8px" height="8px" xmlns="http://www.w3.org/2000/svg">
  <g transform="matrix(1 0 0 1 -86 -101 )">
    <path d="M 90 101  C 92.24 101  94 102.76  94 105  C 94 107.24  92.24 109  90 109  C 87.76 109  86 107.24  86 105  C 86 102.76  87.76 101  90 101  Z " fill-rule="nonzero" fill="#2c8cf0" stroke="none" />
    <path d="M 90 101.5  C 91.96 101.5  93.5 103.04  93.5 105  C 93.5 106.96  91.96 108.5  90 108.5  C 88.04 108.5  86.5 106.96  86.5 105  C 86.5 103.04  88.04 101.5  90 101.5  Z " stroke-width="1" stroke="#ffffff" fill="none" />
  </g>
</svg>