<?xml version="1.0" encoding="utf-8"?>
<svg version="1.1" xmlns:xlink="http://www.w3.org/1999/xlink" width="13px" height="13px" xmlns="http://www.w3.org/2000/svg">
  <g transform="matrix(1 0 0 1 -231 -150 )">
    <path d="M 13 6.5  C 13 2.89545454421053  10.1045454421053 0  6.5 0  C 2.89545454421053 0  0 2.89545454421053  0 6.5  C 0 10.1045454421053  2.89545454421053 13  6.5 13  C 10.1045454421053 13  13 10.1045454421053  13 6.5  Z M 12.0545454421053 6.5  C 12.0545454421053 9.57272727894737  9.57272727894737 12.0545454421053  6.5 12.0545454421053  C 3.42727272105263 12.0545454421053  0.945454544210526 9.57272727894737  0.945454544210526 6.5  C 0.945454544210526 3.42727272105263  3.42727272105263 0.945454544210526  6.5 0.945454544210526  C 9.57272727894737 0.945454544210526  12.0545454421053 3.42727272105263  12.0545454421053 6.5  Z " fill-rule="nonzero" fill="#666666" stroke="none" transform="matrix(1 0 0 1 231 150 )" />
  </g>
</svg>