<?xml version="1.0" encoding="utf-8"?>
<svg version="1.1" xmlns:xlink="http://www.w3.org/1999/xlink" width="9px" height="5px" xmlns="http://www.w3.org/2000/svg">
  <g transform="matrix(1 0 0 1 -46 -27 )">
    <path d="M 1.35849056603774 5  C 1.8679245283019 4.27307798724979  2.37735849056602 3.6370212260934  2.80188679245282 3.18269496812451  C 3.50013293203696 2.36071275925551  4.60033504074505 2.15325848816286  5.53581872629704 2.50979468086524  C 5.73786886429534 2.58680103388829  5.93223499014246 2.69011719181307  6.11320754716979 2.81923396174943  C 6.02830188679243 2.72836871015565  6.11320754716979 2.54663820696808  6.11320754716979 2.45577295537433  C 6.11320754716979 2.36490770378055  6.19811320754715 2.27404245218676  6.28301886792451 2.27404245218676  C 6.28301886792451 2.36490770378055  6.36792452830187 2.36490770378055  6.45283018867923 2.27404245218676  C 6.45283018867923 2.18317720059301  6.45283018867923 2.18317720059301  6.45283018867923 2.09231194899922  C 6.36792452830187 2.00144669740544  6.36792452830187 1.91058144581169  6.36792452830187 1.8197161942179  C 6.36792452830187 1.72885094262412  6.45283018867923 1.63798569103037  6.53773584905659 1.63798569103037  C 6.62264150943395 1.63798569103037  6.62264150943395 1.63798569103037  6.70754716981131 1.63798569103037  C 6.79245283018867 1.63798569103037  6.79245283018867 1.63798569103037  6.87735849056602 1.54712043943658  C 6.87735849056602 1.54712043943658  6.87735849056602 1.4562551878428  6.87735849056602 1.36538993624904  C 6.79245283018867 1.27452468465526  6.79245283018867 1.18365943306148  6.79245283018867 1.0927941814677  C 6.79245283018867 1.00192892987394  6.87735849056602 0.911063678280158  6.96226415094338 0.911063678280158  C 7.04716981132074 0.911063678280158  7.04716981132074 0.911063678280158  7.1320754716981 0.911063678280158  C 5.26415094339623 -0.361049844032664  2.80188679245282 -0.270184592438909  1.27358490566039 1.54712043943658  C 0.933962264150949 2.00144669740544  0.509433962264154 2.54663820696808  0 3.18269496812451  C 0.254716981132077 3.54615597449961  0.594339622641513 4.00048223246847  0.84905660377359 4.36394323884358  C 1.01886792452831 4.54567374203114  1.18867924528303 4.81826949681246  1.35849056603774 5  Z M 7.811320754717 2.3649077037806  C 7.98113207547172 2.3649077037806  8.06603773584908 2.27404245218682  8.06603773584908 2.09231194899928  C 8.06603773584908 1.91058144581172  7.98113207547172 1.81971619421793  7.811320754717 1.81971619421793  C 7.64150943396228 1.81971619421793  7.55660377358492 1.91058144581172  7.55660377358492 2.09231194899928  C 7.55660377358492 2.27404245218682  7.64150943396228 2.3649077037806  7.811320754717 2.3649077037806  Z M 7.98113207547169 3.36442547131207  C 8.06603773584905 3.27356021971829  7.98113207547169 3.18269496812451  7.81132075471697 3.18269496812451  C 7.72641509433961 3.18269496812451  7.64150943396226 3.27356021971829  7.64150943396226 3.36442547131207  C 7.64150943396226 3.45529072290583  7.72641509433961 3.54615597449961  7.81132075471697 3.54615597449961  C 7.89622641509433 3.54615597449961  7.98113207547169 3.45529072290583  7.98113207547169 3.36442547131207  Z M 8.3207547169811 2.45577295537433  C 8.23584905660374 2.45577295537433  8.06603773584902 2.54663820696811  8.06603773584902 2.72836871015568  C 8.06603773584902 2.81923396174943  8.15094339622638 3.000964464937  8.3207547169811 3.000964464937  C 8.40566037735846 3.000964464937  8.57547169811318 2.91009921334322  8.57547169811318 2.72836871015568  C 8.57547169811318 2.54663820696811  8.40566037735846 2.45577295537433  8.3207547169811 2.45577295537433  Z M 8.49056603773582 3.45529072290589  C 8.49056603773582 3.54615597449964  8.57547169811318 3.72788647768721  8.74528301886789 3.72788647768721  C 8.83018867924525 3.72788647768721  8.99999999999997 3.63702122609342  8.99999999999997 3.45529072290589  C 8.91509433962261 3.27356021971832  8.83018867924525 3.18269496812454  8.74528301886789 3.18269496812454  C 8.66037735849054 3.18269496812454  8.49056603773582 3.27356021971832  8.49056603773582 3.45529072290589  Z M 7.38679245283021 3.000964464937  C 7.55660377358492 3.000964464937  7.64150943396228 2.91009921334322  7.64150943396228 2.72836871015568  C 7.64150943396228 2.54663820696811  7.55660377358492 2.45577295537433  7.38679245283021 2.45577295537433  C 7.30188679245285 2.45577295537433  7.13207547169813 2.54663820696811  7.13207547169813 2.72836871015568  C 7.13207547169813 2.91009921334322  7.21698113207549 3.000964464937  7.38679245283021 3.000964464937  Z M 6.622641509434 2.18317720059298  C 6.622641509434 2.36490770378052  6.70754716981136 2.4557729553743  6.87735849056608 2.4557729553743  C 7.0471698113208 2.4557729553743  7.13207547169816 2.36490770378052  7.13207547169816 2.18317720059298  C 7.13207547169816 2.00144669740541  6.96226415094344 1.91058144581163  6.87735849056608 1.91058144581163  C 6.70754716981136 1.91058144581163  6.622641509434 2.00144669740541  6.622641509434 2.18317720059298  Z M 7.21698113207549 1.8197161942179  C 7.38679245283021 1.8197161942179  7.47169811320757 1.72885094262412  7.47169811320757 1.54712043943658  C 7.47169811320757 1.36538993624902  7.38679245283021 1.27452468465523  7.21698113207549 1.27452468465523  C 7.13207547169813 1.27452468465523  6.96226415094341 1.36538993624902  6.96226415094341 1.54712043943658  C 6.96226415094341 1.72885094262412  7.04716981132077 1.8197161942179  7.21698113207549 1.8197161942179  Z M 6.3679245283019 1.18365943306151  C 6.19811320754718 1.18365943306151  6.11320754716982 1.09279418146772  6.11320754716982 0.911063678280186  C 6.11320754716982 0.72933317509262  6.19811320754718 0.638467923498837  6.3679245283019 0.638467923498837  C 6.53773584905662 0.638467923498837  6.62264150943398 0.72933317509262  6.62264150943398 0.911063678280186  C 6.62264150943398 1.09279418146772  6.53773584905662 1.18365943306151  6.3679245283019 1.18365943306151  Z M 4.83962264150941 0.275006917123733  C 4.92452830188677 0.275006917123733  5.09433962264148 0.365872168717516  5.09433962264148 0.547602671905054  C 5.09433962264148 0.638467923498837  5.00943396226413 0.820198426686403  4.83962264150941 0.820198426686403  C 4.75471698113205 0.820198426686403  4.58490566037733 0.72933317509262  4.58490566037733 0.547602671905054  C 4.66981132075469 0.456737420311299  4.75471698113205 0.275006917123733  4.83962264150941 0.275006917123733  Z M 4.41509433962258 1.00192892987394  C 4.49999999999994 1.00192892987394  4.66981132075466 1.09279418146772  4.66981132075466 1.27452468465526  C 4.66981132075466 1.45625518784283  4.5849056603773 1.54712043943661  4.41509433962258 1.54712043943661  C 4.33018867924523 1.54712043943661  4.16037735849051 1.45625518784283  4.16037735849051 1.27452468465526  C 4.16037735849051 1.09279418146772  4.24528301886787 1.00192892987394  4.41509433962258 1.00192892987394  Z M 4.16037735849059 0.275006917123733  C 4.33018867924531 0.275006917123733  4.41509433962267 0.365872168717516  4.41509433962267 0.547602671905054  C 4.41509433962267 0.638467923498837  4.33018867924531 0.820198426686403  4.16037735849059 0.820198426686403  C 3.99056603773587 0.820198426686403  3.90566037735852 0.638467923498837  3.90566037735852 0.547602671905054  C 3.90566037735852 0.456737420311299  3.99056603773587 0.275006917123733  4.16037735849059 0.275006917123733  Z M 6.45283018867929 2.54663820696803  C 6.36792452830193 2.54663820696803  6.19811320754721 2.63750345856181  6.19811320754721 2.81923396174938  C 6.19811320754721 3.00096446493691  6.28301886792457 3.0918297165307  6.45283018867929 3.0918297165307  C 6.53773584905665 3.0918297165307  6.70754716981136 3.00096446493691  6.70754716981136 2.81923396174938  C 6.70754716981136 2.63750345856181  6.622641509434 2.54663820696803  6.45283018867929 2.54663820696803  Z M 5.34905660377362 0.729333175092563  C 5.34905660377362 0.547602671905025  5.43396226415098 0.456737420311242  5.6037735849057 0.456737420311242  C 5.77358490566041 0.456737420311242  5.85849056603777 0.547602671905025  5.85849056603777 0.729333175092563  C 5.85849056603777 0.911063678280129  5.77358490566041 1.00192892987391  5.6037735849057 1.00192892987391  C 5.43396226415098 1.00192892987391  5.34905660377362 0.911063678280129  5.34905660377362 0.729333175092563  Z M 5.2641509433962 1.63798569103039  C 5.09433962264148 1.63798569103039  5.00943396226413 1.54712043943661  5.00943396226413 1.36538993624907  C 5.00943396226413 1.18365943306151  5.09433962264148 1.09279418146772  5.2641509433962 1.09279418146772  C 5.43396226415092 1.09279418146772  5.51886792452828 1.18365943306151  5.51886792452828 1.36538993624907  C 5.43396226415092 1.54712043943661  5.34905660377356 1.63798569103039  5.2641509433962 1.63798569103039  Z M 7.1320754716981 3.36442547131207  C 7.1320754716981 3.27356021971829  7.04716981132074 3.18269496812451  6.96226415094338 3.18269496812451  C 6.87735849056602 3.18269496812451  6.79245283018867 3.27356021971829  6.79245283018867 3.36442547131207  C 6.79245283018867 3.45529072290583  6.87735849056602 3.54615597449961  6.96226415094338 3.54615597449961  C 7.04716981132074 3.54615597449961  7.1320754716981 3.45529072290583  7.1320754716981 3.36442547131207  Z M 5.09433962264148 2.00144669740547  C 5.09433962264148 2.18317720059304  5.00943396226413 2.27404245218682  4.83962264150941 2.27404245218682  C 4.66981132075469 2.27404245218682  4.58490566037733 2.18317720059304  4.58490566037733 2.00144669740547  C 4.58490566037733 1.81971619421793  4.66981132075469 1.72885094262415  4.83962264150941 1.72885094262415  C 5.00943396226413 1.72885094262415  5.09433962264148 1.81971619421793  5.09433962264148 2.00144669740547  Z M 6.02830188679249 1.27452468465523  C 6.19811320754721 1.27452468465523  6.28301886792457 1.36538993624902  6.28301886792457 1.54712043943658  C 6.28301886792457 1.72885094262412  6.11320754716985 1.8197161942179  6.02830188679249 1.8197161942179  C 5.85849056603777 1.8197161942179  5.77358490566041 1.72885094262412  5.77358490566041 1.54712043943658  C 5.77358490566041 1.36538993624902  5.85849056603777 1.27452468465523  6.02830188679249 1.27452468465523  Z " fill-rule="nonzero" fill="#ffffff" stroke="none" transform="matrix(1 0 0 1 46 27 )" />
  </g>
</svg>