<?xml version="1.0" encoding="utf-8"?>
<svg version="1.1" xmlns:xlink="http://www.w3.org/1999/xlink" width="32px" height="23px" xmlns="http://www.w3.org/2000/svg">
  <g transform="matrix(1 0 0 1 -30 -13 )">
    <path d="M 32 14.3038869257951  C 32 9.50883392226148  28.3383084577114 5.68904593639576  23.5621890547264 5.68904593639576  C 23.5621890547264 5.68904593639576  21.9701492537313 5.68904593639576  21.9701492537313 5.68904593639576  C 20.8557213930348 2.35689045936396  17.8308457711443 0  14.2487562189055 0  C 10.5074626865672 0  7.32338308457711 2.60070671378092  6.3681592039801 6.09540636042403  C 2.70646766169154 6.90812720848057  0 10.2402826855124  0 14.2226148409894  C 0 17.8798586572438  2.30845771144279 20.9681978798587  5.41293532338308 22.1060070671378  C 5.41293532338308 22.1060070671378  5.97014925373134 20.0742049469965  5.97014925373134 20.0742049469965  C 3.66169154228856 19.1802120141343  1.99004975124378 16.904593639576  1.99004975124378 14.2226148409894  C 1.99004975124378 11.4593639575972  3.74129353233831 9.18374558303887  6.04975124378109 8.28975265017668  C 6.6865671641791 8.04593639575972  7.40298507462686 7.96466431095406  8.03980099502487 7.96466431095406  C 8.03980099502487 7.23321554770318  8.27860696517413 6.58303886925795  8.51741293532338 5.93286219081272  C 9.4726368159204 3.65724381625442  11.6218905472637 2.03180212014134  14.1691542288557 2.03180212014134  C 16.636815920398 2.03180212014134  18.7860696517413 3.49469964664311  19.7412935323383 5.68904593639576  C 19.9800995024876 6.33922261484099  20.2189054726368 6.98939929328622  20.2985074626866 7.63957597173145  C 20.3781094527363 7.63957597173145  20.4577114427861 7.63957597173145  20.4577114427861 7.63957597173145  C 20.4577114427861 7.63957597173145  22.2885572139303 7.63957597173145  22.2885572139303 7.63957597173145  C 22.2885572139303 7.63957597173145  23.4825870646766 7.63957597173145  23.4825870646766 7.63957597173145  C 27.0646766169154 7.63957597173145  30.0099502487562 10.6466431095406  30.0099502487562 14.3038869257951  C 30.0099502487562 17.9611307420495  27.0646766169154 20.9681978798587  23.4825870646766 20.9681978798587  C 23.4825870646766 20.9681978798587  20.4577114427861 20.9681978798587  20.4577114427861 20.9681978798587  C 20.2189054726368 20.9681978798587  19.9800995024876 20.9681978798587  19.7412935323383 20.9681978798587  C 19.7412935323383 20.9681978798587  19.8208955223881 23  19.8208955223881 23  C 20.0597014925373 23  20.2189054726368 23  20.4577114427861 23  C 20.4577114427861 23  23.4825870646766 23  23.4825870646766 23  C 28.1791044776119 23  32 19.0989399293286  32 14.3038869257951  Z " fill-rule="nonzero" fill="#ffffff" stroke="none" transform="matrix(1 0 0 1 30 13 )" />
  </g>
</svg>