<?xml version="1.0" encoding="utf-8"?>
<svg version="1.1" xmlns:xlink="http://www.w3.org/1999/xlink" width="19px" height="13px" xmlns="http://www.w3.org/2000/svg">
  <g transform="matrix(1 0 0 1 -36 -23 )">
    <path d="M 17.6288659793814 11.610298133637  C 18.8041237113402 10.4575025742688  19.2238586156112 8.7283092352165  18.8880706921944 7.24614351602879  C 18.8880706921944 7.24614351602879  16.6215022091311 7.24614351602879  16.6215022091311 7.24614351602879  L 14.5228276877761 7.24614351602879  L 13.9351988217968 9.30470701490061  C 13.9351988217968 9.30470701490061  16.5375552282769 9.30470701490061  16.5375552282769 9.30470701490061  C 16.3696612665685 9.6340771747201  16.2017673048601 9.88110479458472  15.9499263622975 10.1281324144493  C 14.9425625920471 11.1162428939078  13.179675994109 11.1985854338627  12.1723122238586 10.1281324144493  C 11.0810014727541 8.89299431512624  8.98232695139912 6.17569049661545  7.89101620029455 4.94055239729236  C 6.63181148748159 3.54072921805952  4.61708394698086 3.21135905824003  2.85419734904271 3.87009937787901  C 2.85419734904271 3.87009937787901  3.3578792341679 2.05856349887182  3.3578792341679 2.05856349887182  L 7.63917525773196 2.05856349887182  L 8.22680412371134 0  L 3.94550810014728 0  L 1.84683357879234 0  L 1.25920471281296 2.05856349887182  C 1.25920471281296 2.05856349887182  0.0839469808541971 6.9167733562093  0.0839469808541971 6.9167733562093  C 0.0839469808541971 6.99911589616418  0 7.16380097607392  0 7.24614351602879  C 0 7.24614351602879  2.18262150220913 7.24614351602879  2.18262150220913 7.24614351602879  C 2.18262150220913 7.24614351602879  2.26656848306333 7.24614351602879  2.26656848306333 7.24614351602879  C 2.43446244477172 6.9167733562093  2.60235640648012 6.66974573634469  2.85419734904271 6.42271811648007  C 3.86156111929308 5.4346076370216  5.62444771723122 5.35226509706672  6.63181148748159 6.42271811648007  C 7.80706921944035 7.65785621580316  9.82179675994109 10.375160034314  10.9131075110457 11.610298133637  C 12.6759941089838 13.5041765525991  15.7820324005891 13.4218340126442  17.6288659793814 11.610298133637  Z " fill-rule="nonzero" fill="#ffffff" stroke="none" transform="matrix(1 0 0 1 36 23 )" />
  </g>
</svg>