<?xml version="1.0" encoding="utf-8"?>
<svg version="1.1" xmlns:xlink="http://www.w3.org/1999/xlink" width="17px" height="7px" xmlns="http://www.w3.org/2000/svg">
  <g transform="matrix(1 0 0 1 -762 -53 )">
    <path d="M 16.8296593186373 0.721649484536082  C 16.9432197728791 0.801832760595645  17 0.894043528064146  17 0.998281786941581  C 17 1.10252004581901  16.9432197728791 1.19473081328751  16.8296593186373 1.27491408934708  L 8.89178356713427 6.87972508591065  C 8.77822311289245 6.95990836197022  8.64762859051436 7  8.5 7  C 8.35237140948564 7  8.22177688710755 6.95990836197022  8.10821643286573 6.87972508591065  L 0.170340681362725 1.27491408934708  C 0.0567802271209086 1.19473081328751  0 1.10252004581901  0 0.998281786941581  C 0 0.894043528064146  0.0567802271209086 0.801832760595645  0.170340681362725 0.721649484536082  L 1.02204408817635 0.120274914089347  C 1.13560454241817 0.0400916380297814  1.26619906479626 0  1.41382765531062 0  C 1.56145624582498 0  1.69205076820307 0.0400916380297814  1.80561122244489 0.120274914089347  L 8.5 4.84707903780069  L 15.1943887775551 0.120274914089347  C 15.3079492317969 0.0400916380297814  15.438543754175 0  15.5861723446894 0  C 15.7338009352037 0  15.8643954575818 0.0400916380297814  15.9779559118236 0.120274914089347  L 16.8296593186373 0.721649484536082  Z " fill-rule="nonzero" fill="#333333" stroke="none" transform="matrix(1 0 0 1 762 53 )" />
  </g>
</svg>