<?xml version="1.0" encoding="UTF-8"?>
<svg width="16px" height="16px" viewBox="0 0 16 16" version="1.1" xmlns="http://www.w3.org/2000/svg" xmlns:xlink="http://www.w3.org/1999/xlink">
    <!-- Generator: Sketch 61 (89581) - https://sketch.com -->
    <title>编组 7备份 2</title>
    <desc>Created with Sketch.</desc>
    <g id="典型页面" stroke="none" stroke-width="1" fill="none" fill-rule="evenodd">
        <g id="订购页-规格选型" transform="translate(-656.000000, -1154.000000)" fill-rule="nonzero">
            <g id="编组-7备份-2" transform="translate(656.000000, 1154.000000)">
                <rect id="矩形" fill="#FF5E41" x="0" y="0" width="16" height="16" rx="1"></rect>
                <path d="M10.3544651,3.42857143 C11.1525036,3.42857143 11.4450449,3.95279195 11.4450765,4.43516852 C11.4450766,4.82616574 11.2771368,5.02281965 11.0252746,5.26524237 L11.0252746,5.26524237 L12.0001167,5.26521073 C12.3157042,5.26521073 12.5714286,5.63740666 12.5714286,5.94481095 L12.5714286,5.94481095 L12.5714286,7.60410404 L12.0429802,7.60410404 L12.0429802,12.6216925 C12.0429802,12.9293817 11.7464818,13.1704433 11.4308943,13.1704433 L11.4308943,13.1704433 L4.57692499,13.1704433 C4.26083097,13.1704433 3.9557219,12.9293817 3.9557219,12.6216925 L3.9557219,12.6216925 L3.9557219,7.6041357 L3.42857143,7.6041357 L3.42857143,5.94484259 C3.42857143,5.6374383 3.68458067,5.26524237 3.9998516,5.26524237 L3.9998516,5.26524237 L5.12633027,5.26524237 C4.86959291,5.02285131 4.64802636,4.82616576 4.64802636,4.43520017 C4.64802636,3.95276031 4.85126357,3.42857143 5.64930203,3.42857143 C6.69863288,3.42857143 7.60354498,4.39576177 8.01498954,5.00718357 C8.4273838,4.39576177 9.30434288,3.42857143 10.3544651,3.42857143 Z M7.75217406,7.60410404 L4.47052619,7.60410404 L4.47052619,12.6543257 L7.75217406,12.6543257 L7.75217406,7.60410404 Z M11.5204832,7.60410404 L8.25004193,7.60410404 L8.25004193,12.6543257 L11.5204832,12.6543257 L11.5204832,7.60410404 Z M7.75220572,5.78161319 L3.95097337,5.78161319 L3.95097337,7.08779654 L7.75220572,7.08779654 L7.75220572,5.78161319 Z M12.0489317,5.78161319 L8.25004193,5.78161319 L8.25004193,7.08779654 L12.0489317,7.08779654 L12.0489317,5.78161319 Z M5.67016393,3.94468903 C5.31620826,3.94468903 5.18353425,4.12149713 5.1835659,4.42630595 C5.1835659,5.04532423 5.89407309,5.2649575 6.56016564,5.2649575 L6.56016564,5.2649575 L7.5280433,5.2649575 C7.12207539,4.67730636 6.38019625,3.94468903 5.67016393,3.94468903 Z M10.3335716,3.94468903 C9.62274786,3.94468903 8.9086318,4.67730636 8.50263222,5.26498916 L8.50263222,5.26498916 L9.47000337,5.26498916 C10.1358743,5.26498916 10.9098852,5.05396523 10.9098852,4.43523181 C10.9098852,4.13039134 10.6864826,3.94468903 10.3335716,3.94468903 Z" id="形状结合" fill="#FFFFFF"></path>
            </g>
        </g>
    </g>
</svg>