<?xml version="1.0" encoding="utf-8"?>
<svg version="1.1" xmlns:xlink="http://www.w3.org/1999/xlink" width="5px" height="7px" xmlns="http://www.w3.org/2000/svg">
  <g transform="matrix(1 0 0 1 -461 -162 )">
    <path d="M 2.6818181754386 0.572727274736842  C 2.07575756491228 0.572727274736842  1.5909090877193 0.763636358947368  1.28787878596491 1.0181818168421  C 0.98484849122807 1.33636362631579  0.803030301754385 1.59090908421053  0.681818175438596 2.16363635894737  L 0.621212119298245 2.35454545789474  L 1.53030303157895 2.48181818315789  L 1.5909090877193 2.35454545789474  C 1.65151514385965 2.03636364105263  1.71212121403509 1.97272727473684  1.83333333333333 1.78181818315789  C 2.01515150877193 1.52727272526316  2.37878788070175 1.4  2.74242424561403 1.4  C 3.28787880701754 1.4  3.71212119298246 1.7181818168421  3.71212119298246 2.16363635894737  C 3.71212119298246 2.35454544315789  3.65151515789474 2.48181816842105  3.53030301754386 2.67272727473684  C 3.46969698245614 2.73636362631579  3.34848484210526 2.86363635894737  3.10606063157895 3.05454545789474  C 2.68181818947368 3.37272727473684  2.62121211929824 3.43636364105263  2.43939394385965 3.62727272526316  C 2.25757576842105 3.94545457894737  2.13636364912281 4.2  2.13636363508772 4.58181816842105  L 2.13636363508772 5.21818183157895  L 2.98484849122807 5.21818183157895  L 2.98484849122807 5.02727274736842  L 2.98484849122807 4.77272725263158  L 2.98484849122807 4.64545457894737  C 2.98484849122807 4.39090908421053  3.04545452631579 4.2  3.16666666666667 4.07272725263158  C 3.22727270175439 3.94545457894737  3.34848484210526 3.88181816842105  3.77272729824561 3.56363635894737  C 4.13636364912281 3.24545454210526  4.3181818245614 3.1181818168421  4.43939396491228 2.86363635894737  C 4.56060603508772 2.60909090105263  4.62121214035088 2.35454544315789  4.62121214035088 2.1  C 4.5 1.20909091578947  3.77272729824561 0.572727274736842  2.6818181754386 0.572727274736842  Z M 2.13636363508772 6.80909091578947  L 2.13636363508772 5.91818183157895  L 3.10606063157895 5.91818183157895  L 3.10606063157895 6.80909091578947  L 2.13636363508772 6.80909091578947  Z " fill-rule="nonzero" fill="#9a9a9a" stroke="none" transform="matrix(1 0 0 1 461 162 )" />
  </g>
</svg>