<?xml version="1.0" encoding="utf-8"?>
<svg version="1.1" xmlns:xlink="http://www.w3.org/1999/xlink" width="9px" height="4px" xmlns="http://www.w3.org/2000/svg">
  <g transform="matrix(1 0 0 1 -31 -32 )">
    <path d="M 3.5620645825912 3.62323150120739  C 3.6532890142725 3.64536468841828  3.74499730585396 3.66525044514833  3.83704794609849 3.68282308667276  C 3.87281482763586 3.61524699612079  3.94515019695436 3.54716981132071  4.05405405405401 3.54716981132071  C 4.13513513513507 3.54716981132071  4.29729729729723 3.62264150943392  4.29602657746659 3.75074290534189  C 4.37748290349074 3.75929286943176  4.45902265004921 3.7659767818505  4.54054054054055 3.77358490566036  C 4.54054054054055 3.62264150943392  4.62162162162161 3.54716981132071  4.7837837837838 3.54716981132071  C 4.86440762868017 3.54716981132071  5.02520066075573 3.62179270253151  5.02702702702703 3.77358490566036  C 5.02702702702703 3.77445128428863  5.02702168462272 3.77531517651488  5.02701104658524 3.77617658231216  C 6.03971777856785 3.73850509209177  7.02076718462519 3.38911921003287  7.78378378378375 2.64150943396226  C 8.10810810810807 2.26415094339623  8.51351351351349 1.81132075471697  8.99999999999997 1.28301886792454  C 8.75675675675672 1.0566037735849  8.51351351351349 0.754716981132077  8.35135135135133 0.452830188679258  C 7.94594594594591 0.452830188679258  7.70270270270268 0.226415094339615  7.54054054054052 0  C 7.05405405405401 0.603773584905667  6.56756756756752 1.1320754716981  6.16216216216213 1.50943396226415  C 5.43243243243239 2.26415094339623  4.21621621621617 2.41509433962264  3.2432432432432 1.96226415094338  C 3.2432432432432 2.03773584905659  3.2432432432432 2.11320754716982  3.16216216216213 2.18867924528303  C 3.16216216216213 2.26415094339623  3.08108108108104 2.33962264150944  2.99999999999997 2.33962264150944  C 2.91891891891888 2.33962264150944  2.83783783783781 2.33962264150944  2.83783783783781 2.33962264150944  C 2.83783783783781 2.41509433962264  2.75675675675672 2.56603773584905  2.75675675675672 2.56603773584905  C 2.75675675675672 2.64150943396226  2.67567567567565 2.71698113207546  2.59459459459455 2.71698113207546  C 2.51351351351349 2.71698113207546  2.43243243243239 2.71698113207546  2.43243243243239 2.71698113207546  C 2.43243243243239 2.79245283018869  2.35135135135133 2.8679245283019  2.35135135135133 2.9433962264151  C 2.35135135135133 3.01886792452831  2.27027027027023 3.09433962264151  2.27027027027023 3.09433962264151  C 2.18918918918916 3.16981132075472  2.10810810810807 3.09433962264151  2.027027027027 3.09433962264151  C 2.16835201740878 3.18403129749788  2.31374858827286 3.26614317472681  2.46245060799328 3.34056265504302  C 2.44243849126192 3.3749606589756  2.43243243243245 3.41867247820866  2.43243243243245 3.47169811320754  C 2.43243243243245 3.62264150943398  2.51351351351354 3.69811320754718  2.67567567567568 3.69811320754718  C 2.73825063756641 3.69811320754718  2.85278095465131 3.54758373712738  2.90013049756996 3.47185239876799  C 2.96326005280258 3.49625023328892  3.02681509197748 3.51943181262698  3.08108108108107 3.62264150943395  C 3.08108108108107 3.47169811320751  3.16216216216213 3.3962264150943  3.32432432432432 3.3962264150943  C 3.47090692649269 3.3962264150943  3.55123961261415 3.45789300361594  3.5620645825912 3.62323150120739  Z M 1.54054054054055 1.43396226415092  C 1.54054054054055 1.35849056603772  1.45945945945948 1.20754716981131  1.29729729729729 1.20754716981131  C 1.13513513513513 1.20754716981131  1.05405405405406 1.28301886792451  1.05405405405406 1.43396226415092  C 1.05405405405406 1.50943396226415  1.13513513513513 1.66037735849056  1.29729729729729 1.66037735849056  C 1.37837837837839 1.66037735849056  1.54054054054055 1.58490566037736  1.54054054054055 1.43396226415092  Z M 1.2162162162162 2.71698113207546  C 1.37837837837836 2.71698113207546  1.45945945945945 2.64150943396226  1.45945945945945 2.49056603773585  C 1.45945945945945 2.33962264150941  1.29729729729729 2.2641509433962  1.2162162162162 2.2641509433962  C 1.05405405405406 2.2641509433962  0.972972972972968 2.33962264150941  0.972972972972968 2.49056603773585  C 0.972972972972968 2.64150943396226  1.05405405405403 2.71698113207546  1.2162162162162 2.71698113207546  Z M 4.29729729729723 3.77358490566036  C 4.14252391871545 3.7346306847821  3.98931753778083 3.71189163993509  3.83704794689586 3.68282308678118  C 3.81955652254388 3.71587047501581  3.81081081081075 3.74879802158495  3.81081081081075 3.77358490566036  C 3.81081081081075 3.92452830188677  3.97297297297291 3.99999999999997  4.05405405405401 3.99999999999997  C 4.13513513513507 3.99999999999997  4.21621621621617 3.92452830188677  4.29729729729723 3.77358490566036  Z M 0.162162162162161 1.43396226415101  C 0.243243243243256 1.50943396226421  0.324324324324323 1.58490566037742  0.405405405405418 1.58490566037742  C 0.567567567567579 1.66037735849062  0.648648648648646 1.50943396226421  0.648648648648646 1.43396226415101  C 0.648648648648646 1.3584905660378  0.567567567567579 1.20754716981139  0.405405405405418 1.20754716981139  C 0.324324324324323 1.20754716981139  0.162162162162161 1.2830188679246  0.162162162162161 1.43396226415101  Z M 1.70270270270271 0.981132075471749  C 1.78378378378378 0.981132075471749  1.86486486486484 0.905660377358544  1.86486486486484 0.830188679245339  C 1.86486486486484 0.754716981132106  1.78378378378378 0.679245283018901  1.70270270270271 0.679245283018901  C 1.62162162162161 0.679245283018901  1.54054054054055 0.754716981132106  1.54054054054055 0.830188679245339  C 1.54054054054055 0.830188679245339  1.62162162162161 0.981132075471749  1.70270270270271 0.981132075471749  Z M 2.18918918918922 2.71698113207546  C 2.35135135135135 2.71698113207546  2.43243243243245 2.64150943396226  2.43243243243245 2.49056603773585  C 2.43243243243245 2.33962264150941  2.35135135135138 2.2641509433962  2.18918918918922 2.2641509433962  C 2.10810810810813 2.2641509433962  2.02702702702703 2.33962264150941  1.94594594594597 2.49056603773585  C 1.94594594594597 2.64150943396226  2.02702702702703 2.71698113207546  2.18918918918922 2.71698113207546  Z M 1.37837837837836 1.96226415094344  C 1.45945945945945 2.11320754716985  1.54054054054052 2.18867924528305  1.62162162162161 2.18867924528305  C 1.78378378378375 2.18867924528305  1.86486486486484 2.11320754716985  1.86486486486484 1.96226415094344  C 1.86486486486484 1.811320754717  1.78378378378378 1.7358490566038  1.62162162162161 1.7358490566038  C 1.45945945945945 1.7358490566038  1.37837837837836 1.811320754717  1.37837837837836 1.96226415094344  Z M 3.56206457885847 3.62323150166702  C 3.54316821628558 3.73625961032695  3.464649533363 3.84905660377356  3.32432432432432 3.84905660377356  C 3.16216216216216 3.84905660377356  3.08108108108107 3.77358490566036  3.09074368445275 3.54138262720275  C 3.24451017497751 3.59418059044751  3.40043717461577 3.63985784267905  3.56206457885847 3.62323150166702  Z M 0 0.679245283018844  C 0 0.754716981132049  0.0810810810810665 0.905660377358458  0.162162162162161 0.905660377358458  C 0.324324324324323 0.981132075471663  0.405405405405389 0.905660377358458  0.405405405405389 0.754716981132049  C 0.405405405405389 0.679245283018844  0.324324324324323 0.528301886792434  0.243243243243228 0.528301886792434  C 0.162162162162161 0.528301886792434  0 0.603773584905639  0 0.679245283018844  Z M 1.21621621621622 0.830188679245254  C 1.21621621621622 0.754716981132049  1.13513513513513 0.603773584905639  1.05405405405406 0.603773584905639  C 0.972972972972968 0.603773584905639  0.810810810810807 0.679245283018844  0.810810810810807 0.754716981132049  C 0.72972972972974 0.905660377358458  0.810810810810807 0.981132075471663  0.972972972972968 0.981132075471663  C 1.05405405405406 0.981132075471663  1.21621621621622 0.905660377358458  1.21621621621622 0.830188679245254  Z M 0.97297297297294 1.96226415094344  C 0.97297297297294 1.88679245283021  0.891891891891845 1.7358490566038  0.729729729729684 1.7358490566038  C 0.567567567567551 1.7358490566038  0.486486486486456 1.811320754717  0.486486486486456 1.96226415094344  C 0.486486486486456 2.11320754716985  0.567567567567522 2.18867924528305  0.729729729729684 2.18867924528305  C 0.891891891891845 2.18867924528305  0.97297297297294 2.11320754716985  0.97297297297294 1.96226415094344  Z M 1.78378378378378 1.43396226415092  C 1.86486486486487 1.58490566037736  1.94594594594594 1.66037735849056  2.02702702702703 1.66037735849056  C 2.1081081081081 1.66037735849056  2.27027027027026 1.58490566037736  2.27027027027026 1.43396226415092  C 2.27027027027026 1.35849056603772  2.18918918918919 1.20754716981131  2.02702702702703 1.20754716981131  C 1.94594594594594 1.20754716981131  1.78378378378378 1.28301886792451  1.78378378378378 1.43396226415092  Z M 4.7837837837838 3.99999999999997  C 4.70270270270271 3.99999999999997  4.54054054054055 3.92452830188677  4.54055013393184 3.77075021709803  C 4.7029945794381 3.7802613405531  4.86539021910275 3.7821876621162  5.02699588823359 3.77358656308587  C 5.02700606937745 3.77444742063673  5.0270111367029 3.7753107602239  5.02701104581024 3.77617658233913  C 5.02516815496037 3.92539219411302  4.86439947904765 3.99999999999997  4.7837837837838 3.99999999999997  Z M 3.97297297297294 3.16981132075472  C 3.97297297297294 3.32075471698116  3.89189189189187 3.39622641509436  3.72972972972968 3.39622641509436  C 3.56756756756752 3.39622641509436  3.48648648648646 3.24528301886795  3.48648648648646 3.16981132075472  C 3.48648648648646 3.01886792452831  3.56756756756752 2.9433962264151  3.72972972972968 2.9433962264151  C 3.89189189189185 2.9433962264151  3.97297297297294 3.01886792452831  3.97297297297294 3.16981132075472  Z M 2.67567567567568 2.26415094339626  C 2.83783783783784 2.26415094339626  2.91891891891893 2.18867924528305  2.91891891891893 2.03773584905662  C 2.91891891891893 1.88679245283021  2.83783783783787 1.811320754717  2.67567567567568 1.811320754717  C 2.51351351351354 1.811320754717  2.43243243243245 1.88679245283021  2.43243243243245 2.03773584905662  C 2.43243243243245 2.18867924528305  2.51351351351352 2.26415094339626  2.67567567567568 2.26415094339626  Z M 4.37837837837839 3.39622641509436  C 4.29729729729732 3.39622641509436  4.13513513513516 3.32075471698116  4.13513513513516 3.16981132075472  C 4.13513513513516 3.01886792452831  4.21621621621622 2.9433962264151  4.37837837837839 2.9433962264151  C 4.45945945945948 2.9433962264151  4.62162162162164 3.01886792452831  4.62162162162164 3.16981132075472  C 4.62162162162164 3.32075471698116  4.54054054054055 3.39622641509436  4.37837837837839 3.39622641509436  Z M 3.48648648648651 2.71698113207546  C 3.32432432432435 2.71698113207546  3.24324324324326 2.64150943396226  3.24324324324326 2.49056603773585  C 3.24324324324326 2.33962264150941  3.40540540540542 2.2641509433962  3.48648648648651 2.2641509433962  C 3.64864864864865 2.2641509433962  3.72972972972974 2.33962264150941  3.72972972972974 2.49056603773585  C 3.72972972972974 2.64150943396226  3.64864864864867 2.71698113207546  3.48648648648651 2.71698113207546  Z M 2.83783783783787 2.94339622641513  C 2.83783783783787 2.79245283018872  2.91891891891893 2.71698113207552  3.08108108108109 2.71698113207552  C 3.24324324324326 2.71698113207552  3.32432432432435 2.79245283018872  3.32432432432435 2.94339622641513  C 3.32432432432435 3.09433962264157  3.24324324324328 3.16981132075477  3.08108108108109 3.16981132075477  C 2.91891891891893 3.16981132075477  2.83783783783787 3.09433962264157  2.83783783783787 2.94339622641513  Z M 4.37837837837836 2.64150943396226  C 4.37837837837836 2.79245283018867  4.29729729729729 2.86792452830187  4.1351351351351 2.86792452830187  C 4.05405405405403 2.86792452830187  3.89189189189187 2.79245283018867  3.89189189189187 2.64150943396226  C 3.89189189189187 2.49056603773582  3.97297297297297 2.41509433962261  4.1351351351351 2.41509433962261  C 4.2162162162162 2.41509433962261  4.37837837837836 2.49056603773582  4.37837837837836 2.64150943396226  Z M 2.90013049769004 3.47185239876148  C 2.7384808917453 3.47081536930489  2.59907068071641 3.40893559867837  2.46245060892113 3.34056265550788  C 2.49940522075428 3.27704289774792  2.57048024300579 3.24528301886792  2.67567567567568 3.24528301886792  C 2.82128945251881 3.24528301886792  2.90152616567519 3.30613714104177  2.90013049769004 3.47185239876148  Z M 1.54054054054055 2.94339622641513  C 1.54054054054055 3.09433962264157  1.62162162162161 3.16981132075477  1.7837837837838 3.16981132075477  C 1.86486486486487 3.16981132075477  2.02702702702703 3.09433962264157  2.02702702702703 2.94339622641513  C 2.02702702702703 2.79245283018872  1.94594594594597 2.71698113207552  1.7837837837838 2.71698113207552  C 1.62162162162164 2.71698113207552  1.54054054054055 2.79245283018872  1.54054054054055 2.94339622641513  Z " fill-rule="nonzero" fill="#ffffff" stroke="none" transform="matrix(1 0 0 1 31 32 )" />
  </g>
</svg>