<?xml version="1.0" encoding="utf-8"?>
<svg version="1.1" xmlns:xlink="http://www.w3.org/1999/xlink" width="17px" height="14px" xmlns="http://www.w3.org/2000/svg">
  <g transform="matrix(1 0 0 1 -74 -18 )">
    <path d="M 8.82413793103439 3.45882352941175  L 8.82413793103439 2.55294117647057  L 10.2827586206895 2.55294117647057  L 10.3637931034482 0.823529411764696  L 13.0379310344827 0.823529411764696  L 12.9568965517241 2.47058823529412  L 16.2793103448275 2.47058823529412  L 15.955172413793 13.6705882352941  L 13.3620689655172 13.6705882352941  L 11.903448275862 12.8470588235294  L 11.7413793103447 13.6705882352941  C 11.7413793103447 13.6705882352941  8.90517241379303 13.6705882352941  8.90517241379303 13.6705882352941  C 9.63448275862061 10.2941176470588  10.1206896551723 6.91764705882352  10.2017241379309 3.45882352941175  C 10.2017241379309 3.45882352941175  8.82413793103439 3.45882352941175  8.82413793103439 3.45882352941175  Z M 1.93620689655171 5.68235294117645  L 1.93620689655171 4.69411764705879  L 9.14827586206894 4.69411764705879  L 9.14827586206894 5.7647058823529  C 9.14827586206894 5.7647058823529  5.98793103448276 5.7647058823529  5.98793103448276 5.7647058823529  C 5.90689655172412 6.17647058823525  5.50172413793103 8.39999999999995  4.61034482758618 12.2705882352941  C 4.61034482758618 12.2705882352941  6.39310344827584 12.2705882352941  6.39310344827584 12.2705882352941  L 5.98793103448276 10.1294117647058  L 8.1758620689655 10.1294117647058  L 8.74310344827586 13.5882352941176  L 0.720689655172407 13.5882352941176  L 3.63793103448273 5.68235294117645  L 1.93620689655171 5.68235294117645  Z M 12.8758620689655 3.37647058823529  C 12.7948275862069 5.18823529411765  12.7137931034483 7  12.551724137931 8.72941176470587  C 12.3896551724138 9.79999999999998  12.3086206896552 10.8705882352941  12.0655172413793 11.9411764705882  C 12.0655172413793 11.9411764705882  13.2810344827586 12.5176470588235  13.2810344827586 12.5176470588235  L 13.5241379310345 3.37647058823529  C 13.5241379310345 3.37647058823529  12.8758620689655 3.37647058823529  12.8758620689655 3.37647058823529  Z " fill-rule="nonzero" fill="#ffffff" stroke="none" transform="matrix(1 0 0 1 74 18 )" />
  </g>
</svg>