<?xml version="1.0" encoding="utf-8"?>
<svg version="1.1" xmlns:xlink="http://www.w3.org/1999/xlink" width="16px" height="14px" xmlns="http://www.w3.org/2000/svg">
  <g transform="matrix(1 0 0 1 -59 -18 )">
    <path d="M 1.6206896551725 5.35294117647061  L 2.75517241379316 5.35294117647061  L 2.43103448275866 13.8352941176471  L 0.243103448275917 13.8352941176471  L 1.6206896551725 5.35294117647061  Z M 1.13448275862072 3.95294117647057  L 3.16034482758624 3.95294117647057  L 3.16034482758624 2.22352941176467  L 1.62068965517244 1.64705882352939  L 7.29310344827587 1.81176470588233  L 5.67241379310349 1.97647058823526  L 5.67241379310349 3.95294117647057  L 7.29310344827587 4.03529411764703  L 7.29310344827587 5.02352941176468  L 5.67241379310349 5.02352941176468  L 5.51034482758621 13.9176470588235  L 2.91724137931038 13.9176470588235  L 3.16034482758624 4.9411764705882  L 1.13448275862072 4.85882352941175  L 1.13448275862072 3.95294117647057  Z M 6.15862068965527 13.9176470588235  C 6.15862068965527 13.9176470588235  6.07758620689663 5.43529411764709  6.07758620689663 5.43529411764709  C 6.32068965517249 5.43529411764709  7.21206896551735 5.35294117647061  7.21206896551735 5.35294117647061  L 7.13103448275871 13.9176470588235  L 6.15862068965527 13.9176470588235  Z M 11.1017241379309 10.5411764705882  C 11.1017241379309 10.5411764705882  9.72413793103442 9.3058823529411  9.72413793103442 9.3058823529411  L 7.6982758620689 9.22352941176464  C 7.6982758620689 9.22352941176464  9.88620689655164 11.4470588235293  9.88620689655164 11.4470588235293  C 9.39999999999992 12.0235294117646  8.50862068965512 12.8470588235293  7.29310344827582 13.7529411764705  C 7.29310344827582 13.7529411764705  10.7775862068965 13.835294117647  10.7775862068965 13.835294117647  C 12.6413793103447 12.435294117647  14.3431034482758 10.4588235294117  15.8017241379309 8.15294117647051  C 15.8017241379309 8.15294117647051  15.8017241379309 7.32941176470581  15.8017241379309 7.32941176470581  L 12.155172413793 7.32941176470581  L 12.5603448275861 6.75294117647053  L 11.1827586206896 6.75294117647053  L 11.3448275862068 6.58823529411757  C 11.3448275862068 6.58823529411757  12.155172413793 6.09411764705877  12.155172413793 6.09411764705877  C 12.9655172413792 5.35294117647052  13.5327586206896 4.85882352941169  13.7758620689655 4.52941176470583  C 14.0999999999999 4.19999999999993  14.7482758620689 3.54117647058817  15.8827586206896 2.30588235294113  C 15.8827586206896 2.30588235294113  15.8827586206896 1.39999999999995  15.8827586206896 1.39999999999995  L 11.5068965517241 1.39999999999995  L 12.0741379310344 0.411764705882291  L 9.48103448275856 0.411764705882291  L 7.77931034482754 2.71764705882347  L 10.6965517241379 2.71764705882347  L 11.0206896551724 2.30588235294113  C 11.0206896551724 2.30588235294113  12.6413793103447 2.38823529411758  12.6413793103447 2.38823529411758  C 12.155172413793 3.04705882352934  11.5879310344827 3.62352941176465  10.8586206896551 4.28235294117641  C 10.6965517241379 4.035294117647  10.6155172413792 3.78823529411758  10.453448275862 3.62352941176465  C 10.453448275862 3.62352941176465  7.6982758620689 3.62352941176465  7.6982758620689 3.62352941176465  C 7.94137931034476 3.95294117647052  8.42758620689648 4.52941176470583  9.07586206896548 5.51764705882346  C 9.07586206896548 5.51764705882346  7.29310344827582 6.75294117647053  7.29310344827582 6.75294117647053  C 7.29310344827582 6.75294117647053  9.64310344827578 6.83529411764698  9.64310344827578 6.83529411764698  C 9.07586206896542 7.49411764705874  8.26551724137926 8.23529411764699  7.21206896551718 9.05882352941168  C 7.21206896551718 9.05882352941168  10.6155172413792 9.05882352941168  10.6155172413792 9.05882352941168  L 11.4258620689654 8.39999999999992  L 11.7499999999999 8.39999999999992  C 11.7499999999999 8.39999999999992  12.3172413793102 8.4823529411764  12.3172413793102 8.4823529411764  C 12.3172413793102 8.64705882352933  12.2362068965517 8.72941176470582  12.2362068965517 8.89411764705875  C 12.2362068965517 8.97647058823523  11.8310344827585 9.55294117647051  11.1017241379309 10.5411764705882  Z " fill-rule="nonzero" fill="#ffffff" stroke="none" transform="matrix(1 0 0 1 59 18 )" />
  </g>
</svg>