<?xml version="1.0" encoding="utf-8"?>
<svg version="1.1" xmlns:xlink="http://www.w3.org/1999/xlink" width="20px" height="20px" xmlns="http://www.w3.org/2000/svg">
  <g transform="matrix(1 0 0 1 -205 -838 )">
    <path d="M 0.0218126032 10.08506944  C 0.0218126032 15.53982581  4.46013602 19.9781873968  9.91493056 19.9781873968  C 15.3704119 19.9781873968  19.8080485 15.54055079  19.8080485 10.08506944  C 19.8080485 4.6295881  15.3704119 0.191951499999998  9.91493056 0.191951499999998  C 4.46017419 0.191951499999998  0.0218126032 4.6295881  0.0218126032 10.08506944  Z M 10.6247433 11.50465682  C 10.6247433 11.89647895  10.3067527 12.21446958  9.91493056 12.21446958  C 9.52310843 12.21446958  9.20511779 11.89647895  9.20511779 11.50465682  L 9.20511779 5.1165327  C 9.20511779 4.7239856  9.52310843 4.40672  9.91493056 4.40672  C 10.3067527 4.40672  10.6247433 4.7239856  10.6247433 5.1165327  L 10.6247433 11.50465682  Z M 10.9796306 14.69871887  C 10.9796306 15.28673824  10.5029499 15.76341893  9.91493056 15.76341893  C 9.32691118 15.76341893  8.85023049 15.28673824  8.85023049 14.69871887  C 8.85023049 14.11069949  9.32691118 13.6340188  9.91493056 13.6340188  C 10.5029499 13.6340188  10.9796306 14.11069949  10.9796306 14.69871887  Z " fill-rule="nonzero" fill="#fe983d" stroke="none" transform="matrix(1 0 0 1 205 838 )" />
  </g>
</svg>