<?xml version="1.0" encoding="UTF-8"?>
<svg width="200px" height="200px" viewBox="0 0 200 200" version="1.1" xmlns="http://www.w3.org/2000/svg" xmlns:xlink="http://www.w3.org/1999/xlink">
    <!-- Generator: Sketch 61 (89581) - https://sketch.com -->
    <title>加载 (1)</title>
    <desc>Created with Sketch.</desc>
    <defs>
        <linearGradient x1="58.4068949%" y1="100%" x2="16.8204954%" y2="19.8007088%" id="linearGradient-1">
            <stop stop-color="#C9C9C9" stop-opacity="0.225251311" offset="0%"></stop>
            <stop stop-color="#999999" offset="100%"></stop>
        </linearGradient>
    </defs>
    <g id="页面-1" stroke="none" stroke-width="1" fill="none" fill-rule="evenodd">
        <g id="加载-(1)" transform="translate(100.000000, 100.000000) scale(-1, 1) translate(-100.000000, -100.000000) " fill="url(#linearGradient-1)" fill-rule="nonzero">
            <path d="M149.468359,13.0728516 L141.779102,26.6783203 C129.461328,19.6441406 115.2,15.625 100,15.625 C53.4009766,15.625 15.625,53.4009766 15.625,100 C15.625,146.599023 53.4009766,184.375 100,184.375 C146.599023,184.375 184.375,146.599023 184.375,100 C184.375,92.3945312 183.36875,85.0242188 181.482031,78.0146484 L196.598242,74.0429688 C198.816992,82.3207031 200,91.0222656 200,100 C200,155.228516 155.228516,200 100,200 C44.7714844,200 0,155.228516 0,100 C0,44.7714844 44.7714844,0 100,0 C117.995312,0 134.880469,4.75332031 149.468359,13.0728516 Z" id="路径"></path>
        </g>
    </g>
</svg>