<?xml version="1.0" encoding="utf-8"?>
<svg version="1.1" xmlns:xlink="http://www.w3.org/1999/xlink" width="8px" height="8px" xmlns="http://www.w3.org/2000/svg">
  <g transform="matrix(1 0 0 1 -205 -57 )">
    <path d="M 7.83333333333333 7.36134453781513  C 7.83333333333333 7.36134453781513  4.56666666666667 4  4.56666666666667 4  C 4.56666666666667 4  7.9 0.638655462184874  7.9 0.638655462184874  C 8.03333333333334 0.504201680672269  8.03333333333334 0.235294117647059  7.9 0.100840336134454  C 7.76666666666667 -0.0336134453781511  7.5 -0.0336134453781511  7.36666666666667 0.100840336134454  C 7.36666666666667 0.100840336134454  4.03333333333333 3.46218487394958  4.03333333333333 3.46218487394958  C 4.03333333333333 3.46218487394958  0.7 0.100840336134454  0.7 0.100840336134454  C 0.566666666666667 -0.0336134453781511  0.3 -0.0336134453781511  0.166666666666667 0.100840336134454  C -0.0333333333333332 0.235294117647059  -0.0333333333333332 0.504201680672269  0.1 0.638655462184874  C 0.1 0.638655462184874  3.43333333333333 4  3.43333333333333 4  C 3.43333333333333 4  0.1 7.36134453781513  0.1 7.36134453781513  C -0.0333333333333332 7.49579831932773  -0.0333333333333332 7.76470588235294  0.1 7.89915966386555  C 0.233333333333334 8.03361344537815  0.5 8.03361344537815  0.633333333333334 7.89915966386555  C 0.633333333333334 7.89915966386555  3.96666666666667 4.53781512605042  3.96666666666667 4.53781512605042  C 3.96666666666667 4.53781512605042  7.3 7.89915966386555  7.3 7.89915966386555  C 7.43333333333333 8.03361344537815  7.7 8.03361344537815  7.83333333333333 7.89915966386555  C 7.96666666666667 7.76470588235294  7.96666666666667 7.49579831932773  7.83333333333333 7.36134453781513  Z " fill-rule="nonzero" fill="#000000" stroke="none" transform="matrix(1 0 0 1 205 57 )" />
  </g>
</svg>