<?xml version="1.0" encoding="utf-8"?>
<svg version="1.1" xmlns:xlink="http://www.w3.org/1999/xlink" width="10px" height="10px" xmlns="http://www.w3.org/2000/svg">
  <g transform="matrix(1 0 0 1 -858 -18 )">
    <path d="M 9.79166666666667 9.20168067226891  C 9.79166666666667 9.20168067226891  5.70833333333333 5  5.70833333333333 5  C 5.70833333333333 5  9.875 0.798319327731093  9.875 0.798319327731093  C 10.0416666666667 0.630252100840336  10.0416666666667 0.294117647058824  9.875 0.126050420168068  C 9.70833333333334 -0.0420168067226889  9.375 -0.0420168067226889  9.20833333333333 0.126050420168068  C 9.20833333333333 0.126050420168068  5.04166666666667 4.32773109243698  5.04166666666667 4.32773109243698  C 5.04166666666667 4.32773109243698  0.875 0.126050420168068  0.875 0.126050420168068  C 0.708333333333333 -0.0420168067226889  0.375 -0.0420168067226889  0.208333333333333 0.126050420168068  C -0.0416666666666665 0.294117647058824  -0.0416666666666665 0.630252100840336  0.125 0.798319327731093  C 0.125 0.798319327731093  4.29166666666667 5  4.29166666666667 5  C 4.29166666666667 5  0.125 9.20168067226891  0.125 9.20168067226891  C -0.0416666666666665 9.36974789915966  -0.0416666666666665 9.70588235294118  0.125 9.87394957983193  C 0.291666666666667 10.0420168067227  0.625 10.0420168067227  0.791666666666667 9.87394957983193  C 0.791666666666667 9.87394957983193  4.95833333333333 5.67226890756303  4.95833333333333 5.67226890756303  C 4.95833333333333 5.67226890756303  9.125 9.87394957983193  9.125 9.87394957983193  C 9.29166666666667 10.0420168067227  9.625 10.0420168067227  9.79166666666667 9.87394957983193  C 9.95833333333333 9.70588235294118  9.95833333333333 9.36974789915967  9.79166666666667 9.20168067226891  Z " fill-rule="nonzero" fill="#000000" stroke="none" transform="matrix(1 0 0 1 858 18 )" />
  </g>
</svg>