<?xml version="1.0" encoding="utf-8"?>
<svg version="1.1" xmlns:xlink="http://www.w3.org/1999/xlink" width="15px" height="13px" xmlns="http://www.w3.org/2000/svg">
  <g transform="matrix(1 0 0 1 -9 -10 )">
    <path d="M 1.40625 6.125  L 1.40625 6.5  C 1.40625 9.875  4.125 12.59375  7.5 12.59375  C 8.625 12.59375  9.75 12.3125  10.6875 11.65625  C 10.875 11.5625  10.96875 11.375  10.96875 11.09375  C 10.96875 10.71875  10.6875 10.53125  10.40625 10.53125  C 10.3125 10.53125  10.125 10.53125  10.03125 10.625  C 9.28125 11.1875  8.4375 11.46875  7.5 11.46875  C 4.78125 11.46875  2.53125 9.21875  2.53125 6.5  L 2.53125 6.125  L 3.84375 6.125  L 1.96875 3.3125  L 0 6.125  L 1.40625 6.125  Z M 13.125 9.59375  L 15 6.875  L 13.59375 6.875  L 13.59375 6.78125  L 13.59375 6.5  C 13.59375 3.125  10.875 0.40625  7.5 0.40625  C 6.375 0.40625  5.25 0.6875  4.3125 1.34375  C 4.125 1.34375  3.9375 1.625  3.9375 1.8125  C 3.9375 2.1875  4.21875 2.375  4.5 2.375  C 4.59375 2.375  4.78125 2.375  4.875 2.28125  C 5.71875 1.8125  6.5625 1.53125  7.5 1.53125  C 10.21875 1.53125  12.46875 3.78125  12.46875 6.5  L 12.46875 6.875  L 11.15625 6.875  L 13.125 9.59375  Z " fill-rule="nonzero" fill="#337dff" stroke="none" transform="matrix(1 0 0 1 9 10 )" />
  </g>
</svg>