<?xml version="1.0" encoding="utf-8"?>
<svg version="1.1" xmlns:xlink="http://www.w3.org/1999/xlink" width="14px" height="14px" xmlns="http://www.w3.org/2000/svg">
  <g transform="matrix(1 0 0 1 -861 -248 )">
    <path d="M 7 0  C 3.13400675118445 0  0 3.13400675118445  0 7  C 0 10.8659932488156  3.13400675118445 14  7 14  C 10.8659932488156 14  14 10.8659932488156  14 7  C 14 3.13400675118445  10.8659932488156 0  7 0  Z M 10.892 7  L 10.13075 7.76125  L 9.9645 7.9275  L 7.18025 10.71175  L 6.251875 9.783375  L 8.36325 7.672  L 3.108 7.672  L 3.108 6.272  L 8.308125 6.272  L 6.251 4.21575  L 7.179375 3.287375  L 9.963625 6.071625  L 10.892 7  Z " fill-rule="nonzero" fill="#10c038" stroke="none" transform="matrix(1 0 0 1 861 248 )" />
  </g>
</svg>