<?xml version="1.0" encoding="utf-8"?>
<svg version="1.1" xmlns:xlink="http://www.w3.org/1999/xlink" width="14px" height="14px" xmlns="http://www.w3.org/2000/svg">
  <g transform="matrix(1 0 0 1 -861 -367 )">
    <path d="M 14 7  C 14 3.1325  10.8675 0  7 0  C 3.1325 0  0 3.1325  0 7  C 0 10.8675  3.1325 14  7 14  C 10.8675 14  14 10.8675  14 7  Z M 9.24 6.125  L 9.6775 6.2475  C 9.87 6.3  9.975 6.4925  9.9225 6.685  C 9.8875 6.8425  9.7475 6.9475  9.59 6.9475  C 9.555 6.9475  9.5375 6.93  9.5025 6.93  L 8.3475 6.615  L 7.7 7  L 8.4 7.42  L 9.555 7.105  C 9.7475 7.0525  9.94 7.1575  9.9925 7.35  C 10.045 7.5425  9.94 7.735  9.7475 7.7875  L 9.275 7.91  L 10.4125 8.575  C 10.5875 8.6625  10.64 8.89  10.5175 9.065  C 10.465 9.17  10.3425 9.24  10.22 9.24  C 10.1675 9.24  10.0975 9.2225  10.045 9.1875  L 8.925 8.54  L 9.0475 8.995  C 9.1 9.1875  8.995 9.38  8.8025 9.4325  C 8.7675 9.45  8.75 9.45  8.715 9.45  C 8.575 9.45  8.4175 9.345  8.3825 9.1875  L 8.0675 8.0325  L 7.35 7.6125  L 7.35 8.365  L 8.1725 9.205  C 8.3125 9.3275  8.3125 9.555  8.1725 9.695  C 8.1025 9.765  8.015 9.8  7.9275 9.8  C 7.84 9.8  7.7525 9.765  7.6825 9.695  L 7.3325 9.345  L 7.3325 10.71  C 7.3325 10.9025  7.175 11.06  6.9825 11.06  C 6.79 11.06  6.6325 10.9025  6.6325 10.71  L 6.6325 9.345  L 6.2825 9.695  C 6.2125 9.765  6.125 9.8  6.0375 9.8  C 5.95 9.8  5.8625 9.765  5.7925 9.695  C 5.6525 9.5725  5.6525 9.345  5.7925 9.205  L 6.6325 8.36499999999999  L 6.6325 7.6125  L 5.915 8.0325  L 5.6 9.1875  C 5.565 9.345  5.425 9.45  5.2675 9.45  C 5.2325 9.45  5.215 9.4325  5.18 9.4325  C 4.9875 9.38  4.8825 9.1875  4.935 8.995  L 5.0575 8.5225  L 3.9375 9.17  C 3.885 9.205  3.815 9.2225  3.7625 9.2225  C 3.64 9.2225  3.535 9.1525  3.465 9.0475  C 3.36 8.89  3.4125 8.68  3.5875 8.575  L 4.7075 7.91  L 4.235 7.7875  C 4.0425 7.735  3.9375 7.5425  3.99 7.35  C 4.0425 7.1575  4.235 7.0525  4.4275 7.105  L 5.5825 7.42  L 6.3 7  L 5.635 6.5975  L 4.48 6.9125  C 4.445 6.93  4.4275 6.93  4.3925 6.93  C 4.2525 6.93  4.095 6.825  4.06 6.6675  C 4.0075 6.475  4.1125 6.2825  4.305 6.23  L 4.7775 6.1075  L 3.605 5.425  C 3.4475 5.3375  3.3775 5.1275  3.4825 4.9525  C 3.57 4.795  3.78 4.725  3.955 4.83  L 5.1275 5.5125  L 5.005 5.04  C 4.9525 4.8475  5.0575 4.655  5.25 4.6025  C 5.4425 4.55  5.635 4.655  5.6875 4.8475  L 6.0025 6.0025  L 6.65 6.3875  L 6.65 5.565  L 5.81 4.725  C 5.67 4.6025  5.67 4.375  5.81 4.235  C 5.9325 4.095  6.16 4.095  6.3 4.235  L 6.65 4.585  L 6.65 3.29  C 6.65 3.0975  6.8075 2.94  7 2.94  C 7.1925 2.94  7.35 3.0975  7.35 3.29  L 7.35 4.585  L 7.7 4.235  C 7.8225 4.095  8.05 4.095  8.19 4.235  C 8.33 4.3575  8.33 4.585  8.19 4.725  L 7.35 5.565  L 7.35 6.3875  L 8.015 6.02  L 8.33 4.865  C 8.3825 4.6725  8.575 4.5675  8.7675 4.62  C 8.96 4.6725  9.065 4.865  9.0125 5.0575  L 8.89 5.53  L 10.0625 4.8475  C 10.22 4.7425  10.43 4.795  10.535 4.97  C 10.64 5.1275  10.5875 5.3375  10.4125 5.4425  L 9.24 6.125  Z " fill-rule="nonzero" fill="#75849b" stroke="none" transform="matrix(1 0 0 1 861 367 )" />
  </g>
</svg>