<?xml version="1.0" encoding="utf-8"?>
<svg version="1.1" xmlns:xlink="http://www.w3.org/1999/xlink" width="6px" height="6px" xmlns="http://www.w3.org/2000/svg">
  <g transform="matrix(1 0 0 1 -1296 -251 )">
    <path d="M 1.00000000000001 4.62132034355963  L 4.62132034355966 4.62132039164697  L 4.62132034355965 2.64644660940684  L 4.62132034355966 1.00000000000001  C 4.62132034355965 0.719999999999999  4.84132034355966 0.500000000000004  5.12132034355966 0.500000000000003  C 5.40132034355965 0.500000000000013  5.62132034355964 0.720000000000009  5.62132034355965 1.00000000000002  L 5.62132034355965 5  C 5.62132034355966 5.17157240087263  5.53871626801036 5.32061641750456  5.4103200334543 5.41032018574778  C 5.32061628295474 5.53871634258132  5.17157232342894 5.62132034355962  4.99999999999999 5.62132034355962  L 1 5.62132034355962  C 0.719999999999989 5.62132034355962  0.499999999999993 5.40132034355963  0.499999999999993 5.12132034355963  C 0.500000000000008 4.84132034355963  0.720000000000005 4.62132034355963  1.00000000000001 4.62132034355963  Z " fill-rule="nonzero" fill="#337dff" stroke="none" transform="matrix(1 0 0 1 1296 251 )" />
  </g>
</svg>