<?xml version="1.0" encoding="utf-8"?>
<svg version="1.1" xmlns:xlink="http://www.w3.org/1999/xlink" width="56px" height="32px" xmlns="http://www.w3.org/2000/svg">
  <g transform="matrix(1 0 0 1 -434 -914 )">
    <path d="M 434.5 917  A 2.5 2.5 0 0 1 437 914.5 L 487 914.5  A 2.5 2.5 0 0 1 489.5 917 L 489.5 943  A 2.5 2.5 0 0 1 487 945.5 L 437 945.5  A 2.5 2.5 0 0 1 434.5 943 L 434.5 917  Z " fill-rule="nonzero" fill="#ffffff" stroke="none" />
    <path d="M 434.5 917  A 2.5 2.5 0 0 1 437 914.5 L 487 914.5  A 2.5 2.5 0 0 1 489.5 917 L 489.5 943  A 2.5 2.5 0 0 1 487 945.5 L 437 945.5  A 2.5 2.5 0 0 1 434.5 943 L 434.5 917  Z " stroke-width="1" stroke="#d9d9d9" fill="none" />
  </g>
</svg>