<?xml version="1.0" encoding="UTF-8"?>
<svg width="400px" height="250px" viewBox="0 0 400 250" version="1.1" xmlns="http://www.w3.org/2000/svg" xmlns:xlink="http://www.w3.org/1999/xlink">
    <!-- Generator: Sketch 61 (89581) - https://sketch.com -->
    <title>Group 13</title>
    <desc>Created with Sketch.</desc>
    <defs>
        <linearGradient x1="46.8383896%" y1="20.9829443%" x2="50%" y2="62.7332389%" id="linearGradient-1">
            <stop stop-color="#EEEEEE" offset="0%"></stop>
            <stop stop-color="#E4E4E4" stop-opacity="0" offset="100%"></stop>
        </linearGradient>
        <radialGradient cx="48.8611889%" cy="50%" fx="48.8611889%" fy="50%" r="50%" gradientTransform="translate(0.488612,0.500000),scale(0.230331,1.000000),rotate(90.000000),scale(1.000000,4.159716),translate(-0.488612,-0.500000)" id="radialGradient-2">
            <stop stop-color="#B0B0B0" stop-opacity="0.839707168" offset="0%"></stop>
            <stop stop-color="#D8D8D8" stop-opacity="0" offset="100%"></stop>
        </radialGradient>
        <linearGradient x1="50%" y1="100%" x2="50%" y2="0%" id="linearGradient-3">
            <stop stop-color="#FAFAFA" stop-opacity="0" offset="0%"></stop>
            <stop stop-color="#E9E9E9" offset="100%"></stop>
        </linearGradient>
        <linearGradient x1="50%" y1="0%" x2="50%" y2="100%" id="linearGradient-4">
            <stop stop-color="#EEEEEE" offset="0%"></stop>
            <stop stop-color="#D8D8D8" offset="100%"></stop>
        </linearGradient>
        <linearGradient x1="50%" y1="31.3660162%" x2="80.0829123%" y2="100%" id="linearGradient-5">
            <stop stop-color="#EEEEEE" offset="0%"></stop>
            <stop stop-color="#D9D9D9" offset="100%"></stop>
        </linearGradient>
        <linearGradient x1="50%" y1="31.3660162%" x2="80.2149272%" y2="100%" id="linearGradient-6">
            <stop stop-color="#EEEEEE" offset="0%"></stop>
            <stop stop-color="#D9D9D9" offset="100%"></stop>
        </linearGradient>
        <linearGradient x1="50%" y1="31.3660162%" x2="78.8675677%" y2="100%" id="linearGradient-7">
            <stop stop-color="#F6F6F6" offset="0%"></stop>
            <stop stop-color="#E8E8E8" offset="100%"></stop>
        </linearGradient>
        <linearGradient x1="50%" y1="0%" x2="50%" y2="100%" id="linearGradient-8">
            <stop stop-color="#FFF8F0" offset="0%"></stop>
            <stop stop-color="#FFEFDD" offset="100%"></stop>
        </linearGradient>
        <linearGradient x1="60.304988%" y1="73.8508844%" x2="23.4886621%" y2="17.8791066%" id="linearGradient-9">
            <stop stop-color="#DFDFDF" offset="0%"></stop>
            <stop stop-color="#F3F3F3" offset="100%"></stop>
        </linearGradient>
        <linearGradient x1="29.6452193%" y1="30.5406043%" x2="80.1375334%" y2="65.5951474%" id="linearGradient-10">
            <stop stop-color="#EDEDED" offset="0%"></stop>
            <stop stop-color="#E9E9E9" offset="100%"></stop>
        </linearGradient>
        <linearGradient x1="41.124938%" y1="43.6896357%" x2="61.0278433%" y2="55.5594676%" id="linearGradient-11">
            <stop stop-color="#D5D5D5" offset="0%"></stop>
            <stop stop-color="#DEDEDE" offset="100%"></stop>
        </linearGradient>
        <linearGradient x1="17.096475%" y1="45.1856379%" x2="94.1690369%" y2="52.5801173%" id="linearGradient-12">
            <stop stop-color="#EEEEEE" offset="0%"></stop>
            <stop stop-color="#E8E8E8" offset="100%"></stop>
        </linearGradient>
        <linearGradient x1="17.096475%" y1="46.0044314%" x2="94.1690369%" y2="52.1413088%" id="linearGradient-13">
            <stop stop-color="#EEEEEE" offset="0%"></stop>
            <stop stop-color="#E8E8E8" offset="100%"></stop>
        </linearGradient>
        <linearGradient x1="100%" y1="67.9163764%" x2="5.33086367%" y2="34.9116983%" id="linearGradient-14">
            <stop stop-color="#E8E8E8" offset="0%"></stop>
            <stop stop-color="#F9F9F9" offset="100%"></stop>
        </linearGradient>
        <linearGradient x1="0%" y1="50%" x2="100%" y2="27.429839%" id="linearGradient-15">
            <stop stop-color="#FFEEAA" offset="0%"></stop>
            <stop stop-color="#FA9D58" offset="100%"></stop>
        </linearGradient>
    </defs>
    <g id="Page-1" stroke="none" stroke-width="1" fill="none" fill-rule="evenodd">
        <g id="缺省图-copy" transform="translate(-141.000000, -2672.000000)">
            <g id="Group-13" transform="translate(141.000000, 2672.000000)">
                <path d="M74.0771107,114.728732 C12.3250386,128.043881 -10.8187674,153.764119 4.64569292,191.889447 C17.1300832,219.663955 57.0843985,226.815542 124.508639,213.344208 C138.809733,241.717655 176.680695,247.564266 238.121524,230.884043 C238.0813,230.995382 287.531475,265.638177 348.760318,241.245378 C369.227396,231.72527 376.724404,211.865438 371.251341,181.665884 C397.360017,172.701531 405.235654,153.47656 394.87825,123.99097 C385.432594,101.794873 356.598251,95.0582352 308.375221,103.781055 C270.066491,73.0098568 223.2628,69.6720685 167.964147,93.7676905 C128.283964,72.4345165 96.9882854,79.4215305 74.0771107,114.728732 Z" id="路径-6" fill="url(#linearGradient-1)"></path>
                <ellipse id="椭圆形" fill="url(#radialGradient-2)" opacity="0.598823" cx="210.837377" cy="173.536224" rx="131.890009" ry="30.3783297"></ellipse>
                <path d="M281.211187,53.8398184 C279.938496,51.821515 286.581543,41.6744681 292.041679,41.6744681 C297.501815,41.6744681 302.553889,49.7620938 307.728038,48.7596185 C312.902186,47.7571432 317.403138,36.8421053 324.747721,36.8421053 C332.092304,36.8421053 344.534026,53.8398184 340.134002,53.8398184 C335.733979,53.8398184 282.483879,55.8581218 281.211187,53.8398184 Z" id="Path-23-Copy" fill="url(#linearGradient-3)"></path>
                <g id="编组-6" transform="translate(54.736842, 104.124009)">
                    <rect id="矩形" fill="url(#linearGradient-4)" x="16.9491525" y="35.7606345" width="8.9206066" height="24.1384283" rx="4.4603033"></rect>
                    <path d="M25.9593791,9.11979137 L39.149588,35.5580293 C40.4032668,38.0708825 39.3825043,41.12426 36.8696511,42.3779388 C36.1646431,42.7296719 35.3875432,42.9127614 34.5996647,42.9127614 L8.21924694,42.9127614 C5.4110194,42.9127614 3.13450118,40.6362431 3.13450118,37.8280156 C3.13450118,37.0401372 3.31759062,36.2630373 3.66932369,35.5580293 L16.8595326,9.11979137 C18.1132114,6.60693815 21.1665889,5.58617561 23.6794422,6.83985444 C24.6666348,7.33237126 25.4668623,8.13259875 25.9593791,9.11979137 Z" id="三角形" fill="url(#linearGradient-5)"></path>
                </g>
                <circle id="椭圆形" fill="url(#linearGradient-6)" cx="347.894737" cy="208.947368" r="4.73684211"></circle>
                <g id="编组-7" transform="translate(293.684211, 160.000000)">
                    <rect id="矩形备份" fill="url(#linearGradient-4)" x="16.9491525" y="36.6546503" width="8.9206066" height="24.1384283" rx="4.4603033"></rect>
                    <path d="M21.4094558,43.7737798 C33.2335718,43.7737798 42.8189117,45.0757691 42.8189117,31.3228328 C42.8189117,17.5698964 33.2335718,0 21.4094558,0 C9.58533988,0 0,17.5698964 0,31.3228328 C0,45.0757691 9.58533988,43.7737798 21.4094558,43.7737798 Z" id="椭圆形" fill="url(#linearGradient-7)"></path>
                </g>
                <g id="Group-12" transform="translate(134.736842, 0.000000)">
                    <path d="M78.910593,70.9112854 L78.910593,63.7095564 C88.3938775,56.5403902 93.1355197,51.5203664 93.1355197,48.6494848 C93.1355197,48.6494848 98.4274827,46.3884338 98.4274827,42.9204996 C98.4274827,40.6085434 96.663495,39.0484161 93.1355197,38.2401177 C91.4687794,27.8093294 89.2917497,22.2586212 86.6044307,21.5879931 C82.5734521,20.5820511 54.022577,20.4472472 52.1057784,26.1879798 C50.8279126,30.0151349 50.298877,34.0325142 50.5186716,38.2401177 C46.3132414,39.052254 44.2105263,40.6123812 44.2105263,42.9204996 C44.2105263,45.2286179 45.9418217,46.3826771 49.4044123,46.3826771 C53.9238347,54.0074379 58.1623168,59.3694348 62.1198583,62.4686679 C62.1198583,62.4686679 62.1198583,65.2828737 62.1198583,70.9112854 L78.910593,70.9112854 Z" id="Path-28" fill="url(#linearGradient-8)"></path>
                    <path d="M48.4210526,39.1076043 C49.9481431,38.8839901 50.9017133,38.4223631 51.2817631,37.7227233 C53.5862862,33.4802896 55.8478549,30.9420593 57.073335,30.086929 C63.3626612,25.698287 68.5295728,32.5270491 71.0160267,32.9153259 C77.6929731,33.9579768 79.2193044,28.6547387 84.7409434,28.6547387 C88.4186997,28.6547387 91.575398,35.8491485 92.3121717,37.7227233 C93.0489453,39.5962981 94.4452753,39.1076043 94.4452753,39.1076043 C94.4452753,39.1076043 94.4452753,32.2507372 94.4452753,18.537003 C94.445272,16.235163 93.8493564,13.9725279 92.7155225,11.9693085 C88.1990567,3.98976952 80.9658915,0 71.0160267,0 C60.7539128,0 53.6095729,4.50132242 49.5830071,13.5039672 C48.8169977,15.2166169 48.4210526,17.0716466 48.4210526,18.9477967 L48.4210526,39.1076043 L48.4210526,39.1076043 Z" id="Path-27" fill="url(#linearGradient-9)"></path>
                    <path d="M27.9607423,142.404738 C14.1341984,139.070298 8.06334964,130.028927 9.74819613,115.280625 C12.2754659,93.1581728 30.265812,68.5644741 41.0192501,66.5116279 C47.7941176,65.2182963 66.7069834,65.1471994 97.7578476,66.2983372 L97.7578475,66.2983382 C101.491651,66.4367602 105.059271,67.8775528 107.842046,70.3708676 C118.422678,79.8509206 125.21391,89.7071499 128.215741,99.9395554 C133.332823,117.382258 137.997896,131.014511 119.408675,131.014511 C107.015862,131.014511 76.5332176,134.811253 27.9607423,142.404738 Z" id="Path-29" fill="url(#linearGradient-10)"></path>
                    <path d="M41.0022727,133.636826 C29.9221214,127.57856 26.2157052,122.634744 13.6233516,122.634744 C1.03099798,122.634744 -6.34074422,133.74523 7.36043191,145.982767 C21.061608,158.220304 53.2189721,174.06942 66.1960501,174.06942 C79.1731281,174.06942 123.333288,160.732404 134.163014,152.660067 C144.992741,144.587729 151.601081,133.636826 140.648908,124.642134 C133.347459,118.645672 107.890648,123.279695 64.278475,138.544202 C56.1477743,139.311462 48.3890403,137.67567 41.0022727,133.636826 Z" id="Path-30" fill="url(#linearGradient-11)"></path>
                    <path d="M64.5730879,162.105263 C41.8752398,162.347453 30.5263158,165.52208 30.5263158,171.629142 C30.5263158,177.736204 42.2742377,178.916248 65.7700816,175.169273 C65.1024575,172.441718 64.7034596,170.220161 64.5730879,168.504602 C64.4427163,166.789043 64.4427163,164.65593 64.5730879,162.105263 Z" id="Path-31" fill="url(#linearGradient-12)"></path>
                    <path d="M79.1136379,172.076353 C90.4761991,179.423102 101.430276,182.000122 111.97587,179.807413 C122.521464,177.614703 120.116277,172.718995 104.76031,165.120287 L79.1136379,172.076353 Z" id="Path-32" fill="url(#linearGradient-13)"></path>
                    <rect id="Rectangle" fill="url(#linearGradient-14)" x="30.5263158" y="98.0171359" width="87.7192982" height="52.5091799" rx="6.66666667"></rect>
                    <path d="M72.4609287,119.07798 L65.4516519,128.496562 C65.121929,128.939621 65.2138059,129.566085 65.6568649,129.895808 C65.8294213,130.024224 66.0387849,130.093579 66.2538811,130.093579 L80.2724347,130.093579 C80.8247194,130.093579 81.2724347,129.645863 81.2724347,129.093579 C81.2724347,128.878482 81.2030798,128.669119 81.0746639,128.496562 L74.0653871,119.07798 C73.7356641,118.634921 73.1092006,118.543044 72.6661417,118.872767 C72.5881225,118.930829 72.5189903,118.999961 72.4609287,119.07798 Z" id="Path-33" fill="url(#linearGradient-15)"></path>
                </g>
            </g>
        </g>
    </g>
</svg>