<?xml version="1.0" encoding="UTF-8"?>
<svg width="448px" height="240px" viewBox="0 0 448 240" version="1.1" xmlns="http://www.w3.org/2000/svg" xmlns:xlink="http://www.w3.org/1999/xlink">
    <!-- Generator: Sketch 53.2 (72643) - https://sketchapp.com -->
    <title>分组 5</title>
    <desc>Created with Sketch.</desc>
    <defs>
        <filter x="0.0%" y="0.0%" width="100.0%" height="100.0%" filterUnits="objectBoundingBox" id="filter-1">
            <feGaussianBlur stdDeviation="-0 -0" in="SourceGraphic"></feGaussianBlur>
        </filter>
        <filter x="0.0%" y="0.0%" width="100.0%" height="100.0%" filterUnits="objectBoundingBox" id="filter-2">
            <feGaussianBlur stdDeviation="-0 -0" in="SourceGraphic"></feGaussianBlur>
        </filter>
        <filter x="0.0%" y="0.0%" width="100.0%" height="100.0%" filterUnits="objectBoundingBox" id="filter-3">
            <feGaussianBlur stdDeviation="-0 -0" in="SourceGraphic"></feGaussianBlur>
        </filter>
        <filter x="0.0%" y="0.0%" width="100.0%" height="100.0%" filterUnits="objectBoundingBox" id="filter-4">
            <feGaussianBlur stdDeviation="-0 -0" in="SourceGraphic"></feGaussianBlur>
        </filter>
        <filter x="0.0%" y="0.0%" width="100.0%" height="100.0%" filterUnits="objectBoundingBox" id="filter-5">
            <feGaussianBlur stdDeviation="-0 -0" in="SourceGraphic"></feGaussianBlur>
        </filter>
        <filter x="0.0%" y="0.0%" width="100.0%" height="100.0%" filterUnits="objectBoundingBox" id="filter-6">
            <feGaussianBlur stdDeviation="-0 -0" in="SourceGraphic"></feGaussianBlur>
        </filter>
        <filter x="0.0%" y="0.0%" width="100.0%" height="100.0%" filterUnits="objectBoundingBox" id="filter-7">
            <feGaussianBlur stdDeviation="-0 -0" in="SourceGraphic"></feGaussianBlur>
        </filter>
        <filter x="-0.0%" y="0.0%" width="100.0%" height="100.0%" filterUnits="objectBoundingBox" id="filter-8">
            <feGaussianBlur stdDeviation="-0 -0" in="SourceGraphic"></feGaussianBlur>
        </filter>
        <filter x="0.0%" y="0.0%" width="100.0%" height="100.0%" filterUnits="objectBoundingBox" id="filter-9">
            <feGaussianBlur stdDeviation="-0 -0" in="SourceGraphic"></feGaussianBlur>
        </filter>
        <filter x="-0.0%" y="0.0%" width="100.0%" height="100.0%" filterUnits="objectBoundingBox" id="filter-10">
            <feGaussianBlur stdDeviation="-0 -0" in="SourceGraphic"></feGaussianBlur>
        </filter>
        <filter x="0.0%" y="0.0%" width="100.0%" height="100.0%" filterUnits="objectBoundingBox" id="filter-11">
            <feGaussianBlur stdDeviation="-0 -0" in="SourceGraphic"></feGaussianBlur>
        </filter>
        <filter x="-0.0%" y="0.0%" width="100.0%" height="100.0%" filterUnits="objectBoundingBox" id="filter-12">
            <feGaussianBlur stdDeviation="-0 -0" in="SourceGraphic"></feGaussianBlur>
        </filter>
        <filter x="0.0%" y="0.0%" width="100.0%" height="100.0%" filterUnits="objectBoundingBox" id="filter-13">
            <feGaussianBlur stdDeviation="-0 -0" in="SourceGraphic"></feGaussianBlur>
        </filter>
        <filter x="0.0%" y="0.0%" width="100.0%" height="100.0%" filterUnits="objectBoundingBox" id="filter-14">
            <feGaussianBlur stdDeviation="-0 -0" in="SourceGraphic"></feGaussianBlur>
        </filter>
        <filter x="-0.0%" y="-0.0%" width="100.0%" height="100.0%" filterUnits="objectBoundingBox" id="filter-15">
            <feGaussianBlur stdDeviation="-0 -0" in="SourceGraphic"></feGaussianBlur>
        </filter>
        <filter x="0.0%" y="0.0%" width="100.0%" height="100.0%" filterUnits="objectBoundingBox" id="filter-16">
            <feGaussianBlur stdDeviation="-0 -0" in="SourceGraphic"></feGaussianBlur>
        </filter>
        <filter x="0.0%" y="0.0%" width="100.0%" height="100.0%" filterUnits="objectBoundingBox" id="filter-17">
            <feGaussianBlur stdDeviation="-0 -0" in="SourceGraphic"></feGaussianBlur>
        </filter>
        <filter x="0.0%" y="0.0%" width="100.0%" height="100.0%" filterUnits="objectBoundingBox" id="filter-18">
            <feGaussianBlur stdDeviation="-0 -0" in="SourceGraphic"></feGaussianBlur>
        </filter>
        <filter x="0.0%" y="0.0%" width="100.0%" height="100.0%" filterUnits="objectBoundingBox" id="filter-19">
            <feGaussianBlur stdDeviation="-0 -0" in="SourceGraphic"></feGaussianBlur>
        </filter>
        <filter x="-0.0%" y="-0.0%" width="100.0%" height="100.0%" filterUnits="objectBoundingBox" id="filter-20">
            <feGaussianBlur stdDeviation="-0 -0" in="SourceGraphic"></feGaussianBlur>
        </filter>
        <filter x="0.0%" y="0.0%" width="100.0%" height="100.0%" filterUnits="objectBoundingBox" id="filter-21">
            <feGaussianBlur stdDeviation="-0 -0" in="SourceGraphic"></feGaussianBlur>
        </filter>
        <filter x="-0.0%" y="0.0%" width="100.0%" height="100.0%" filterUnits="objectBoundingBox" id="filter-22">
            <feGaussianBlur stdDeviation="-0 -0" in="SourceGraphic"></feGaussianBlur>
        </filter>
        <filter x="0.0%" y="0.0%" width="100.0%" height="100.0%" filterUnits="objectBoundingBox" id="filter-23">
            <feGaussianBlur stdDeviation="-0 -0" in="SourceGraphic"></feGaussianBlur>
        </filter>
        <filter x="-0.0%" y="-0.0%" width="100.0%" height="100.0%" filterUnits="objectBoundingBox" id="filter-24">
            <feGaussianBlur stdDeviation="-0 -0" in="SourceGraphic"></feGaussianBlur>
        </filter>
        <path d="M6,-1.02318154e-12 L114,-1.0329515e-12 C117.313708,-1.04238971e-12 120,2.6862915 120,6 L120,25.5452074 C120,28.8589159 117.313708,31.5452074 114,31.5452074 L61.9556079,31.5452074 L65.7391304,51.168 L43.894282,31.5452074 L6,31.5452074 C2.6862915,31.5452074 2.41685568e-13,28.8589159 2.39808173e-13,25.5452074 L0,6 C-1.87739444e-15,2.6862915 2.6862915,-1.02612553e-12 6,-1.02673425e-12 Z" id="path-25"></path>
        <filter x="-5.0%" y="-11.7%" width="110.0%" height="123.5%" filterUnits="objectBoundingBox" id="filter-26">
            <feOffset dx="0" dy="0" in="SourceAlpha" result="shadowOffsetOuter1"></feOffset>
            <feGaussianBlur stdDeviation="2" in="shadowOffsetOuter1" result="shadowBlurOuter1"></feGaussianBlur>
            <feColorMatrix values="0 0 0 0 0.325490196   0 0 0 0 0.564705882   0 0 0 0 0.996078431  0 0 0 0.435806381 0" type="matrix" in="shadowBlurOuter1"></feColorMatrix>
        </filter>
        <path d="M6,0 L114,-5.86197757e-14 C117.313708,-6.80579872e-14 120,2.6862915 120,6 L120,25.8485267 C120,29.1622352 117.313708,31.8485267 114,31.8485267 L103.694738,31.8485267 L116.359494,42 L88.7638472,31.8485267 L6,31.8485267 C2.6862915,31.8485267 1.99331633e-13,29.1622352 1.94511074e-13,25.8485267 L0,6 C-6.29214101e-15,2.6862915 2.6862915,-1.49855865e-15 6,-7.99360578e-15 Z" id="path-27"></path>
        <filter x="-5.0%" y="-14.3%" width="110.0%" height="128.6%" filterUnits="objectBoundingBox" id="filter-28">
            <feOffset dx="0" dy="0" in="SourceAlpha" result="shadowOffsetOuter1"></feOffset>
            <feGaussianBlur stdDeviation="2" in="shadowOffsetOuter1" result="shadowBlurOuter1"></feGaussianBlur>
            <feColorMatrix values="0 0 0 0 0.325490196   0 0 0 0 0.564705882   0 0 0 0 0.996078431  0 0 0 0.435806381 0" type="matrix" in="shadowBlurOuter1"></feColorMatrix>
        </filter>
        <path d="M6,9.09494702e-13 L114,9.20152843e-13 C117.313708,9.28373618e-13 120,2.6862915 120,6 L120,25.5699682 C120,28.8836767 117.313708,31.5699682 114,31.5699682 L61.9556079,31.5699682 L28.6241124,50.4171429 L43.894282,31.5699682 L6,31.5699682 C2.6862915,31.5699682 2.37244676e-13,28.8836767 2.35367281e-13,25.5699682 L-8.8817842e-16,6 C-2.76557286e-15,2.6862915 2.6862915,9.08327063e-13 6,9.07718345e-13 Z" id="path-29"></path>
        <filter x="-5.0%" y="-11.9%" width="110.0%" height="123.8%" filterUnits="objectBoundingBox" id="filter-30">
            <feOffset dx="0" dy="0" in="SourceAlpha" result="shadowOffsetOuter1"></feOffset>
            <feGaussianBlur stdDeviation="2" in="shadowOffsetOuter1" result="shadowBlurOuter1"></feGaussianBlur>
            <feColorMatrix values="0 0 0 0 0.325490196   0 0 0 0 0.564705882   0 0 0 0 0.996078431  0 0 0 0.435806381 0" type="matrix" in="shadowBlurOuter1"></feColorMatrix>
        </filter>
        <path d="M6,14.6222222 L17.5540395,14.6222222 L11.9164127,-1.10134124e-13 L30.6914457,14.6222222 L114,14.6222222 C117.313708,14.6222222 120,17.3085137 120,20.6222222 L120,40.3022382 C120,43.6159467 117.313708,46.3022382 114,46.3022382 L61.9556079,46.3022382 L43.894282,46.3022382 L6,46.3022382 C2.6862915,46.3022382 -6.35085603e-10,43.6159467 -6.89967194e-10,40.3022382 L2.6209257e-11,20.6222222 C9.07185996e-11,17.3085137 2.6862915,14.6222222 6,14.6222222 Z" id="path-31"></path>
        <filter x="-5.0%" y="-13.0%" width="110.0%" height="125.9%" filterUnits="objectBoundingBox" id="filter-32">
            <feOffset dx="0" dy="0" in="SourceAlpha" result="shadowOffsetOuter1"></feOffset>
            <feGaussianBlur stdDeviation="2" in="shadowOffsetOuter1" result="shadowBlurOuter1"></feGaussianBlur>
            <feColorMatrix values="0 0 0 0 0.325490196   0 0 0 0 0.564705882   0 0 0 0 0.996078431  0 0 0 0.435806381 0" type="matrix" in="shadowBlurOuter1"></feColorMatrix>
        </filter>
    </defs>
    <g id="Page-1" stroke="none" stroke-width="1" fill="none" fill-rule="evenodd">
        <g id="画板-copy-7" transform="translate(-449.000000, -308.000000)">
            <g id="分组-5" transform="translate(433.000000, 308.000000)">
                <rect id="矩形" fill="#979797" opacity="0.404413132" x="148" y="236" width="190" height="4" rx="1.5"></rect>
                <path d="M419.813876,227 C411.441843,218.615491 407.93099,210.730895 409.281318,203.346213 C411.30681,192.26919 415.902257,189.953405 421.843849,185.713576 C427.785442,181.473747 430.173013,170.224832 424.022598,162.741859 C417.872182,155.258885 414.360284,150.391795 415.489093,144.426404 C416.617901,138.461013 423.456374,138.870799 426.152599,135.134773 C428.848825,131.398746 429.876456,110.005391 440.724937,113.354424 C451.573418,116.703457 447.920038,128.788087 440.724937,135.134773 C433.529836,141.481458 435.163445,153.234651 440.724937,157.988255 C446.286428,162.741859 448.358235,173.303208 445.418424,178.304677 C442.478613,183.306147 437.785126,189.365556 440.724937,198.859943 C443.664748,208.354331 448.694165,210.611236 447.920038,217.953657 C447.403954,222.848605 445.655474,225.864052 442.6746,227 L419.813876,227 Z" id="路径-4" fill="#EEF2F8"></path>
                <path d="M436.531721,158 C439.767753,170.06965 440.128834,178.640551 437.614966,183.712702 C433.844163,191.320929 425.561152,198.363079 424.230067,207.044855 C423.342677,212.832705 425.02235,219.817754 429.269087,228 L439.746092,228 C434.789281,222.121774 432.823282,215.275294 433.848092,207.460557 C435.385308,195.738453 439.705309,194.637815 440.811514,182.470565 C441.548984,174.359065 440.122386,166.20221 436.531721,158 Z" id="路径-5" fill="#C7CED7"></path>
                <path d="M416,227.5 L452.721622,227.5" id="路径-2" stroke="#244785" stroke-linecap="round" stroke-linejoin="round"></path>
                <path d="M455,227.5 L463.02358,227.5" id="路径-2-copy" stroke="#244785" stroke-linecap="round" stroke-linejoin="round"></path>
                <path d="M104.671662,229 C97.8463947,221.802795 95.0501364,214.925434 96.2828875,208.367916 C98.1320141,198.53164 104.985108,196.103025 110.409349,192.338103 C114.02551,189.828155 113.793748,185.546788 109.714064,179.494002 C113.587152,177.864898 117.011607,180.265099 119.98743,186.694606 C124.451163,196.338866 115.895536,195.639123 118.579369,204.070036 C121.263202,212.500949 124.610943,214.716671 123.904222,221.236662 C123.433074,225.583322 122.38568,228.171102 120.762038,229 L104.671662,229 Z" id="路径-4" fill="#EEF2F8"></path>
                <path d="M116.896322,197 C110.836931,203.333831 107.568689,209.674546 107.091596,216.022147 C106.614503,222.369748 108.001169,227.695699 111.251594,232 L118,232 C112.801443,224.200027 110.590632,217.060521 111.367567,210.581481 C112.144503,204.10244 113.987421,199.57528 116.896322,197 Z" id="路径-5" fill="#C7CED7"></path>
                <path d="M101,231.5 L127.672043,231.5" id="路径-2" stroke="#244785" stroke-linecap="round" stroke-linejoin="round"></path>
                <g id="分组-15" opacity="0.447614397" transform="translate(51.000000, 0.000000)">
                    <polygon id="矩形" fill="#EBF2FE" points="11.4592436 14.2714815 76.3949573 14.2714815 76.3949573 112.874444 11.4592436 112.874444"></polygon>
                    <polygon id="矩形-copy-4" fill="#F0F5FF" filter="url(#filter-1)" points="4.97379915e-14 1.29740741 65.6996632 1.29740741 76.3949573 14.2714815 10.695294 14.2714815"></polygon>
                    <polygon id="矩形-copy-3" fill="#DBE7FC" points="1.66977543e-13 -4.48418586e-13 11.4592436 12.7511097 11.4592436 112.874444 1.66977543e-13 100.123335"></polygon>
                    <rect id="矩形" fill="#B7CDF4" filter="url(#filter-2)" x="19.0987393" y="97.3055556" width="50.9299715" height="7.78444444" rx="3.5"></rect>
                    <rect id="矩形-copy-5" fill="#B7CDF4" filter="url(#filter-3)" x="19.0987393" y="79.1418519" width="50.9299715" height="7.78444444" rx="3.5"></rect>
                    <rect id="矩形-copy-9" fill="#B7CDF4" filter="url(#filter-4)" x="19.0987393" y="60.9781481" width="50.9299715" height="7.78444444" rx="3.5"></rect>
                    <rect id="矩形-copy-7" fill="#B7CDF4" filter="url(#filter-5)" x="19.0987393" y="42.8144444" width="50.9299715" height="7.78444444" rx="3.5"></rect>
                    <rect id="矩形-copy-8" fill="#B7CDF4" filter="url(#filter-6)" x="19.0987393" y="24.6507407" width="50.9299715" height="7.78444444" rx="3.5"></rect>
                    <ellipse id="椭圆形" fill="#FFFFFF" cx="27.3748597" cy="100.549074" rx="1.90987393" ry="1.94611111"></ellipse>
                    <ellipse id="椭圆形-copy-4" fill="#FFFFFF" cx="27.3748597" cy="83.6827778" rx="1.90987393" ry="1.94611111"></ellipse>
                    <ellipse id="椭圆形-copy-8" fill="#FFFFFF" cx="27.3748597" cy="64.2216667" rx="1.90987393" ry="1.94611111"></ellipse>
                    <ellipse id="椭圆形-copy-12" fill="#FFFFFF" cx="27.3748597" cy="47.3553704" rx="1.90987393" ry="1.94611111"></ellipse>
                    <ellipse id="椭圆形-copy-16" fill="#FFFFFF" cx="27.3748597" cy="27.8942593" rx="1.90987393" ry="1.94611111"></ellipse>
                    <ellipse id="椭圆形-copy" fill="#FFFFFF" cx="38.8341033" cy="100.549074" rx="1.90987393" ry="1.94611111"></ellipse>
                    <ellipse id="椭圆形-copy-5" fill="#FFFFFF" cx="38.8341033" cy="83.6827778" rx="1.90987393" ry="1.94611111"></ellipse>
                    <ellipse id="椭圆形-copy-9" fill="#FFFFFF" cx="38.8341033" cy="64.2216667" rx="1.90987393" ry="1.94611111"></ellipse>
                    <ellipse id="椭圆形-copy-13" fill="#FFFFFF" cx="38.8341033" cy="47.3553704" rx="1.90987393" ry="1.94611111"></ellipse>
                    <ellipse id="椭圆形-copy-17" fill="#FFFFFF" cx="38.8341033" cy="27.8942593" rx="1.90987393" ry="1.94611111"></ellipse>
                    <ellipse id="椭圆形-copy-2" fill="#FFFFFF" cx="47.7468483" cy="100.549074" rx="1.90987393" ry="1.94611111"></ellipse>
                    <ellipse id="椭圆形-copy-6" fill="#FFFFFF" cx="47.7468483" cy="83.6827778" rx="1.90987393" ry="1.94611111"></ellipse>
                    <ellipse id="椭圆形-copy-10" fill="#FFFFFF" cx="47.7468483" cy="64.2216667" rx="1.90987393" ry="1.94611111"></ellipse>
                    <ellipse id="椭圆形-copy-14" fill="#FFFFFF" cx="47.7468483" cy="47.3553704" rx="1.90987393" ry="1.94611111"></ellipse>
                    <ellipse id="椭圆形-copy-18" fill="#FFFFFF" cx="47.7468483" cy="27.8942593" rx="1.90987393" ry="1.94611111"></ellipse>
                    <ellipse id="椭圆形-copy-3" fill="#FFFFFF" cx="57.9328426" cy="100.549074" rx="1.90987393" ry="1.94611111"></ellipse>
                    <ellipse id="椭圆形-copy-7" fill="#FFFFFF" cx="57.9328426" cy="83.6827778" rx="1.90987393" ry="1.94611111"></ellipse>
                    <ellipse id="椭圆形-copy-11" fill="#FFFFFF" cx="57.9328426" cy="64.2216667" rx="1.90987393" ry="1.94611111"></ellipse>
                    <ellipse id="椭圆形-copy-15" fill="#FFFFFF" cx="57.9328426" cy="47.3553704" rx="1.90987393" ry="1.94611111"></ellipse>
                    <ellipse id="椭圆形-copy-19" fill="#FFFFFF" cx="57.9328426" cy="27.8942593" rx="1.90987393" ry="1.94611111"></ellipse>
                </g>
                <g id="分组-14" transform="translate(153.000000, 24.000000)">
                    <polygon id="矩形" fill="#EBF2FE" points="11.4592436 14.2714815 76.3949573 14.2714815 76.3949573 112.874444 11.4592436 112.874444"></polygon>
                    <polygon id="矩形-copy-4" fill="#F0F5FF" filter="url(#filter-7)" points="5.1159077e-13 1.29740741 65.6996632 1.29740741 76.3949573 14.2714815 10.695294 14.2714815"></polygon>
                    <polygon id="矩形-copy-3" fill="#DBE7FC" points="1.76747506e-13 -2.47913295e-13 11.4592436 12.7511097 11.4592436 112.874444 1.76747506e-13 100.123335"></polygon>
                    <rect id="矩形" fill="#B7CDF4" filter="url(#filter-8)" x="19.0987393" y="97.3055556" width="50.9299715" height="7.78444444" rx="3.5"></rect>
                    <rect id="矩形-copy-5" fill="#B7CDF4" filter="url(#filter-9)" x="19.0987393" y="79.1418519" width="50.9299715" height="7.78444444" rx="3.5"></rect>
                    <rect id="矩形-copy-9" fill="#B7CDF4" filter="url(#filter-10)" x="19.0987393" y="60.9781481" width="50.9299715" height="7.78444444" rx="3.5"></rect>
                    <rect id="矩形-copy-7" fill="#B7CDF4" filter="url(#filter-11)" x="19.0987393" y="42.8144444" width="50.9299715" height="7.78444444" rx="3.5"></rect>
                    <rect id="矩形-copy-8" fill="#B7CDF4" filter="url(#filter-12)" x="19.0987393" y="24.6507407" width="50.9299715" height="7.78444444" rx="3.5"></rect>
                    <ellipse id="椭圆形" fill="#FFFFFF" cx="28.648109" cy="100.549074" rx="1.90987393" ry="1.94611111"></ellipse>
                    <ellipse id="椭圆形-copy-4" fill="#FFFFFF" cx="28.648109" cy="83.6827778" rx="1.90987393" ry="1.94611111"></ellipse>
                    <ellipse id="椭圆形-copy-8" fill="#FFFFFF" cx="28.648109" cy="64.2216667" rx="1.90987393" ry="1.94611111"></ellipse>
                    <ellipse id="椭圆形-copy-12" fill="#FFFFFF" cx="28.648109" cy="47.3553704" rx="1.90987393" ry="1.94611111"></ellipse>
                    <ellipse id="椭圆形-copy-16" fill="#FFFFFF" cx="28.648109" cy="27.8942593" rx="1.90987393" ry="1.94611111"></ellipse>
                    <ellipse id="椭圆形-copy" fill="#FFFFFF" cx="38.8341033" cy="100.549074" rx="1.90987393" ry="1.94611111"></ellipse>
                    <ellipse id="椭圆形-copy-5" fill="#FFFFFF" cx="38.8341033" cy="83.6827778" rx="1.90987393" ry="1.94611111"></ellipse>
                    <ellipse id="椭圆形-copy-9" fill="#FFFFFF" cx="38.8341033" cy="64.2216667" rx="1.90987393" ry="1.94611111"></ellipse>
                    <ellipse id="椭圆形-copy-13" fill="#FFFFFF" cx="38.8341033" cy="47.3553704" rx="1.90987393" ry="1.94611111"></ellipse>
                    <ellipse id="椭圆形-copy-17" fill="#FFFFFF" cx="38.8341033" cy="27.8942593" rx="1.90987393" ry="1.94611111"></ellipse>
                    <ellipse id="椭圆形-copy-2" fill="#FFFFFF" cx="47.7468483" cy="100.549074" rx="1.90987393" ry="1.94611111"></ellipse>
                    <ellipse id="椭圆形-copy-6" fill="#FFFFFF" cx="47.7468483" cy="83.6827778" rx="1.90987393" ry="1.94611111"></ellipse>
                    <ellipse id="椭圆形-copy-10" fill="#FFFFFF" cx="47.7468483" cy="64.2216667" rx="1.90987393" ry="1.94611111"></ellipse>
                    <ellipse id="椭圆形-copy-14" fill="#FFFFFF" cx="47.7468483" cy="47.3553704" rx="1.90987393" ry="1.94611111"></ellipse>
                    <ellipse id="椭圆形-copy-18" fill="#FFFFFF" cx="47.7468483" cy="27.8942593" rx="1.90987393" ry="1.94611111"></ellipse>
                    <ellipse id="椭圆形-copy-3" fill="#FFFFFF" cx="57.9328426" cy="100.549074" rx="1.90987393" ry="1.94611111"></ellipse>
                    <ellipse id="椭圆形-copy-7" fill="#FFFFFF" cx="57.9328426" cy="83.6827778" rx="1.90987393" ry="1.94611111"></ellipse>
                    <ellipse id="椭圆形-copy-11" fill="#FFFFFF" cx="57.9328426" cy="64.2216667" rx="1.90987393" ry="1.94611111"></ellipse>
                    <ellipse id="椭圆形-copy-15" fill="#FFFFFF" cx="57.9328426" cy="47.3553704" rx="1.90987393" ry="1.94611111"></ellipse>
                    <ellipse id="椭圆形-copy-19" fill="#FFFFFF" cx="57.9328426" cy="27.8942593" rx="1.90987393" ry="1.94611111"></ellipse>
                </g>
                <g id="分组-12" transform="translate(257.000000, 24.000000)">
                    <polygon id="矩形" fill="#EBF2FE" points="11.4592436 14.2714815 76.3949573 14.2714815 76.3949573 112.874444 11.4592436 112.874444"></polygon>
                    <polygon id="矩形-copy-4" fill="#F0F5FF" filter="url(#filter-13)" points="-3.69482223e-13 1.29740741 65.6996632 1.29740741 76.3949573 14.2714815 10.695294 14.2714815"></polygon>
                    <polygon id="矩形-copy-3" fill="#DBE7FC" points="-1.82964754e-13 -2.47913295e-13 11.4592436 12.7511097 11.4592436 112.874444 -1.82964754e-13 100.123335"></polygon>
                    <rect id="矩形" fill="#B7CDF4" filter="url(#filter-14)" x="17.82549" y="97.3055556" width="50.9299715" height="7.78444444" rx="3.5"></rect>
                    <rect id="矩形-copy-5" fill="#B7CDF4" filter="url(#filter-15)" x="17.82549" y="79.1418519" width="50.9299715" height="7.78444444" rx="3.5"></rect>
                    <rect id="矩形-copy-9" fill="#B7CDF4" filter="url(#filter-16)" x="17.82549" y="60.9781481" width="50.9299715" height="7.78444444" rx="3.5"></rect>
                    <rect id="矩形-copy-7" fill="#B7CDF4" filter="url(#filter-17)" x="17.82549" y="42.8144444" width="50.9299715" height="7.78444444" rx="3.5"></rect>
                    <rect id="矩形-copy-8" fill="#B7CDF4" filter="url(#filter-18)" x="17.82549" y="24.6507407" width="50.9299715" height="7.78444444" rx="3.5"></rect>
                    <ellipse id="椭圆形" fill="#FFFFFF" cx="28.648109" cy="100.549074" rx="1.90987393" ry="1.94611111"></ellipse>
                    <ellipse id="椭圆形-copy-4" fill="#FFFFFF" cx="28.648109" cy="83.6827778" rx="1.90987393" ry="1.94611111"></ellipse>
                    <ellipse id="椭圆形-copy-8" fill="#FFFFFF" cx="28.648109" cy="64.2216667" rx="1.90987393" ry="1.94611111"></ellipse>
                    <ellipse id="椭圆形-copy-12" fill="#FFFFFF" cx="28.648109" cy="47.3553704" rx="1.90987393" ry="1.94611111"></ellipse>
                    <ellipse id="椭圆形-copy-16" fill="#FFFFFF" cx="28.648109" cy="27.8942593" rx="1.90987393" ry="1.94611111"></ellipse>
                    <ellipse id="椭圆形-copy" fill="#FFFFFF" cx="38.8341033" cy="100.549074" rx="1.90987393" ry="1.94611111"></ellipse>
                    <ellipse id="椭圆形-copy-5" fill="#FFFFFF" cx="38.8341033" cy="83.6827778" rx="1.90987393" ry="1.94611111"></ellipse>
                    <ellipse id="椭圆形-copy-9" fill="#FFFFFF" cx="38.8341033" cy="64.2216667" rx="1.90987393" ry="1.94611111"></ellipse>
                    <ellipse id="椭圆形-copy-13" fill="#FFFFFF" cx="38.8341033" cy="47.3553704" rx="1.90987393" ry="1.94611111"></ellipse>
                    <ellipse id="椭圆形-copy-17" fill="#FFFFFF" cx="38.8341033" cy="27.8942593" rx="1.90987393" ry="1.94611111"></ellipse>
                    <ellipse id="椭圆形-copy-2" fill="#FFFFFF" cx="47.7468483" cy="100.549074" rx="1.90987393" ry="1.94611111"></ellipse>
                    <ellipse id="椭圆形-copy-6" fill="#FFFFFF" cx="47.7468483" cy="83.6827778" rx="1.90987393" ry="1.94611111"></ellipse>
                    <ellipse id="椭圆形-copy-10" fill="#FFFFFF" cx="47.7468483" cy="64.2216667" rx="1.90987393" ry="1.94611111"></ellipse>
                    <ellipse id="椭圆形-copy-14" fill="#FFFFFF" cx="47.7468483" cy="47.3553704" rx="1.90987393" ry="1.94611111"></ellipse>
                    <ellipse id="椭圆形-copy-18" fill="#FFFFFF" cx="47.7468483" cy="27.8942593" rx="1.90987393" ry="1.94611111"></ellipse>
                    <ellipse id="椭圆形-copy-3" fill="#FFFFFF" cx="56.6595933" cy="100.549074" rx="1.90987393" ry="1.94611111"></ellipse>
                    <ellipse id="椭圆形-copy-7" fill="#FFFFFF" cx="56.6595933" cy="83.6827778" rx="1.90987393" ry="1.94611111"></ellipse>
                    <ellipse id="椭圆形-copy-11" fill="#FFFFFF" cx="56.6595933" cy="64.2216667" rx="1.90987393" ry="1.94611111"></ellipse>
                    <ellipse id="椭圆形-copy-15" fill="#FFFFFF" cx="56.6595933" cy="47.3553704" rx="1.90987393" ry="1.94611111"></ellipse>
                    <ellipse id="椭圆形-copy-19" fill="#FFFFFF" cx="56.6595933" cy="27.8942593" rx="1.90987393" ry="1.94611111"></ellipse>
                </g>
                <g id="分组-11" opacity="0.447614397" transform="translate(356.000000, 2.000000)">
                    <polygon id="矩形" fill="#EBF2FE" points="11.4592436 14.2714815 76.3949573 14.2714815 76.3949573 112.874444 11.4592436 112.874444"></polygon>
                    <polygon id="矩形-copy-4" fill="#F0F5FF" filter="url(#filter-19)" points="-5.68434189e-14 1.29740741 65.6996632 1.29740741 76.3949573 14.2714815 10.695294 14.2714815"></polygon>
                    <polygon id="矩形-copy-3" fill="#DBE7FC" points="-1.98063788e-13 -4.48418586e-13 11.4592436 12.7511097 11.4592436 112.874444 -1.98063788e-13 100.123335"></polygon>
                    <rect id="矩形" fill="#B7CDF4" filter="url(#filter-20)" x="17.82549" y="97.3055556" width="50.9299715" height="7.78444444" rx="3.5"></rect>
                    <rect id="矩形-copy-5" fill="#B7CDF4" filter="url(#filter-21)" x="17.82549" y="79.1418519" width="50.9299715" height="7.78444444" rx="3.5"></rect>
                    <rect id="矩形-copy-9" fill="#B7CDF4" filter="url(#filter-22)" x="17.82549" y="60.9781481" width="50.9299715" height="7.78444444" rx="3.5"></rect>
                    <rect id="矩形-copy-7" fill="#B7CDF4" filter="url(#filter-23)" x="17.82549" y="42.8144444" width="50.9299715" height="7.78444444" rx="3.5"></rect>
                    <rect id="矩形-copy-8" fill="#B7CDF4" filter="url(#filter-24)" x="17.82549" y="24.6507407" width="50.9299715" height="7.78444444" rx="3.5"></rect>
                    <ellipse id="椭圆形" fill="#FFFFFF" cx="28.648109" cy="100.549074" rx="1.90987393" ry="1.94611111"></ellipse>
                    <ellipse id="椭圆形-copy-4" fill="#FFFFFF" cx="28.648109" cy="83.6827778" rx="1.90987393" ry="1.94611111"></ellipse>
                    <ellipse id="椭圆形-copy-8" fill="#FFFFFF" cx="28.648109" cy="64.2216667" rx="1.90987393" ry="1.94611111"></ellipse>
                    <ellipse id="椭圆形-copy-12" fill="#FFFFFF" cx="28.648109" cy="47.3553704" rx="1.90987393" ry="1.94611111"></ellipse>
                    <ellipse id="椭圆形-copy-16" fill="#FFFFFF" cx="28.648109" cy="27.8942593" rx="1.90987393" ry="1.94611111"></ellipse>
                    <ellipse id="椭圆形-copy" fill="#FFFFFF" cx="38.8341033" cy="100.549074" rx="1.90987393" ry="1.94611111"></ellipse>
                    <ellipse id="椭圆形-copy-5" fill="#FFFFFF" cx="38.8341033" cy="83.6827778" rx="1.90987393" ry="1.94611111"></ellipse>
                    <ellipse id="椭圆形-copy-9" fill="#FFFFFF" cx="38.8341033" cy="64.2216667" rx="1.90987393" ry="1.94611111"></ellipse>
                    <ellipse id="椭圆形-copy-13" fill="#FFFFFF" cx="38.8341033" cy="47.3553704" rx="1.90987393" ry="1.94611111"></ellipse>
                    <ellipse id="椭圆形-copy-17" fill="#FFFFFF" cx="38.8341033" cy="27.8942593" rx="1.90987393" ry="1.94611111"></ellipse>
                    <ellipse id="椭圆形-copy-2" fill="#FFFFFF" cx="49.0200976" cy="100.549074" rx="1.90987393" ry="1.94611111"></ellipse>
                    <ellipse id="椭圆形-copy-6" fill="#FFFFFF" cx="49.0200976" cy="83.6827778" rx="1.90987393" ry="1.94611111"></ellipse>
                    <ellipse id="椭圆形-copy-10" fill="#FFFFFF" cx="49.0200976" cy="64.2216667" rx="1.90987393" ry="1.94611111"></ellipse>
                    <ellipse id="椭圆形-copy-14" fill="#FFFFFF" cx="49.0200976" cy="47.3553704" rx="1.90987393" ry="1.94611111"></ellipse>
                    <ellipse id="椭圆形-copy-18" fill="#FFFFFF" cx="49.0200976" cy="27.8942593" rx="1.90987393" ry="1.94611111"></ellipse>
                    <ellipse id="椭圆形-copy-3" fill="#FFFFFF" cx="56.6595933" cy="100.549074" rx="1.90987393" ry="1.94611111"></ellipse>
                    <ellipse id="椭圆形-copy-7" fill="#FFFFFF" cx="56.6595933" cy="83.6827778" rx="1.90987393" ry="1.94611111"></ellipse>
                    <ellipse id="椭圆形-copy-11" fill="#FFFFFF" cx="56.6595933" cy="64.2216667" rx="1.90987393" ry="1.94611111"></ellipse>
                    <ellipse id="椭圆形-copy-15" fill="#FFFFFF" cx="56.6595933" cy="47.3553704" rx="1.90987393" ry="1.94611111"></ellipse>
                    <ellipse id="椭圆形-copy-19" fill="#FFFFFF" cx="56.6595933" cy="27.8942593" rx="1.90987393" ry="1.94611111"></ellipse>
                </g>
                <rect id="矩形" stroke="#5390FE" stroke-width="4" fill="#E1ECFF" x="150" y="119" width="182" height="110" rx="6"></rect>
                <rect id="矩形" fill="#B7CDF4" opacity="0.377929688" x="161" y="144" width="24" height="74"></rect>
                <rect id="矩形-copy" fill="#B7CDF4" opacity="0.377929688" x="189" y="144" width="131" height="74"></rect>
                <rect id="矩形-copy-4" fill="#FFFFFF" x="203" y="156" width="108" height="5" rx="2"></rect>
                <rect id="矩形-copy-6" fill="#FFFFFF" x="203" y="167" width="108" height="5" rx="2"></rect>
                <rect id="矩形-copy-10" fill="#FFFFFF" x="203" y="179" width="108" height="5" rx="2"></rect>
                <rect id="矩形-copy-2" fill="#B7CDF4" opacity="0.377929688" x="160" y="126" width="160" height="16"></rect>
                <path d="M139,228 L340,228 L336.961645,233.844929 C336.273283,235.16914 334.904966,236 333.412527,236 L145.587473,236 C144.095034,236 142.726717,235.16914 142.038355,233.844929 L139,228 Z" id="矩形" fill="#244785"></path>
                <rect id="矩形" fill="#FFFFFF" x="226" y="228" width="36" height="3" rx="1"></rect>
                <g id="分组-6" transform="translate(89.000000, 65.000000)">
                    <g id="tooltips/tl">
                        <g id="Group-4"></g>
                    </g>
                </g>
                <g id="tooltips/tl-copy" transform="translate(0.000000, 151.000000)">
                    <g id="Group-4"></g>
                </g>
                <g id="tooltips/tl" transform="translate(299.000000, 192.000000)">
                    <g id="Group-4"></g>
                </g>
                <g id="分组-10" transform="translate(112.000000, 74.000000)">
                    <g id="Rectangle-2-Copy-2">
                        <use fill="black" fill-opacity="1" filter="url(#filter-26)" xlink:href="#path-25"></use>
                        <use fill="#FFFFFF" fill-rule="evenodd" xlink:href="#path-25"></use>
                    </g>
                    <text id="【低成本】" font-family="PingFangSC-Regular, PingFang SC" font-size="10" font-weight="normal" line-spacing="14" fill="#555555">
                        <tspan x="36.5217391" y="18.56">【低成本】</tspan>
                    </text>
                    <path d="M30.0924233,11.5557699 L25.5897991,13.964097 C24.3463921,14.6291496 22.3305819,14.6291496 21.087175,13.964097 L16.5847291,11.5557699 C15.3413222,10.8907351 15.3413222,9.8124418 16.5847291,9.14712105 L21.087175,6.73877609 C22.3305819,6.0737413 24.3463921,6.0737413 25.5897991,6.73877609 L30.0924233,9.14712105 C31.3356519,9.81244182 31.3356519,10.8906636 30.0924233,11.5557699 Z M25.5897991,18.0740366 C24.3463921,18.7390893 22.3305819,18.7390893 21.087175,18.0740366 L16.5847291,15.665781 C15.4463662,15.056492 15.3504177,14.1013612 16.296527,13.4338957 C16.3888695,13.4987316 16.4851201,13.5577891 16.5847291,13.6107308 L21.087175,16.0191293 C22.3305819,16.684182 24.3463921,16.684182 25.5897991,16.0191293 L30.0924233,13.6107308 C30.1919521,13.5577489 30.288141,13.4986928 30.3804471,13.4338957 C31.3265564,14.1013612 31.2307862,15.056492 30.0924233,15.665781 L25.5897991,18.0740366 Z M16.296527,17.5439248 C16.3889051,17.6086846 16.4851525,17.6677162 16.5847291,17.7206883 L21.087175,20.129069 C22.3305819,20.7941217 24.3463921,20.7941217 25.5897991,20.129069 L30.0924233,17.7206883 C30.1919429,17.6677167 30.288131,17.608685 30.3804471,17.5439248 C31.3265564,18.2113009 31.2307862,19.1666104 30.0924233,19.7757207 L25.5897991,22.1841014 C24.3463921,22.849154 22.3305819,22.849154 21.087175,22.1841014 L16.5847291,19.775667 C15.4463662,19.1665567 15.3504177,18.2112473 16.296527,17.5438711 L16.296527,17.5439248 Z" id="形状" fill="#FFB90C" fill-rule="nonzero"></path>
                </g>
                <g id="分组-10-copy-3" transform="translate(20.000000, 162.000000)">
                    <g id="Rectangle-2-Copy-2">
                        <use fill="black" fill-opacity="1" filter="url(#filter-28)" xlink:href="#path-27"></use>
                        <use fill="#FFFFFF" fill-rule="evenodd" xlink:href="#path-27"></use>
                    </g>
                    <text id="【高性能】" font-family="PingFangSC-Regular, PingFang SC" font-size="10" font-weight="normal" line-spacing="14" fill="#555555">
                        <tspan x="36.5217391" y="18.7">【高性能】</tspan>
                    </text>
                    <path d="M30.0924233,11.666883 L25.5897991,14.0983671 C24.3463921,14.7698145 22.3305819,14.7698145 21.087175,14.0983671 L16.5847291,11.666883 C15.3413222,10.9954537 15.3413222,9.9067922 16.5847291,9.23507414 L21.087175,6.80357202 C22.3305819,6.13214266 24.3463921,6.13214266 25.5897991,6.80357202 L30.0924233,9.23507414 C31.3356519,9.90679222 31.3356519,10.9953815 30.0924233,11.666883 Z M25.5897991,18.2478254 C24.3463921,18.9192728 22.3305819,18.9192728 21.087175,18.2478254 L16.5847291,15.8164135 C15.4463662,15.2012659 15.3504177,14.2369513 16.296527,13.5630678 C16.3888695,13.6285271 16.4851201,13.6881524 16.5847291,13.7416032 L21.087175,16.1731594 C22.3305819,16.8446068 24.3463921,16.8446068 25.5897991,16.1731594 L30.0924233,13.7416032 C30.1919521,13.6881119 30.288141,13.6284879 30.3804471,13.5630678 C31.3265564,14.2369513 31.2307862,15.2012659 30.0924233,15.8164135 L25.5897991,18.2478254 Z M16.296527,17.7126163 C16.3889051,17.7779989 16.4851525,17.8375981 16.5847291,17.8910795 L21.087175,20.3226177 C22.3305819,20.9940651 24.3463921,20.9940651 25.5897991,20.3226177 L30.0924233,17.8910795 C30.1919429,17.8375986 30.288131,17.7779992 30.3804471,17.7126163 C31.3265564,18.3864096 31.2307862,19.3509047 30.0924233,19.9658718 L25.5897991,22.3974101 C24.3463921,23.0688575 22.3305819,23.0688575 21.087175,22.3974101 L16.5847291,19.9658177 C15.4463662,19.3508506 15.3504177,18.3863554 16.296527,17.7125622 L16.296527,17.7126163 Z" id="形状" fill="#FFB90C" fill-rule="nonzero"></path>
                </g>
                <g id="分组-10-copy" transform="translate(289.000000, 104.000000)">
                    <g id="Rectangle-2-Copy-2">
                        <use fill="black" fill-opacity="1" filter="url(#filter-30)" xlink:href="#path-29"></use>
                        <use fill="#FFFFFF" fill-rule="evenodd" xlink:href="#path-29"></use>
                    </g>
                    <text id="【高安全】" font-family="PingFangSC-Regular, PingFang SC" font-size="10" font-weight="normal" line-spacing="14" fill="#555555">
                        <tspan x="36.5217391" y="18.5714286">【高安全】</tspan>
                    </text>
                    <path d="M30.0924233,11.5648403 L25.5897991,13.9750578 C24.3463921,14.6406325 22.3305819,14.6406325 21.087175,13.9750578 L16.5847291,11.5648403 C15.3413222,10.8992835 15.3413222,9.82014387 16.5847291,9.1543009 L21.087175,6.74406556 C22.3305819,6.07850876 24.3463921,6.07850876 25.5897991,6.74406556 L30.0924233,9.1543009 C31.3356519,9.82014389 31.3356519,10.899212 30.0924233,11.5648403 Z M25.5897991,18.0882235 C24.3463921,18.7537981 22.3305819,18.7537981 21.087175,18.0882235 L16.5847291,15.6780775 C15.4463662,15.0683102 15.3504177,14.1124298 16.296527,13.4444404 C16.3888695,13.5093272 16.4851201,13.568431 16.5847291,13.6214142 L21.087175,16.0317032 C22.3305819,16.6972779 24.3463921,16.6972779 25.5897991,16.0317032 L30.0924233,13.6214142 C30.1919521,13.5683908 30.288141,13.5092883 30.3804471,13.4444404 C31.3265564,14.1124298 31.2307862,15.0683102 30.0924233,15.6780775 L25.5897991,18.0882235 Z M16.296527,17.5576955 C16.3889051,17.6225062 16.4851525,17.6815841 16.5847291,17.7345978 L21.087175,20.1448689 C22.3305819,20.8104436 24.3463921,20.8104436 25.5897991,20.1448689 L30.0924233,17.7345978 C30.1919429,17.6815846 30.288131,17.6225065 30.3804471,17.5576955 C31.3265564,18.2255955 31.2307862,19.1816548 30.0924233,19.7912432 L25.5897991,22.2015143 C24.3463921,22.867089 22.3305819,22.867089 21.087175,22.2015143 L16.5847291,19.7911896 C15.4463662,19.1816011 15.3504177,18.2255418 16.296527,17.5576418 L16.296527,17.5576955 Z" id="形状" fill="#FFB90C" fill-rule="nonzero"></path>
                </g>
                <g id="分组-10-copy-2" transform="translate(250.000000, 183.000000)">
                    <g id="Rectangle-2-Copy-2">
                        <use fill="black" fill-opacity="1" filter="url(#filter-32)" xlink:href="#path-31"></use>
                        <use fill="#FFFFFF" fill-rule="evenodd" xlink:href="#path-31"></use>
                    </g>
                    <text id="【易使用】" font-family="PingFangSC-Regular, PingFang SC" font-size="10" font-weight="normal" line-spacing="14" fill="#555555">
                        <tspan x="36.5217391" y="33.2444444">【易使用】</tspan>
                    </text>
                    <path d="M30.0924233,26.2273757 L25.5897991,28.6459948 C24.3463921,29.3138896 22.3305819,29.3138896 21.087175,28.6459948 L16.5847291,26.2273757 C15.3413222,25.5594989 15.3413222,24.4765975 16.5847291,23.8084335 L21.087175,21.3897965 C22.3305819,20.7219197 24.3463921,20.7219197 25.5897991,21.3897965 L30.0924233,23.8084335 C31.3356519,24.4765975 31.3356519,25.5594271 30.0924233,26.2273757 Z M25.5897991,32.7734983 C24.3463921,33.4413931 22.3305819,33.4413931 21.087175,32.7734983 L16.5847291,30.354951 C15.4463662,29.7430582 15.3504177,28.7838457 16.296527,28.1135278 C16.3888695,28.1786407 16.4851201,28.2379506 16.5847291,28.2911185 L21.087175,30.7098094 C22.3305819,31.3777041 24.3463921,31.3777041 25.5897991,30.7098094 L30.0924233,28.2911185 C30.1919521,28.2379102 30.288141,28.1786018 30.3804471,28.1135278 C31.3265564,28.7838457 31.2307862,29.7430582 30.0924233,30.354951 L25.5897991,32.7734983 Z M16.296527,32.241121 C16.3889051,32.3061576 16.4851525,32.3654415 16.5847291,32.4186399 L21.087175,34.8373129 C22.3305819,35.5052077 24.3463921,35.5052077 25.5897991,34.8373129 L30.0924233,32.4186399 C30.1919429,32.365442 30.288131,32.306158 30.3804471,32.241121 C31.3265564,32.9113492 31.2307862,33.8707412 30.0924233,34.4824545 L25.5897991,36.9011275 C24.3463921,37.5690222 22.3305819,37.5690222 21.087175,36.9011275 L16.5847291,34.4824007 C15.4463662,33.8706873 15.3504177,32.9112954 16.296527,32.2410672 L16.296527,32.241121 Z" id="形状" fill="#FFB90C" fill-rule="nonzero"></path>
                </g>
            </g>
        </g>
    </g>
</svg>