<?xml version="1.0" encoding="UTF-8"?>
<svg width="114px" height="114px" viewBox="0 0 114 114" version="1.1" xmlns="http://www.w3.org/2000/svg" xmlns:xlink="http://www.w3.org/1999/xlink">
    <!-- Generator: Sketch 61 (89581) - https://sketch.com -->
    <title>形状结合</title>
    <desc>Created with Sketch.</desc>
    <defs>
        <linearGradient x1="24.6421839%" y1="8.12556101%" x2="250.414522%" y2="245.492143%" id="linearGradient-1">
            <stop stop-color="#5649F2" offset="0%"></stop>
            <stop stop-color="#753FE1" offset="100%"></stop>
        </linearGradient>
    </defs>
    <g id="页面-1" stroke="none" stroke-width="1" fill="none" fill-rule="evenodd">
        <path d="M56.8392494,0 C77.150184,0 95.9062359,10.7771467 106.061898,28.3937457 C116.217561,46.0103447 116.21717,67.7720605 106.061898,85.2849484 C95.9066266,102.797836 77.150184,113.678694 56.8392494,113.678694 C36.5283148,113.678694 17.7722629,102.901547 7.61660039,85.2849484 C-2.53906211,67.6683494 -2.53867148,45.9066336 7.61660039,28.3937457 C17.7718723,10.8808578 36.5283148,0 56.8392494,0 Z M63.76242,30 L50.25756,30 C48.3956173,30 46.8828014,31.5028334 46.87122,33.3647401 L46.87122,46.8647401 C46.8713632,47.7627101 47.2282177,48.6238446 47.8632797,49.258704 C48.4983416,49.8935634 49.35959,50.2501433 50.25756,50.2500001 L55.32708,50.2500001 L55.32708,55.3173601 L43.50486,55.3173601 C41.6507163,55.3282679 40.1502453,56.8284981 40.13904,58.6826401 L40.13904,63.7500001 L33.36636,63.7500001 C31.5042412,63.7606918 30,65.2731105 30,67.1352601 L30,80.6352601 C30.0115028,82.4894003 31.5122145,83.9893897 33.36636,84 L46.87122,84 C48.7331627,84 50.2459786,82.4971667 50.25756,80.6352601 L50.25756,67.1142001 C50.2574168,66.2162301 49.9005623,65.3550955 49.2655003,64.7202361 C48.6304384,64.0853767 47.76919,63.7287968 46.87122,63.7289401 L43.50486,63.7289401 L43.50486,58.6615801 L70.51566,58.6615801 L70.51566,63.7289401 L67.12878,63.7289401 C65.2664506,63.739633 63.7623893,65.2523799 63.76242,67.1147401 L63.76242,80.6147401 C63.7742172,82.4686693 65.2748435,83.9683328 67.12878,83.9789401 L80.63418,83.9789401 C82.4879056,83.9680383 83.9882059,82.4684602 84,80.6147401 L84,67.1147401 C84,65.2523799 82.4959694,63.739633 80.63364,63.7289401 L80.63364,63.7500001 L73.88148,63.7500001 L73.88148,58.6826401 C73.8702717,56.828289 72.3694746,55.3279734 70.51512,55.3173601 L58.69344,55.3173601 L58.69344,50.2500001 L63.76242,50.2500001 C65.6245388,50.2393083 67.1285137,48.7268896 67.12878,46.8647401 L67.12878,33.3647401 C67.1172772,31.5105999 65.6165655,30.0106104 63.76242,30 Z M33.36636,67.1147401 L46.83072,67.1552401 L46.83126,67.1552401 L46.83126,80.6552401 L33.36636,80.6552401 L33.36636,67.1147401 Z M80.63418,67.1147401 L80.59314,80.6552401 L67.12878,80.6552401 L67.12878,67.1147401 L80.63418,67.1147401 Z M63.723,33.3642001 L63.723,46.8642001 L50.2176,46.8847201 L50.2176,33.3642001 L63.723,33.3642001 Z" id="形状结合" fill="url(#linearGradient-1)"></path>
    </g>
</svg>