<?xml version="1.0" encoding="UTF-8"?>
<svg width="507px" height="253px" viewBox="0 0 507 253" version="1.1" xmlns="http://www.w3.org/2000/svg" xmlns:xlink="http://www.w3.org/1999/xlink">
    <title>u244</title>
    <defs>
        <rect id="path-1" x="0" y="0" width="46" height="125"></rect>
    </defs>
    <g id="页面-1" stroke="none" stroke-width="1" fill="none" fill-rule="evenodd">
        <g id="u244">
            <g id="分组" transform="translate(35.000000, 0.000000)">
                <rect id="矩形-copy" fill="#337DFF" fill-rule="nonzero" opacity="0.235398065" x="0" y="0" width="388.729885" height="224.583333"></rect>
                <rect id="矩形-copy-3" fill="#EEF2F8" fill-rule="nonzero" opacity="0.678199405" x="81.5517241" y="42.1944444" width="282.712644" height="160.611111"></rect>
                <rect id="矩形" fill="#EEF2F8" fill-rule="nonzero" opacity="0.678199405" x="20.387931" y="10.8888889" width="343.876437" height="25.8611111"></rect>
                <g id="实例详情" opacity="0.587053571" transform="translate(32.000000, 22.000000)" fill="#555555" font-family="PingFangSC-Regular, PingFang SC" font-size="4" font-weight="normal">
                    <g id="编组">
                        <text id="实例详情">
                            <tspan x="0.6206897" y="4.8611111">实例详情</tspan>
                        </text>
                    </g>
                </g>
                <rect id="矩形-copy-2" fill="#EEF2F8" fill-rule="nonzero" opacity="0.678199405" x="20.387931" y="42.1944444" width="54.3678161" height="160.611111"></rect>
                <rect id="矩形-copy-4" fill="#FFFFFF" fill-rule="nonzero" x="31.2614943" y="54.4444444" width="38.0574713" height="6.80555556"></rect>
                <rect id="矩形-copy-13" fill="#FFFFFF" fill-rule="nonzero" x="31.2614943" y="70.7777778" width="38.0574713" height="6.80555556"></rect>
                <rect id="矩形-copy-14" fill="#FFFFFF" fill-rule="nonzero" x="31.2614943" y="83.0277778" width="38.0574713" height="6.80555556"></rect>
                <rect id="矩形-copy-15" fill="#FFFFFF" fill-rule="nonzero" x="31.2614943" y="96.6388889" width="38.0574713" height="6.80555556"></rect>
                <rect id="矩形-copy-16" fill="#FFFFFF" fill-rule="nonzero" x="31.2614943" y="112.972222" width="38.0574713" height="6.80555556"></rect>
                <rect id="矩形-copy-17" fill="#FFFFFF" fill-rule="nonzero" x="31.2614943" y="126.583333" width="38.0574713" height="6.80555556"></rect>
                <rect id="矩形-copy-18" fill="#FFFFFF" fill-rule="nonzero" x="31.2614943" y="141.555556" width="38.0574713" height="6.80555556"></rect>
                <rect id="矩形-copy-19" fill="#FFFFFF" fill-rule="nonzero" x="31.2614943" y="153.805556" width="38.0574713" height="6.80555556"></rect>
                <g id="分组-5" transform="translate(392.807471, 81.305556)">
                    <path d="M17.1360808,162.091124 C4.62197746,150.190537 -0.625872331,138.999504 1.39253144,128.518026 C4.42013709,112.795809 11.2891849,109.50889 20.1703847,103.491071 C29.0515846,97.4732518 32.6204082,81.5070598 23.4270703,70.8860712 C14.2337323,60.2650827 8.98431959,53.3569582 10.6716069,44.8899565 C12.3588942,36.4229548 22.580707,37.0045852 26.6108923,31.7018415 C30.6410775,26.3990978 32.1771296,-3.96564744 48.3929051,0.787816137 C64.6086806,5.54127972 59.1477885,22.6936472 48.3929051,31.7018415 C37.6380218,40.7100358 40.0798613,57.3919769 48.3929051,64.1390241 C56.7059489,70.8860712 59.8027841,85.8763643 55.4084993,92.9752204 C51.0142146,100.074076 43.9986204,108.674523 48.3929051,122.15042 C52.7871899,135.626318 60.3049147,138.829665 59.1477885,149.251161 C58.3763711,156.198825 55.76283,160.478812 51.3071654,162.091124 L17.1360808,162.091124 Z" id="路径-4" fill="#AAC3E9" fill-rule="nonzero" opacity="0.645112537"></path>
                    <path d="M39.4994535,65.296247 C44.2155875,82.235066 44.7418211,94.2636611 41.0781544,101.382032 C35.5826543,112.059589 23.5111425,121.942701 21.5712433,134.126901 C20.2779772,142.249701 22.7259033,152.052675 28.9150216,163.535824 L44.1840194,163.535824 C36.9600532,155.28619 34.0948403,145.677684 35.5883806,134.710307 C37.8286911,118.259242 44.124584,116.714582 45.7367467,99.6387895 C46.8115218,88.2549277 44.7324241,76.8074135 39.4994535,65.296247 Z" id="路径-5" fill="#FFFFFF" fill-rule="nonzero"></path>
                    <line x1="11.0342742" y1="162.813474" x2="64.551706" y2="162.813474" id="路径-2" stroke="#244785" stroke-linecap="round" stroke-linejoin="round"></line>
                    <line x1="66.414791" y1="162.813474" x2="78.1082127" y2="162.813474" id="路径-2-copy" stroke="#244785" stroke-linecap="round" stroke-linejoin="round"></line>
                </g>
            </g>
            <g id="分组-2" transform="translate(0.000000, 95.000000)" fill-rule="nonzero">
                <path d="M50.1268051,48.4652483 C58.0288462,49.4478539 61.3405614,48.4652483 63.7791122,45.5580236 C66.6794446,42.1002658 65.0338723,23.6539126 68.2431473,20.2610826 C71.4524222,16.8682525 72.1173838,10.8355704 68.858637,10.8355704 C65.5998901,10.8355704 67.1617219,5.38206881 67.3716057,4.28837155 C67.8659447,1.71238738 67.5900925,0.837105953 66.544049,1.66252727 L63.7791122,10.1073964 C62.8666996,10.6249484 62.4104933,12.1187976 62.4104933,14.588944 C62.4104933,17.0590904 62.0538493,18.2896824 61.3405614,18.2807199 C61.7982374,33.5304339 60.043697,41.155291 56.0769402,41.155291 C52.1101835,41.155291 49.4675162,40.5305717 48.1489385,39.2811333 L45.0576923,45.5580236 L50.1268051,48.4652483 Z" id="路径-7" fill="#FFD5C8"></path>
                <path d="M0.857875102,52.64047 C-0.832419881,58.9581815 -0.0248887331,62.6345251 3.28046855,63.6695005 C6.58582582,64.704476 6.70252816,62.3911518 6.68544445,58.805556 L9.55769231,49.4478539 L1.36538462,49.4478539 L0.857875102,52.64047 Z" id="路径-8" fill="#FFD5C8"></path>
                <path d="M21.8085661,70.896104 C19.4618368,75.1717285 11.8195465,78.385954 11.8195465,84.0947692 C11.8195465,88.783995 14.5203474,87.9607528 14.5203474,95.8245568 C14.5203474,123.625499 9.79082494,139.423483 9.41032353,141.495861 C9.21307116,142.570184 9.13399761,146.481374 9.41032353,146.329446 C9.59454081,146.228161 12.013475,145.694302 16.667126,144.727869 C23.2643147,110.131718 27.7276363,91.8264009 25.9423077,88.9977927 C23.2643147,84.7548803 45.0576923,121.700828 47.0120844,146.080109 C47.0816056,146.947324 47.0597291,147.887842 47.3553636,148.455688 C47.7480712,149.209988 50.1680782,149.209988 54.6153846,148.455688 C47.7307762,109.238642 41.3589813,83.5007539 35.5,71.2420234 C23.4804144,73.3301055 27.1820981,72.9841861 21.8085661,70.896104 Z" id="路径-4" fill="#47586E"></path>
                <path d="M48.2256301,150.822932 C46.416205,155.524487 45.9690223,157.875265 46.884082,157.875265 C48.2566715,157.875265 64.3861215,158.832123 65.4432482,155.445463 C66.1479994,153.18769 62.9404226,151.906569 55.8205177,151.6021 L54.6153846,148.230734 L48.2256301,148.792287 L48.2256301,150.822932 Z" id="路径-5" fill="#FFAF97"></path>
                <path d="M9.41032353,145.963383 L9.55769231,153.801282 C15.8211598,154.190233 21.0695038,153.570733 25.3027241,151.942784 C29.5359445,150.314834 29.7814173,148.961244 26.0391428,147.882014 C23.1197596,147.947461 21.2046249,147.826905 20.2937386,147.520347 C17.4303641,146.55668 16.667126,144.727869 16.667126,144.727869 C16.667126,144.727869 14.2481918,145.139707 9.41032353,145.963383 Z" id="路径-6" fill="#FFAF97"></path>
                <path d="M28.1627947,6.81034483 C33.0542649,8.14521521 31.9234476,11.0280958 31.9234476,15.4936225 C31.9234476,19.9591493 30.469418,22.3740776 30.469418,25.0982155 C30.469418,26.9143075 26.229612,25.6732356 17.75,21.3749998 L19.3396711,21.3749998 L16.3846154,10.7294075 L28.1627947,6.81034483 Z" id="路径-2" fill="#FFD5C8"></path>
                <path d="M19.2529141,25.8793103 C5.00175271,40.7626633 -0.733883889,49.3156332 2.04600429,51.53822 C4.82589247,53.7608067 14.5452768,48.7781427 17.75,46.555556 C13.1525019,60.1425199 5.20539658,73.2518935 7.3628416,75.9183486 C10.5990091,79.9180312 37.5734956,80.2933541 37.5734956,74.3563762 C37.5734956,70.398391 36.846627,59.6095877 34.8643931,43.1254014 L45.9068278,48.181775 L50.5192308,38.1104887 C40.1699986,34.604116 34.490501,32.3628598 33.4807379,31.3867202 C31.0137381,29.0018678 30.215016,25.8793103 27.8589087,25.8793103 C24.0562406,25.8793103 21.1875757,25.8793103 19.2529141,25.8793103 Z" id="路径-3" fill="#FFB90D"></path>
                <path d="M2.39664875,46.6323767 C7.76261836,60.1375673 22.5064931,59.1431141 32.9060827,52.3444671 C37.6687965,49.2308818 27.1135901,40.4474614 26.1638572,34.5037919 C25.0398075,27.4692044 26.2279866,21.8684764 26.1638572,18.4265004 C26.0455435,12.0763272 42.3753147,0 24.7460688,0 C7.11682294,0 4.3599267,8.62594797 9.48224033,18.4265004 C14.604554,28.2270528 -2.96932085,33.1271862 2.39664875,46.6323767 Z" id="路径" fill="#3A3939"></path>
            </g>
            <g id="矩形" transform="translate(62.000000, 49.000000)">
                <g id="path-2-Clipped">
                    <g>
                        <mask id="mask-2" fill="white">
                            <use xlink:href="#path-1"></use>
                        </mask>
                        <g id="path-1"></g>
                        <polygon id="path-2" stroke="#F0C239" stroke-width="4" mask="url(#mask-2)" points="0 0 46 0 46 125 0 125"></polygon>
                    </g>
                </g>
            </g>
            <g id="分组-7" transform="translate(107.000000, 11.000000)">
                <g id="分组-3" fill="#FFFFFF" fill-rule="nonzero">
                    <g id="Rectangle-2-Copy-2">
                        <g id="path-4-link">
                            <path d="M120,1.50066626e-11 C123.313708,1.50066626e-11 126,2.6862915 126,6 L126,162.678428 C126,165.992136 123.313708,168.678428 120,168.678428 L50.1412139,168.678428 L43.4708378,168.678428 L40.9673913,168.678428 C37.6536828,168.678428 34.9673913,165.992136 34.9673913,162.678428 L34.9673913,141.29626 L34.9673913,81.8181818 L1.92617633,86.9064336 C1.3803261,86.9904929 0.869683489,86.6161375 0.785624129,86.0702872 C0.731582648,85.719362 0.867674449,85.3660958 1.1431872,85.1421276 L34.9673913,57.6459522 L34.9673913,6 C34.9673913,2.6862915 37.6536828,1.50066626e-11 40.9673913,1.50066626e-11 L120,1.50066626e-11 Z" id="path-4"></path>
                        </g>
                    </g>
                </g>
                <g id="基本信息" transform="translate(51.000000, 10.000000)" fill="#555555" font-family="PingFangSC-Regular, PingFang SC" font-size="8" font-weight="normal">
                    <g id="编组">
                        <text id="基本信息">
                            <tspan x="0.2717391" y="8.4545455">基本信息</tspan>
                        </text>
                    </g>
                </g>
                <g id="数据库管理" transform="translate(51.000000, 37.000000)" fill="#555555" font-family="PingFangSC-Regular, PingFang SC" font-size="8" font-weight="normal">
                    <g id="编组">
                        <text id="数据库管理">
                            <tspan x="0.2717391" y="8.1428571">数据库管理</tspan>
                        </text>
                    </g>
                </g>
                <g id="账号管理" transform="translate(51.000000, 63.000000)" fill="#555555" font-family="PingFangSC-Regular, PingFang SC" font-size="8" font-weight="normal">
                    <g id="编组">
                        <text id="账号管理">
                            <tspan x="0.2717391" y="8.8311688">账号管理</tspan>
                        </text>
                    </g>
                </g>
                <g id="备份恢复" transform="translate(51.000000, 89.000000)" fill="#555555" font-family="PingFangSC-Regular, PingFang SC" font-size="8" font-weight="normal">
                    <g id="编组">
                        <text id="备份恢复">
                            <tspan x="0.2717391" y="8.207792">备份恢复</tspan>
                        </text>
                    </g>
                </g>
                <g id="日志管理" transform="translate(51.000000, 115.000000)" fill="#555555" font-family="PingFangSC-Regular, PingFang SC" font-size="8" font-weight="normal">
                    <g id="编组">
                        <text id="日志管理">
                            <tspan x="0.2717391" y="8.896104">日志管理</tspan>
                        </text>
                    </g>
                </g>
                <g id="参数设置" transform="translate(51.000000, 141.000000)" fill="#555555" font-family="PingFangSC-Regular, PingFang SC" font-size="8" font-weight="normal">
                    <g id="编组">
                        <text id="参数设置">
                            <tspan x="0.2717391" y="8.272727">参数设置</tspan>
                        </text>
                    </g>
                </g>
            </g>
        </g>
    </g>
</svg>