<?xml version="1.0" encoding="utf-8"?>
<svg version="1.1" xmlns:xlink="http://www.w3.org/1999/xlink" width="18px" height="18px" xmlns="http://www.w3.org/2000/svg">
  <g transform="matrix(1 0 0 1 -391 -1212 )">
    <path d="M 0 9  C 0 4.05  4.05 0  9 0  C 13.95 0  18 4.05  18 9  C 18 13.95  13.95 18  9 18  C 4.05 18  0 13.95  0 9  Z M 11.5875 5.4  L 8.8875 8.2125  L 6.075 5.4  C 5.85 5.175  5.5125 5.175  5.2875 5.4  C 5.0625 5.625  5.0625 5.9625  5.2875 6.1875  L 8.1 9  L 5.2875 11.8125  C 5.0625 12.0375  5.0625 12.375  5.2875 12.6  C 5.5125 12.825  5.85 12.825  6.075 12.6  L 8.8875 9.7875  L 11.7 12.6  C 11.925 12.825  12.2625 12.825  12.4875 12.6  C 12.7125 12.375  12.7125 12.0375  12.4875 11.8125  L 9.675 9  L 12.375 6.1875  C 12.6 5.9625  12.6 5.625  12.375 5.4  C 12.15 5.175  11.8125 5.175  11.5875 5.4  Z " fill-rule="nonzero" fill="#f5222d" stroke="none" transform="matrix(1 0 0 1 391 1212 )" />
  </g>
</svg>