<?xml version="1.0" encoding="utf-8"?>
<svg version="1.1" xmlns:xlink="http://www.w3.org/1999/xlink" width="56px" height="32px" xmlns="http://www.w3.org/2000/svg">
  <g transform="matrix(1 0 0 1 -173 -99 )">
    <path d="M 174 101  A 1 1 0 0 1 175 100 L 227 100  A 1 1 0 0 1 228 101 L 228 129  A 1 1 0 0 1 227 130 L 175 130  A 1 1 0 0 1 174 129 L 174 101  Z " fill-rule="nonzero" fill="#ffffff" stroke="none" />
    <path d="M 173.5 101  A 1.5 1.5 0 0 1 175 99.5 L 227 99.5  A 1.5 1.5 0 0 1 228.5 101 L 228.5 129  A 1.5 1.5 0 0 1 227 130.5 L 175 130.5  A 1.5 1.5 0 0 1 173.5 129 L 173.5 101  Z " stroke-width="1" stroke="#337dff" fill="none" stroke-opacity="0.8" />
  </g>
</svg>