<?xml version="1.0" encoding="utf-8"?>
<svg version="1.1" xmlns:xlink="http://www.w3.org/1999/xlink" width="18px" height="18px" xmlns="http://www.w3.org/2000/svg">
  <g transform="matrix(1 0 0 1 -367 -1212 )">
    <path d="M 4.51935483398437 9.44516128710937  C 4.49032257421875 9.49354838085937  4.5 9.55161290039062  4.52903225976562 9.5903225859375  L 7.48064515429687 12.64838709375  C 7.51935483984375 12.6870967792969  7.57741934179688 12.6870967792969  7.61612902734375 12.64838709375  L 14.0129032324219 6.34838709375  C 14.0516129179687 6.30967740820312  14.0516129179687 6.25161290625  14.0129032324219 6.21290322070312  L 13.6258064472656 5.83548387890625  C 13.5870967617187 5.79677419335937  13.5193548339844 5.79677419335937  13.4806451660156 5.825806453125  L 7.61612902734375 10.7129032207031  C 7.57741934179687 10.7419354804687  7.5096774140625 10.75161290625  7.4612903203125 10.7129032207031  L 5.06129032617187 8.87419355273438  C 5.022580640625 8.84516129296875  4.95483871289062 8.85483871875  4.925806453125 8.89354838671875  L 4.51935483398437 9.44516128710937  Z M 8.89354838671875 0  C 13.974193546875 0  18 4.025806453125  18 9.10645161328125  C 18 13.9645161210937  13.974193546875 18  8.89354838671875 18  C 4.025806453125 18  0 13.974193546875  0 9.10645161328125  C 0 4.025806453125  4.025806453125 0  8.89354838671875 0  Z " fill-rule="nonzero" fill="#09bb07" stroke="none" transform="matrix(1 0 0 1 367 1212 )" />
  </g>
</svg>