<?xml version="1.0" encoding="UTF-8"?>
<svg width="203px" height="212px" viewBox="0 0 203 212" version="1.1" xmlns="http://www.w3.org/2000/svg" xmlns:xlink="http://www.w3.org/1999/xlink">
    <!-- Generator: Sketch 61 (89581) - https://sketch.com -->
    <title>编组</title>
    <desc>Created with Sketch.</desc>
    <g id="页面-1" stroke="none" stroke-width="1" fill="none" fill-rule="evenodd">
        <g id="编组" transform="translate(0.398014, -0.000000)" fill="#337DFF" fill-rule="nonzero">
            <path d="M185.45562,65.4612381 C209.070791,99.026739 208.182899,145.688145 180.501287,178.677805 C164.650874,197.581105 141.963271,209.431631 117.433757,211.620151 C92.9042426,213.808671 68.544063,206.155742 49.7167626,190.346384 C26.9524787,171.201507 14.8079863,142.244886 17.0758393,112.519213 L17.0758393,112.519213 L9.14527138,121.970496 C7.30211502,124.167084 4.03336224,124.458722 1.8443077,122.621887 C-0.34474685,120.785052 -0.625152735,117.515316 1.21800362,115.318728 L1.21800362,115.318728 L20.8468651,91.925962 C21.4681601,91.223408 22.272147,90.7072191 23.168708,90.4352545 C24.2742878,89.8998165 25.5347353,89.7818337 26.7175354,90.1030704 C29.4457112,90.9020636 31.0582589,93.7453702 30.2602112,96.5003646 C21.2356108,127.840666 31.4714734,161.497588 56.3843815,182.400225 C91.1513451,211.573341 143.052577,207.005356 172.409073,172.18854 L172.409073,172.18854 L178.886534,163.294755 C196.17966,136.216788 195.986848,101.814579 179.525598,75.3016626 C181.6417,72.4479006 183.493258,69.4245333 185.080912,66.2319802 Z M50.1532672,47.8952718 C76.2154836,26.0647167 111.211452,20.6997448 141.581149,31.803982 C138.639453,34.3338932 135.940245,37.0737823 133.481646,40.0262848 C107.600325,32.2321007 78.6408327,37.4981925 56.7668383,55.8233341 C54.5637688,57.6379358 51.3189842,57.3524556 49.4794571,55.1821814 C47.6554595,52.9904785 47.9571094,49.7282905 50.1532672,47.8952718 Z" id="形状结合"></path>
            <path d="M198.326217,0 L199.252628,4.58196883 C212.428084,69.7468856 182.244456,108.583072 110.62118,119.194902 L110.62118,119.194902 L105.225387,119.994352 L104.897417,114.549525 C100.861706,47.5501356 130.839326,8.97901201 193.692366,0.616525686 L193.692366,0.616525686 L198.326217,0 Z M190.321213,11.2248501 L189.917885,11.2888944 C138.156451,19.8720196 113.347705,51.1838099 114.57636,106.65632 L114.57636,106.65632 L114.623213,108.42085 L115.002279,108.356275 C174.939977,97.7968911 199.550284,66.1473989 190.427453,11.8333222 L190.427453,11.8333222 L190.321213,11.2248501 Z" id="形状结合"></path>
            <path d="M143.996455,53.5405741 C145.816889,51.4641634 148.975905,51.2566532 151.052316,53.0770871 C153.128727,54.8975211 153.336237,58.0565378 151.515803,60.1329485 C131.210105,83.293893 113.839852,119.597617 99.5471991,169.020795 C98.7800591,171.673521 96.0077096,173.202091 93.3549832,172.434951 C90.7022568,171.667811 89.173687,168.895461 89.9408271,166.242735 C104.606038,115.531272 122.577196,77.9716605 143.996455,53.5405741 Z" id="路径-3" transform="translate(121.249457, 112.234877) rotate(6.000000) translate(-121.249457, -112.234877) "></path>
        </g>
    </g>
</svg>