<?xml version="1.0" encoding="utf-8"?>
<svg version="1.1" xmlns:xlink="http://www.w3.org/1999/xlink" width="13px" height="13px" xmlns="http://www.w3.org/2000/svg">
  <g transform="matrix(1 0 0 1 -50 -50 )">
    <path d="M 12.3767123287671 13  L 13 12.3020134228188  C 13 12.3020134228188  11.041095890411 10.3825503355704  11.041095890411 10.3825503355704  C 12.0205479452055 9.24832214765092  12.6438356164384 7.85234899328862  12.6438356164384 6.19463087248323  C 12.6438356164384 2.79194630872485  9.79452054794518 0  6.32191780821915 0  C 2.84931506849313 0  0 2.70469798657723  0 6.19463087248323  C 0 9.68456375838923  2.84931506849313 12.3892617449665  6.32191780821915 12.3892617449665  C 7.83561643835617 12.3892617449665  9.26027397260276 11.8657718120805  10.3287671232877 10.9932885906039  C 10.3287671232877 10.9932885906039  12.3767123287671 13  12.3767123287671 13  Z M 6.3219178082191 11.4295302013422  C 3.38356164383555 11.4295302013422  0.979452054794478 9.07382550335569  0.979452054794478 6.19463087248323  C 0.979452054794478 3.31543624161054  3.38356164383555 0.959731543624002  6.3219178082191 0.959731543624002  C 9.2602739726027 0.959731543624002  11.6643835616438 3.31543624161054  11.6643835616438 6.19463087248323  C 11.6643835616438 9.07382550335569  9.2602739726027 11.4295302013422  6.3219178082191 11.4295302013422  Z " fill-rule="nonzero" fill="#031129" stroke="none" transform="matrix(1 0 0 1 50 50 )" />
  </g>
</svg>