<?xml version="1.0" encoding="utf-8"?>
<svg version="1.1" xmlns:xlink="http://www.w3.org/1999/xlink" width="15px" height="15px" xmlns="http://www.w3.org/2000/svg">
  <g transform="matrix(1 0 0 1 -1272 -147 )">
    <path d="M 10.530452 9.76759487  L 8.25761719 7.4947433  L 10.530452 5.22190848  L 9.77285156 4.46429129  L 7.5 6.73710938  L 5.22714844 4.46429129  L 4.46954799 5.22190848  L 6.74238281 7.4947433  L 4.46954799 9.76759487  L 5.22714844 10.5251953  L 7.5 8.25236049  L 9.77285156 10.5251953  L 10.530452 9.76759487  Z M 0 7.5  C 0 3.36249442  3.36249442 0  7.5 0  C 11.6375056 0  15 3.36249442  15 7.5  C 15 11.6375056  11.6375056 15  7.5 15  C 3.36249442 15  0 11.6375056  0 7.5  Z " fill-rule="nonzero" fill="#c4c4c4" stroke="none" transform="matrix(1 0 0 1 1272 147 )" />
  </g>
</svg>