<?xml version="1.0" encoding="utf-8"?>
<svg version="1.1" xmlns:xlink="http://www.w3.org/1999/xlink" width="9px" height="12px" xmlns="http://www.w3.org/2000/svg">
  <g transform="matrix(1 0 0 1 0 -3 )">
    <path d="M 7.88300417851428 6.67072758447788  C 8.33702885722892 5.98433075159279  8.57199543106432 5.1761947785265  8.57142481134426 4.34947920900537  C 8.57142481134426 1.94732817216561  6.65264634814736 0  4.28571316209459 0  C 1.91877997604186 0  0 1.94732817216561  0 4.34947920900537  C -0.000493924565972748 5.17631879877895  0.242023823268454 5.98451815230884  0.696542441423048 6.67072758447788  C 0.696542441423048 6.67072758447788  3.90180361981933 11.7619074578354  3.90180361981933 11.7619074578354  C 3.97639314688499 11.9075724219613  4.12441211240741 11.9992568155931  4.28616428523063 11.999984209823  C 4.44827804832673 12.0009783478211  4.59697874790609 11.9087634490605  4.67007382750589 11.7619074578354  C 4.67007382750589 11.7619074578354  7.88300417851428 6.67072758447788  7.88300417851428 6.67072758447788  Z M 2.330526392557 4.34947920900537  C 2.33611905486677 3.82891303224885  2.54526083717766 3.33192624876242  2.91193623888913 2.96786618924823  C 3.27861164060059 2.60380612973405  3.77277966343217 2.40249952260312  4.28571316209459 2.40823796850537  C 5.33478313776973 2.43287673634737  6.16802388794537 3.31141586898747  6.15226193122317 4.3762599793288  C 6.13649997450096 5.44110408967014  5.27763259107149 6.29384553146495  4.22830675134622 6.28649239202769  C 3.17898091162095 6.27913925259044  2.33179815594917 5.41444268295561  2.330526392557 4.34947920900537  Z " fill-rule="nonzero" fill="#ffffff" stroke="none" fill-opacity="0.996078431372549" transform="matrix(1 0 0 1 0 3 )" />
  </g>
</svg>