<?xml version="1.0" encoding="utf-8"?>
<svg version="1.1" xmlns:xlink="http://www.w3.org/1999/xlink" width="11px" height="12px" xmlns="http://www.w3.org/2000/svg">
  <g transform="matrix(1 0 0 1 -1282 -75 )">
    <path d="M 5.08121395497382 6.80376794029851  C 5.08121395497382 6.59865355223881  5.27907957068063 6.32516764179105  5.47694518638743 6.32516764179105  C 8.57683983246073 6.32516764179105  10.9512271518325 7.55585420895522  10.9512271518325 9.12839808955224  C 10.9512271518325 10.7693134925373  8.57683983246073 12  5.47694518638743 12  C 2.37705056335079 12  0.00266319635078534 10.7693134925373  0.00266319635078534 9.19676955223881  C 0.00266319635078534 8.37631188059702  0.662215238743455 7.62422567164179  1.84940892722513 7.07725385074627  C 2.04727454293194 7.0088823880597  2.31109535235602 7.07725385074627  2.37705056335079 7.28236829850746  C 2.44300577434555 7.48748274626866  2.37705056335079 7.76096859701493  2.17918494764398 7.82934005970149  C 1.32176728534031 8.23956895522388  0.79412564921466 8.71816925373134  0.79412564921466 9.19676955223881  C 0.79412564921466 10.1539702089552  2.70682658376963 11.1795423283582  5.47694518638743 11.1795423283582  C 8.24706380628272 11.1795423283582  10.1597647120419 10.1539702089552  10.1597647120419 9.19676955223881  C 10.1597647120419 8.23956889552239  8.24706380628272 7.2139968358209  5.47694518638743 7.2139968358209  C 5.27907957068063 7.2139968358209  5.08121395497382 7.0088823880597  5.08121395497382 6.80376794029851  Z M 8.97257105235602 0.308477938507463  C 9.30234707853403 -0.0333794310447761  9.69807829842932 0.0349920475820896  9.96189913089005 0.171734992835821  C 10.2257199057592 0.376849416716418  10.3576303507853 0.718706788059702  10.2916750994764 1.19730709850746  C 10.2916750994764 1.40242152238806  10.2257199057592 1.74427889552239  10.0938095183246 2.0177647880597  C 9.82998868586387 2.83822247164179  9.43425746596859 3.59030868656716  8.90661580104712 4.13728047761194  C 8.57683983246073 4.47913785074627  8.24706380628272 4.75262375522388  7.85133252879581 4.95773817910448  L 7.78537733507853 5.02610964179105  C 7.38964611518325 5.23122406567164  6.92795970157068 5.29959553432836  6.46627323036649 5.23122406567164  C 4.67461572565445 5.16717940895522  4.27187480471204 5.70305125373134  3.95703011518325 6.33308334328358  L 5.67481080209424 9.67536991044776  C 5.80672123560209 9.88048429850746  5.67481080209424 10.1539702089552  5.54290039162304 10.2223416716418  L 5.34503477591623 10.2223416716418  C 5.21312437120419 10.2223416716418  5.08121396649215 10.1539702089552  5.01525875549738 10.0172272238806  L 3.2345323078534 6.63295319402985  L 3.16851301465969 6.53028208955224  C 2.29495633664921 4.89048526567164  1.72565076073298 3.8113948358209  1.36983696858639 3.08916151641791  L 0.662215238743455 1.74427889552239  C 0.596260033507853 1.53916447164179  0.662215238743455 1.26567857910448  0.860080854450262 1.19730709850746  C 1.00113285235602 1.09982748059701  1.17570198272251 1.14132799402985  1.28821511989529 1.22273420298507  C 1.52533890052356 1.05540866865672  1.92840837591623 0.804234537313433  2.44300577434555 0.581963829253731  C 2.9706474104712 0.376849416716418  3.49828904659686 0.308477938507463  4.02593067696335 0.240106459701493  C 4.68548272356021 0.240106459701493  5.34503476439791 0.308477938507463  6.00458681675393 0.51359236238806  C 8.04919816753927 1.19730709850746  8.313019 0.923821211940298  8.90661580104712 0.376849416716418  L 8.97257105235602 0.308477938507463  Z M 9.43425746596859 1.19730709850746  L 9.43421294764398 1.06053527761194  C 8.70875021989529 1.8126503761194  8.11515336125654 2.2228792119403  5.74076599581152 1.40242152238806  C 5.21312435968586 1.19730709850746  4.61952752408377 1.1289356358209  4.02593067696335 1.1289356238806  C 3.5642442460733 1.1289356238806  3.10255780366492 1.26567856716418  2.70682658376963 1.40242152238806  C 2.24514015863874 1.60753594626866  1.91536413246073 1.8126503761194  1.71749851675393 1.94939331940299  C 1.98131933193717 2.56473659104478  2.83873699424084 4.13728048955224  3.5642442460733 5.50470997014925  C 3.95997547748691 4.88936669850746  4.75143792879581 4.34239491343284  6.53222848167539 4.47913785074627  C 6.8620045078534 4.47913785074627  7.19178053403141 4.47913785074627  7.45560130890052 4.34239490149254  C 7.78537733507853 4.20565195820896  8.04919816753927 3.93216605373134  8.313019 3.65868016716418  C 8.70875021989529 3.18007985074627  9.10448143979058 2.56473657910448  9.30234707853403 1.88102183880597  C 9.36830227225131 1.60753594626866  9.43425746596859 1.40242152238806  9.43425746596859 1.19730709850746  Z M 9.43425746596859 0.992192674626866  L 9.23639182722513 0.718706788059702  L 9.43421294764398 1.06053527761194  L 9.43425746596859 0.992192674626866  Z " fill-rule="nonzero" fill="#337dff" stroke="none" transform="matrix(1 0 0 1 1282 75 )" />
  </g>
</svg>