<?xml version="1.0" encoding="utf-8"?>
<svg version="1.1" xmlns:xlink="http://www.w3.org/1999/xlink" width="4px" height="8px" xmlns="http://www.w3.org/2000/svg">
  <g transform="matrix(1 0 0 1 -226 -57 )">
    <path d="M 0.666666666666629 8  C 1.03485649999999 8  1.33333333333331 7.70152316666668  1.33333333333331 7.33333333333328  C 1.33333333333331 6.9651435000001  1.03485649999999 6.66666666666678  0.666666666666629 6.66666666666678  C 0.298476833333325 6.66666666666678  0 6.9651435000001  0 7.33333333333328  C 0 7.70152316666668  0.298476833333325 8  0.666666666666629 8  Z M 0.666666666666629 4.66666666666616  C 1.03485649999999 4.66666666666616  1.33333333333331 4.36818983333284  1.33333333333331 3.99999999999943  C 1.33333333333331 3.63181016666625  1.03485649999999 3.33333333333294  0.666666666666629 3.33333333333294  C 0.298476833333325 3.33333333333294  0 3.63181016666625  0 3.99999999999943  C 0 4.36818983333284  0.298476833333325 4.66666666666616  0.666666666666629 4.66666666666616  Z M 1.33333333333331 0.666666666666496  C 1.33333333333331 0.298476864583327  1.03485649999999 0  0.666666666666629 0  C 0.298476833333325 0  0 0.298476864583327  0 0.666666666666496  C 0 1.03485646874989  0.298476833333325 1.33333333333322  0.666666666666629 1.33333333333322  C 1.03485649999999 1.33333333333322  1.33333333333331 1.03485646874989  1.33333333333331 0.666666666666496  Z M 3.33333333333337 6.66666666666678  C 2.96514350000001 6.66666666666678  2.66666666666669 6.9651435000001  2.66666666666669 7.33333333333328  C 2.66666666666669 7.70152316666668  2.96514350000001 8  3.33333333333337 8  C 3.70152313541666 8  4 7.70152316666668  4 7.33333333333328  C 4 6.9651435000001  3.70152313541666 6.66666666666678  3.33333333333337 6.66666666666678  Z M 2.66666666666669 3.99999999999943  C 2.66666666666669 4.36818983333284  2.96514350000001 4.66666666666616  3.33333333333337 4.66666666666616  C 3.70152313541666 4.66666666666616  4 4.36818983333284  4 3.99999999999943  C 4 3.63181016666625  3.70152313541666 3.33333333333294  3.33333333333337 3.33333333333294  C 2.96514350000001 3.33333333333294  2.66666666666669 3.63181016666625  2.66666666666669 3.99999999999943  Z M 3.33333333333337 1.33333333333322  C 3.70152313541666 1.33333333333322  4 1.03485646874989  4 0.666666666666496  C 4 0.298476864583327  3.70152313541666 0  3.33333333333337 0  C 2.96514350000001 0  2.66666666666669 0.298476864583327  2.66666666666669 0.666666666666496  C 2.66666666666669 1.03485646874989  2.96514350000001 1.33333333333322  3.33333333333337 1.33333333333322  Z " fill-rule="nonzero" fill="#000000" stroke="none" transform="matrix(1 0 0 1 226 57 )" />
  </g>
</svg>