<?xml version="1.0" encoding="utf-8"?>
<svg version="1.1" xmlns:xlink="http://www.w3.org/1999/xlink" width="11px" height="11px" xmlns="http://www.w3.org/2000/svg">
  <defs>
    <mask fill="white" id="clip59">
      <path d="M 8.7328188876086 9.94959346906221  L 5.5 8.25  L 2.2671811123914 9.94959346906221  L 2.88459458018833 6.34979673453111  L 0.269189160376655 3.80040653093779  L 3.8835905561957 3.27520326546889  L 5.5 0  L 7.1164094438043 3.27520326546889  L 10.7308108396233 3.80040653093779  L 8.11540541981167 6.3497967345311  L 8.7328188876086 9.94959346906221  Z " fill-rule="evenodd" />
    </mask>
  </defs>
  <g transform="matrix(1 0 0 1 -219 -136 )">
    <path d="M 8.7328188876086 9.94959346906221  L 5.5 8.25  L 2.2671811123914 9.94959346906221  L 2.88459458018833 6.34979673453111  L 0.269189160376655 3.80040653093779  L 3.8835905561957 3.27520326546889  L 5.5 0  L 7.1164094438043 3.27520326546889  L 10.7308108396233 3.80040653093779  L 8.11540541981167 6.3497967345311  L 8.7328188876086 9.94959346906221  Z " fill-rule="nonzero" fill="#ffffff" stroke="none" fill-opacity="0" transform="matrix(1 0 0 1 219 136 )" />
    <path d="M 8.7328188876086 9.94959346906221  L 5.5 8.25  L 2.2671811123914 9.94959346906221  L 2.88459458018833 6.34979673453111  L 0.269189160376655 3.80040653093779  L 3.8835905561957 3.27520326546889  L 5.5 0  L 7.1164094438043 3.27520326546889  L 10.7308108396233 3.80040653093779  L 8.11540541981167 6.3497967345311  L 8.7328188876086 9.94959346906221  Z " stroke-width="2" stroke="#4f596a" fill="none" transform="matrix(1 0 0 1 219 136 )" mask="url(#clip59)" />
  </g>
</svg>