<?xml version="1.0" standalone="no"?><!DOCTYPE svg PUBLIC "-//W3C//DTD SVG 1.1//EN" "http://www.w3.org/Graphics/SVG/1.1/DTD/svg11.dtd"><svg t="1579482049886" class="icon" viewBox="0 0 1024 1024" version="1.1" xmlns="http://www.w3.org/2000/svg" p-id="2286" xmlns:xlink="http://www.w3.org/1999/xlink" width="200" height="200"><defs><style type="text/css"></style></defs><path d="M318.112483 695.180411a53.750997 53.750997 0 0 0 76.019267 0l588.530755-588.445436a53.921635 53.921635 0 0 0 0-76.189905l-0.170639-0.170638a53.750997 53.750997 0 0 0-75.933947 0.170638L318.027164 618.990506a53.921635 53.921635 0 0 0 0 76.189905z" fill="#2c2c2c" p-id="2287"></path><path d="M970.035286 431.203293h-0.255957a53.665678 53.665678 0 0 0-53.665677 53.665678v431.373078H107.801044V107.673485l431.373078 0.170638a53.750997 53.750997 0 0 0 53.665678-53.836316V53.837169A53.665678 53.665678 0 0 0 539.088803 0.171491H53.708771A53.324401 53.324401 0 0 0 0.043093 53.75185l-0.085319 916.667791A53.324401 53.324401 0 0 0 53.623452 1024h916.75311A53.409721 53.409721 0 0 0 1023.871602 970.249003V484.95429a53.750997 53.750997 0 0 0-53.836316-53.665678z" fill="#2c2c2c" p-id="2288"></path></svg>