<?xml version="1.0" encoding="utf-8"?>
<svg version="1.1" xmlns:xlink="http://www.w3.org/1999/xlink" width="40px" height="68px" xmlns="http://www.w3.org/2000/svg">
  <g transform="matrix(1 0 0 1 -290 -285 )">
    <path d="M 35.3743394666667 68  L 12.38808908 68  C 2.63770673333333 58.2118013307692  -1.35694794666665 48.8585901615385  0.404125006666656 39.9403663615385  C 3.04573445333335 26.5630307923077  12.8358689066667 23.2601145230769  20.5847848 18.1398199230769  C 25.7507286666666 14.7262902769231  25.4196404 8.90363119615384  19.5915198666667 0.671842654615378  C 25.1245030666666 -1.5437386676923  30.0165821333333 1.72053518923077  34.2677569333334 10.4646642384615  C 40.6445192 23.5808578384615  28.422194 22.6292066  32.2562416 34.0952485153846  C 36.0902892 45.5612905615384  40.8727753333333 48.5746731615384  39.8631737333333 57.4418603461539  C 39.190106 63.3533184692308  37.693828 66.8726983538462  35.3743394666667 68  Z " fill-rule="nonzero" fill="#aac3e9" stroke="none" transform="matrix(1 0 0 1 290 285 )" />
  </g>
</svg>