<?xml version="1.0" encoding="utf-8"?>
<svg version="1.1" xmlns:xlink="http://www.w3.org/1999/xlink" width="16px" height="17px" xmlns="http://www.w3.org/2000/svg">
  <g transform="matrix(1 0 0 1 -131 -167 )">
    <path d="M 15.8561649333333 10.2758588384615  C 15.9246762666667 9.22843535384615  15.9931877333333 8.24647586153846  15.8561649333333 7.52637233846154  C 15.7191421333333 6.87173267692308  15.1025394666667 6.34802086923077  14.4859369333333 6.34802086923077  C 14.0748685333333 6.34802086923077  13.7323114666667 6.54441284615385  13.5267773333333 6.80626868461539  L 13.5267773333333 6.6753407  C 13.5267773333333 5.88977318461538  12.9101746666667 5.30059751538462  12.2250606666667 5.30059751538462  C 11.5399466666667 5.30059751538462  10.923344 5.95523717692308  10.923344 6.6753407  L 10.923344 5.95523717692308  C 10.923344 5.16966953076923  10.3067414666667 4.58049386153846  9.62162733333333 4.58049386153846  C 8.93651333333333 4.58049386153846  8.3199108 5.23513352307692  8.3199108 5.95523717692308  L 8.3199108 1.43822353846154  C 8.3199108 0.652655892307692  7.70330813333334 0.0634802230769227  7.01819413333333 0.0634802230769227  C 6.33308013333333 0.0634802230769227  5.78498893333333 0.718119884615384  5.78498893333333 1.43822353846154  L 5.78498893333333 9.42482733076923  C 5.78498893333333 9.81761115384615  5.51094333333333 10.1449308538461  5.09987493333333 10.1449308538461  L 4.89434066666666 10.1449308538461  L 3.0445328 9.35936333846154  C 2.83899866666667 9.22843535384615  2.6334644 9.29389934615384  2.42793026666666 9.22843535384615  C 1.74281626666667 9.03204350769231  1.1262136 9.88307501538462  1.1262136 10.6031786692308  C 1.1262136 11.0614264846154  1.6743048 11.6506021538462  1.9483504 11.9124579923077  L 6.94968266666667 16.8222554538462  L 14.6229597333333 16.8222554538462  C 14.8284938666667 15.9057599538462  15.5821193333333 12.4361696692308  15.8561649333333 10.2758588384615  Z " fill-rule="nonzero" fill="#6098fd" stroke="none" transform="matrix(1 0 0 1 131 167 )" />
  </g>
</svg>