<?xml version="1.0" encoding="utf-8"?>
<svg version="1.1" xmlns:xlink="http://www.w3.org/1999/xlink" width="4px" height="7px" xmlns="http://www.w3.org/2000/svg">
  <g transform="matrix(1 0 0 1 -175 -535 )">
    <path d="M 0.435693675969078 6.99999126559091  C 0.262478260699506 6.99945535792137  0.105998407970295 6.90011971436452  0.0369671234297246 6.74687396001521  C -0.0320641611108459 6.5936282056659  -0.000569654061245838 6.41550307605657  0.117218325107073 6.29299304428697  C 0.117218325107073 6.29299304428697  2.80898944129689 3.50077090241103  2.80898944129689 3.50077090241103  C 2.80898944129689 3.50077090241103  0.117218325107074 0.70854876053509  0.117218325107074 0.70854876053509  C -0.0472259170077207 0.538301661748464  -0.0374597340362188 0.271697228408472  0.139031705303102 0.113071091996361  C 0.315523144642424 -0.0455550444157493  0.59190612273589 -0.0361343930609795  0.756350364850685 0.134112705725645  C 0.756350364850685 0.134112705725645  4 3.50077090241103  4 3.50077090241103  C 4 3.50077090241103  0.756350364850685 6.86742909909642  0.756350364850685 6.86742909909642  C 0.673228900752914 6.95271135255163  0.557040035298706 7.00074480471776  0.435693675969078 6.99999126559091  Z " fill-rule="nonzero" fill="#337dff" stroke="none" transform="matrix(1 0 0 1 175 535 )" />
  </g>
</svg>