<?xml version="1.0" encoding="utf-8"?>
<svg version="1.1" xmlns:xlink="http://www.w3.org/1999/xlink" width="16px" height="31px" xmlns="http://www.w3.org/2000/svg">
  <g transform="matrix(1 0 0 1 -644 -213 )">
    <path d="M 15.754307547 15.742313  C 16.0532027593 15.4433838  16.0532027593 14.9587422  15.754307547 14.6598469  L 1.3216758 0.227249235  C 1.0227806 -0.0716800199  0.538105 -0.0716800199  0.2392097 0.227249235  C -0.0597194999999999 0.526178491  -0.0597194999999999 1.01082011  0.2392097 1.30971533  L 14.13052337 15.201063  L 0.362496399999999 28.96909  C 0.0635671000000002 29.2680192  0.0635671000000002 29.7526608  0.362496399999999 30.0515901  C 0.511977999999999 30.2010717  0.7078282 30.2757785  0.903746399999999 30.2757785  C 1.0995966 30.2757785  1.2955489 30.2010377  1.4449965 30.0515901  L 15.754307547 15.742313  Z " fill-rule="nonzero" fill="#555555" stroke="none" transform="matrix(1 0 0 1 644 213 )" />
  </g>
</svg>