<?xml version="1.0" encoding="utf-8"?>
<svg version="1.1" xmlns:xlink="http://www.w3.org/1999/xlink" width="14px" height="16px" xmlns="http://www.w3.org/2000/svg">
  <defs>
    <mask fill="white" id="clip561">
      <path d="M 13.85278692 2.87149106666667  C 13.85278692 2.87149106666667  0.548748200000006 0.717323333333335  0.548748200000006 0.717323333333335  C 0.548748200000006 0.717323333333335  12.5921481 15.2067176  12.5921481 15.2067176  C 12.5921481 15.2067176  13.85278692 2.87149106666667  13.85278692 2.87149106666667  Z " fill-rule="evenodd" />
    </mask>
  </defs>
  <g transform="matrix(1 0 0 1 -333 -226 )">
    <path d="M 13.85278692 2.87149106666667  C 13.85278692 2.87149106666667  0.548748200000006 0.717323333333335  0.548748200000006 0.717323333333335  C 0.548748200000006 0.717323333333335  12.5921481 15.2067176  12.5921481 15.2067176  C 12.5921481 15.2067176  13.85278692 2.87149106666667  13.85278692 2.87149106666667  Z " fill-rule="nonzero" fill="#ffffff" stroke="none" fill-opacity="0" transform="matrix(1 0 0 1 333 226 )" />
    <path d="M 13.85278692 2.87149106666667  C 13.85278692 2.87149106666667  0.548748200000006 0.717323333333335  0.548748200000006 0.717323333333335  C 0.548748200000006 0.717323333333335  12.5921481 15.2067176  12.5921481 15.2067176  C 12.5921481 15.2067176  13.85278692 2.87149106666667  13.85278692 2.87149106666667  Z " stroke-width="4" stroke="#f0c239" fill="none" transform="matrix(1 0 0 1 333 226 )" mask="url(#clip561)" />
  </g>
</svg>