<?xml version="1.0" encoding="utf-8"?>
<svg version="1.1" xmlns:xlink="http://www.w3.org/1999/xlink" width="52px" height="147px" xmlns="http://www.w3.org/2000/svg">
  <g transform="matrix(1 0 0 1 -547 -221 )">
    <path d="M 44.8994664000153 147  L 14.4185017505804 147  C 3.25579071811171 136.188395437513  -1.42534616772998 126.021417506275  0.375091096955268 116.499064500036  C 3.07574698423318 102.215535056303  9.2030094200992 99.2293907063069  17.1251325587542 93.7622424375634  C 25.0472555934093 88.2950941688199  28.2306836312615 73.7899152375872  20.0301301067943 64.1408180438487  C 11.8295765173271 54.4917207188602  7.14704549848637 48.2157357938676  8.65212340947089 40.5235212376268  C 10.1572013334554 32.8313066813859  19.2751652473036 33.3597139313853  22.8701325948782 28.5422067001411  C 26.4650999424527 23.7246993376468  27.8352745915282 -3.86146909294536  42.2999158117691 0.457020856862006  C 56.76455703201 4.77551080141936  51.8933842352966 20.3583222939008  42.2999158117691 28.5422067001411  C 32.7064473882418 36.7260911063813  34.8845938767721 51.8815232251133  42.2999158117691 58.011170568856  C 49.7152377467661 64.1408180438487  52.4776471349024 77.7593992875825  48.557899097547 84.2086625625748  C 44.6381511901916 90.6579259688171  38.3801679044137 98.4713741813078  42.2999158117691 110.714137143793  C 46.2196637191245 122.956899975029  52.9255527746002 125.867120137525  51.8933842352966 135.334979062514  C 51.2052717457608 141.646884750006  48.8739658873337 145.535225062502  44.8994664000153 147  Z " fill-rule="nonzero" fill="#c7d8f0" stroke="none" transform="matrix(1 0 0 1 547 221 )" />
  </g>
</svg>