<?xml version="1.0" encoding="UTF-8"?>
<svg width="76px" height="63px" viewBox="0 0 76 63" version="1.1" xmlns="http://www.w3.org/2000/svg" xmlns:xlink="http://www.w3.org/1999/xlink">
    <!-- Generator: Sketch 61 (89581) - https://sketch.com -->
    <title>mariadb_t</title>
    <desc>Created with Sketch.</desc>
    <defs>
        <linearGradient x1="46.4779696%" y1="16.9400914%" x2="93.5455689%" y2="79.2355921%" id="linearGradient-1">
            <stop stop-color="#36CFFB" offset="0%"></stop>
            <stop stop-color="#465AF7" offset="100%"></stop>
        </linearGradient>
    </defs>
    <g id="页面-1" stroke="none" stroke-width="1" fill="none" fill-rule="evenodd">
        <g id="mariadb_t" fill="url(#linearGradient-1)" fill-rule="nonzero">
            <path d="M27.4346875,58.8964375 C28.429125,58.647 29.3316875,58.3795 30.0980625,58.1546875 C32.48575,57.4523125 34.1678125,56.8401875 36.6408125,52.3093125 C38.4673125,55.5076875 45.897875,53.1790625 48.073875,50.953875 L48.6925,50.957125 C62.250625,50.957125 73.455625,47.3435625 75.24925,42.6535625 L75.5003125,42.6535625 L75.5003125,54.3540625 L75.24925,54.3540625 C73.45725,59.0440625 62.2506875,62.657625 48.6925,62.657625 C40.0344375,62.657625 32.33475,61.184 27.4346875,58.896375 L27.4346875,58.8964375 Z M33.39325,25.8346875 C27.390375,24.33475 23.177875,21.975 22.13575,19.2525 L21.886375,19.2525 L21.886375,9.4391875 L21.8913125,9.4391875 C22.17025,4.210875 34.064375,0.0033125 48.6925,0.0033125 C63.3221875,0.0033125 75.2146875,4.2108125 75.4953125,9.4391875 L75.50025,9.4391875 L75.50025,19.2525 L75.2491875,19.2525 C73.4571875,23.9425625 62.250625,27.556125 48.6924375,27.556125 L48.1886875,27.5544375 C49.058375,25.641 50.5878125,25.1995625 51.95975,24.2084375 C53.735375,22.9284375 54.239125,18.4746875 54.821625,17.1438125 C55.402625,15.8113125 55.2615,15.012125 55.2615,15.012125 C55.2615,15.012125 55.7045625,13.648375 53.832125,13.170875 C51.961375,12.695 51.2524375,13.6500625 49.234,14.285125 C47.2155,14.9185625 47.161375,15.2894375 43.09325,15.71775 C39.0235,16.1460625 35.117875,22.7364375 35.117875,22.7364375 C35.117875,22.7364375 34.4418125,24.0755 33.39475,25.8346875 L33.39325,25.8346875 Z M45.083875,45.019875 L45.9093125,37.9405 C45.9093125,37.9405 46.4426875,35.890875 46.9546875,33.3866875 C47.5290625,33.3998125 48.1099375,33.406375 48.694125,33.406375 C62.249,33.406375 73.45725,29.7928125 75.24925,25.10275 L75.5003125,25.10275 L75.5003125,36.8033125 L75.24925,36.8033125 C73.45725,41.4933125 62.250625,45.106875 48.6925,45.106875 C47.489625,45.106875 46.285125,45.0773125 45.08225,45.019875 L45.083875,45.019875 Z M21.886375,34.976875 L21.886375,25.10275 L22.1374375,25.10275 C22.9726875,27.288625 25.856,29.2414375 30.0685,30.7035625 C29.822375,31.0071875 29.568,31.3025625 29.3070625,31.593 C27.6036875,33.472 24.8664375,34.366375 21.886375,34.9751875 L21.886375,34.976875 Z M8.0525,48.56125 C8.0525,48.56125 9.513,48.183875 10.8094375,45.423625 C12.1025625,42.6634375 15.6340625,40.003375 16.7466875,39.570125 C17.857625,39.13525 19.446125,38.109625 23.13025,37.25625 C26.81275,36.40125 30.32775,35.160625 32.5038125,32.402125 C34.6798125,29.64525 37.079,24.6761875 37.079,24.6761875 C37.079,24.6761875 39.55525,19.925375 42.665,19.1130625 C45.7764375,18.299125 47.410875,18.4025 48.2264375,18.028375 C49.0420625,17.6541875 49.037125,17.5705 49.9249375,17.38675 C50.8110625,17.2013125 51.1064375,18.3056875 51.1064375,18.3056875 C51.1064375,18.3056875 51.2311875,19.973 50.8110625,21.074125 C50.392625,22.173625 49.1323125,23.637375 47.8555625,24.695875 C46.578875,25.7543125 44.8820625,27.552875 44.49475,30.702 C44.1075,33.8495 43.2475625,36.975625 43.2475625,36.975625 L41.7115625,43.462625 C41.7115625,43.462625 40.7630625,48.372625 43.5806875,49.98575 C42.6650625,51.374 38.1588125,51.971375 36.737625,49.10775 C34.21375,50.07925 34.072625,53.07575 32.415125,54.124375 C30.75775,55.171375 28.11575,56.4710625 25.472,56.206875 C27.841625,52.757375 28.6113125,50.501 28.6113125,50.501 C28.6113125,50.501 19.37725,48.71225 16.6104375,49.285 C13.8436875,49.8576875 13.5991875,50.06125 11.096625,51.971375 C8.5956875,53.879875 7.0695625,54.967875 4.132125,54.967875 C1.1946875,54.967875 0.882875,54.5411875 0.7795,53.879875 C0.676125,53.2201875 2.59775,51.8663125 2.59775,51.8663125 C2.59775,51.8663125 0.9895625,51.96475 0.60225,51.56275 C0.215,51.160625 0.013125,50.9308125 0.013125,50.9308125 C0.013125,50.9308125 1.130625,49.1076875 3.712,48.9534375 C5.1623425,48.8714241 6.60947237,48.7400563 8.050875,48.5595625 L8.0525,48.56125 Z M42.389375,22.64125 C42.389375,22.64125 43.1015625,23.581625 44.214125,22.7725625 C45.3284375,21.9619375 44.8705625,20.9838125 44.8705625,20.9838125 C44.8705625,20.9838125 43.9745625,20.869 43.227875,21.3120625 C42.4795625,21.7551875 42.391,22.6413125 42.391,22.6413125 L42.389375,22.64125 Z M47.798125,19.6989375 C46.8446875,20.9083125 46.4755,21.510625 45.878125,22.9891875 C45.7041875,23.675125 45.9635,23.2730625 46.06525,23.1171875 C46.3556875,22.0538125 47.38625,20.55225 48.0065625,19.7629375 C48.344625,19.3821875 48.0525,19.3690625 47.798125,19.6989375 Z M48.0606875,20.0221875 C47.1056875,21.23 46.7281875,22.318 46.4804375,23.1680625 C46.4804375,23.6931875 46.569,23.468375 46.67075,23.3124375 C46.7495,22.4443125 47.5815625,20.946125 48.201875,20.155125 C48.539875,19.7760625 48.3134375,19.692375 48.0590625,20.0221875 L48.0606875,20.0221875 Z M48.2855625,20.2815 C47.383,21.784625 47.3255625,22.659375 47.2155625,23.37975 C47.2155625,23.904875 47.34525,23.581625 47.447,23.427375 C47.501125,22.597 47.858875,21.367875 48.4184375,20.4538125 C48.7565625,20.0730625 48.53825,19.951625 48.2855625,20.2815 Z M48.5530625,20.49975 C47.7489375,22.1440625 47.949125,22.7709375 47.8391875,23.491375 C47.9491875,23.773625 47.9540625,23.58325 48.0574375,23.427375 C48.1115625,22.598625 48.1313125,21.6336875 48.690875,20.719625 C48.896,20.398 48.80575,20.1715 48.553,20.49975 L48.5530625,20.49975 Z" id="形状"></path>
        </g>
    </g>
</svg>