<?xml version="1.0" encoding="utf-8"?>
<svg version="1.1" xmlns:xlink="http://www.w3.org/1999/xlink" width="7px" height="10px" xmlns="http://www.w3.org/2000/svg">
  <g transform="matrix(1 0 0 1 -65 -60 )">
    <path d="M 6.4013302240383 10  C 6.26988044831474 10  6.13706140409405 9.95829650984711  6.02615065582729 9.87488952954132  C 6.02615065582729 9.87488952954132  0.22319076503064 5.43216459419081  0.22319076503064 5.43216459419081  C 0.0821561098272295 5.32399616660674  0 5.16109190819699  0 4.98776177724903  C 0 4.81573488036834  0.0821561098272295 4.65152738789132  0.22319076503064 4.54466219437453  C 0.22319076503064 4.54466219437453  6.00150382287912 0.125395472235017  6.00150382287912 0.125395472235017  C 6.25892630033777 -0.0713928719239498  6.63547513704591 -0.0322958499056103  6.8422346801111 0.21271215474264  C 7.0489942231763 0.457720159390893  7.00791616826268 0.816109527892328  6.75049369080403 1.0128978720513  C 6.75049369080403 1.0128978720513  1.55275047573464 4.98776177724903  1.55275047573464 4.98776177724903  C 1.55275047573464 4.98776177724903  6.77650979224932 8.98738712972504  6.77650979224932 8.98738712972504  C 7.03393226970797 9.18417547388401  7.07501032462158 9.54256484238544  6.86825078155639 9.7875728470337  C 6.74912442230691 9.92701889223244  6.57659659166973 10  6.4013302240383 10  Z " fill-rule="nonzero" fill="#999999" stroke="none" transform="matrix(1 0 0 1 65 60 )" />
  </g>
</svg>