<?xml version="1.0" encoding="utf-8"?>
<svg version="1.1" xmlns:xlink="http://www.w3.org/1999/xlink" width="10px" height="7px" xmlns="http://www.w3.org/2000/svg">
  <g transform="matrix(1 0 0 1 -397 -45 )">
    <path d="M 3.45248458 6.99488205  C 3.34022089 6.99488205  3.23255587 6.94978794  3.15319641 6.86950029  L 0.132734652 3.81547786  C 0.0533755753 3.73523952  0.00879190147 3.62641148  0.00879190147 3.51293557  C 0.00879190147 3.39945966  0.0533755753 3.29063162  0.132734652 3.21039329  C 0.212075738 3.13009564  0.319729868 3.08497858  0.431987565 3.08497858  C 0.544245262 3.08497858  0.651899392 3.13009564  0.731240478 3.21039329  L 3.45241404 5.96180211  L 9.22021857 0.129839556  C 9.29957516 0.0495987119  9.40720728 0.00451966392  9.51943621 0.00451966392  C 9.63166514 0.00451966392  9.73929726 0.0495987119  9.81865385 0.129839556  C 9.8980518 0.210071501  9.94266112 0.318918306  9.94266112 0.432417501  C 9.94266112 0.545916697  9.8980518 0.654763502  9.81865385 0.734995447  L 3.75163169 6.86950029  C 3.67234199 6.94980619  3.56471175 6.99488205  3.45248458 6.99488205  Z " fill-rule="nonzero" fill="#337dff" stroke="none" transform="matrix(1 0 0 1 397 45 )" />
  </g>
</svg>