<?xml version="1.0" encoding="utf-8"?>
<svg version="1.1" xmlns:xlink="http://www.w3.org/1999/xlink" width="7px" height="10px" xmlns="http://www.w3.org/2000/svg">
  <g transform="matrix(1 0 0 1 -480 -60 )">
    <path d="M 0.598669775961698 10  C 0.730119551685265 10  0.862938595905952 9.95829650984711  0.973849344172713 9.87488952954132  C 0.973849344172713 9.87488952954132  6.77680923496936 5.43216459419081  6.77680923496936 5.43216459419081  C 6.91784389017277 5.32399616660674  7 5.16109190819699  7 4.98776177724903  C 7 4.81573488036834  6.91784389017277 4.65152738789132  6.77680923496936 4.54466219437453  C 6.77680923496936 4.54466219437453  0.998496177120881 0.125395472235017  0.998496177120881 0.125395472235017  C 0.741073699662229 -0.0713928719239498  0.364524862954093 -0.0322958499056103  0.157765319888899 0.21271215474264  C -0.0489942231762976 0.457720159390893  -0.00791616826268071 0.816109527892328  0.249506309195972 1.0128978720513  C 0.249506309195972 1.0128978720513  5.44724952426536 4.98776177724903  5.44724952426536 4.98776177724903  C 5.44724952426536 4.98776177724903  0.223490207750683 8.98738712972504  0.223490207750683 8.98738712972504  C -0.0339322697079663 9.18417547388401  -0.0750103246215816 9.54256484238544  0.13174921844361 9.7875728470337  C 0.250875577693093 9.92701889223244  0.423403408330274 10  0.598669775961698 10  Z " fill-rule="nonzero" fill="#999999" stroke="none" transform="matrix(1 0 0 1 480 60 )" />
  </g>
</svg>