<?xml version="1.0" encoding="utf-8"?>
<svg version="1.1" xmlns:xlink="http://www.w3.org/1999/xlink" width="12px" height="10px" xmlns="http://www.w3.org/2000/svg">
  <g transform="matrix(1 0 0 1 -37 -60 )">
    <path d="M 6.86825078155638 0.212427152966313  C 6.74912442230691 0.0729811077675606  6.57659659166973 0  6.4013302240383 0  C 6.26988044831474 0  6.13706140409404 0.0417034901528837  6.02615065582728 0.125110470458679  C 6.02615065582728 0.125110470458679  0.223190765030637 4.56783540580921  0.223190765030637 4.56783540580921  C 0.0821561098272241 4.67600383339325  0 4.83890809180301  0 5.01223822275097  C 0 5.18426511963168  0.0821561098272241 5.34847261210868  0.223190765030637 5.45533780562548  C 0.223190765030637 5.45533780562548  6.00150382287912 9.87460452776497  6.00150382287912 9.87460452776497  C 6.25892630033778 10.071392871924  6.6354751370459 10.0322958499056  6.8422346801111 9.78728784525737  C 7.04899422317629 9.5422798406091  7.00791616826268 9.18389047210766  6.75049369080403 8.9871021279487  C 6.75049369080403 8.9871021279487  1.55275047573464 5.01223822275097  1.55275047573464 5.01223822275097  C 1.55275047573464 5.01223822275097  6.77650979224931 1.01261287027495  6.77650979224931 1.01261287027495  C 7.03393226970796 0.815824526115989  7.07501032462159 0.457435157614555  6.86825078155638 0.212427152966313  Z M 11.8682507815564 0.212427152966313  C 11.7491244223069 0.0729811077675606  11.5765965916697 0  11.4013302240383 0  C 11.2698804483147 0  11.1370614040941 0.0417034901528837  11.0261506558273 0.125110470458679  C 11.0261506558273 0.125110470458679  5.22319076503064 4.56783540580921  5.22319076503064 4.56783540580921  C 5.08215610982722 4.67600383339325  5 4.83890809180301  5 5.01223822275097  C 5 5.18426511963168  5.08215610982722 5.34847261210868  5.22319076503064 5.45533780562548  C 5.22319076503064 5.45533780562548  11.0015038228791 9.87460452776497  11.0015038228791 9.87460452776497  C 11.2589263003378 10.071392871924  11.6354751370459 10.0322958499056  11.8422346801111 9.78728784525737  C 12.0489942231763 9.5422798406091  12.0079161682627 9.18389047210766  11.750493690804 8.9871021279487  C 11.750493690804 8.9871021279487  6.55275047573464 5.01223822275097  6.55275047573464 5.01223822275097  C 6.55275047573464 5.01223822275097  11.7765097922493 1.01261287027495  11.7765097922493 1.01261287027495  C 12.033932269708 0.815824526115989  12.0750103246216 0.457435157614555  11.8682507815564 0.212427152966313  Z " fill-rule="nonzero" fill="#999999" stroke="none" transform="matrix(1 0 0 1 37 60 )" />
  </g>
</svg>