<svg width="547" height="213" viewBox="0 0 547 213" fill="none" xmlns="http://www.w3.org/2000/svg">
<path d="M0 53.2324V159.768L92.15 213L184.23 159.768V53.2324L92.15 0L0 53.2324Z" fill="#E30C34"/>
<path d="M92.0797 35.582L30.904 70.9531V106.254L61.4567 88.6035V159.838L92.0797 177.488V70.8828L122.633 53.2324L92.0797 35.582Z" fill="white"/>
<path d="M122.843 88.7441V159.768L153.536 142.047V71.0234L122.843 88.7441Z" fill="white"/>
<path d="M269.356 160.049H247.372V71.3751H214.993V53.0215H300.611V71.3751H269.356V160.049Z" fill="#172D72"/>
<path d="M335.8 71.3751H315.291V53.0215H335.8V71.3751ZM335.8 160.049H315.291V80.798H335.8V160.049Z" fill="#172D72"/>
<path d="M379.767 160.049H357.784V53.0215H379.767V99.9954L421.558 53.0215H447.475L404.842 99.1516L452.041 160.049H425.772L390.724 112.794L379.697 124.256V160.049H379.767Z" fill="#172D72"/>
<path d="M491.724 160.049L455.693 53.0215H477.817L501.557 133.608L524.876 53.0215H547L510.337 160.049H491.724Z" fill="#172D72"/>
</svg>
