<svg width="398" height="208" viewBox="0 0 398 208" fill="none" xmlns="http://www.w3.org/2000/svg">
<path d="M0 51.9583V156.042L90.1132 208L180.226 156.042V51.9583L90.1132 0L0 51.9583Z" fill="#E30C34"/>
<path d="M90.0298 34.6945L30.2046 69.2221V103.75L60.1589 86.486V156.042L90.0298 173.306V69.2221L119.984 51.9583L90.0298 34.6945Z" fill="white"/>
<path d="M120.151 86.6528V156.042L150.189 138.694V69.3055L120.151 86.6528Z" fill="white"/>
<path d="M231.624 155.708H210.264V52.0417H231.624V97.5782L272.175 52.1251H297.374L255.905 96.7442L301.712 155.791H276.264L242.221 110.005L231.541 121.097L231.624 155.708Z" fill="#172D72"/>
<path d="M344.349 155.708L309.305 52.0417H330.832L353.861 130.104L376.473 52.0417H398L362.372 155.708H344.349Z" fill="#172D72"/>
</svg>
