<svg width="532" height="208" viewBox="0 0 532 208" fill="none" xmlns="http://www.w3.org/2000/svg">
<path d="M0 52.0417V156.042L90.0282 208L180.056 156.042V52.0417L90.0282 0L0 52.0417Z" fill="#E30C34"/>
<path d="M89.9449 34.6945L30.1761 69.2221V103.75L60.1022 86.486V156.042L89.9449 173.306V69.2221L119.871 51.9583L89.9449 34.6945Z" fill="white"/>
<path d="M120.038 86.6528V156.042L150.047 138.694V69.3055L120.038 86.6528Z" fill="white"/>
<path d="M262.832 155.792H241.492V69.8894H210.066V52.0417H293.092V69.806H262.832V155.792Z" fill="#172D72"/>
<path d="M322.518 69.8894H302.595V52.0417H322.518V69.8894ZM322.518 155.792H302.595V78.98H322.518V155.792Z" fill="#172D72"/>
<path d="M344.441 52.0417H384.954C400.876 52.0417 410.712 55.628 417.631 63.968C425.883 73.8092 430.301 87.9038 430.301 103.833C430.301 119.929 425.883 134.024 417.631 143.699C410.629 152.122 400.709 155.792 384.954 155.792H344.441V52.0417ZM384.954 138.027C401.042 138.027 408.961 126.768 408.961 104C408.961 81.065 400.959 69.8894 384.954 69.8894H365.781V138.027H384.954Z" fill="#172D72"/>
<path d="M495.572 155.792H448.891V52.0417H495.155C522.497 52.0417 528.999 69.806 528.999 79.397C528.999 88.2374 524.998 94.1588 514.745 100.747C526.415 107.586 531.917 115.676 531.917 125.934C532 138.278 524.748 155.792 495.572 155.792ZM470.231 93.3248H493.405C503.241 93.3248 508.493 89.2382 508.493 81.6488C508.493 73.976 503.241 69.806 493.405 69.806H470.231V93.3248ZM470.231 138.027H495.655C506.075 138.027 511.41 133.357 511.41 124.683C511.41 115.843 505.992 111.172 495.655 111.172H470.231V138.027Z" fill="#172D72"/>
</svg>
