<?xml version="1.0" encoding="utf-8"?>
<svg version="1.1" xmlns:xlink="http://www.w3.org/1999/xlink" width="12px" height="12px" xmlns="http://www.w3.org/2000/svg">
  <g transform="matrix(1 0 0 1 -833 -541 )">
    <path d="M 3.01290322265625 6.29677419140625  C 2.9935483828125 6.32903225390625  3 6.36774193359375  3.01935483984375 6.393548390625  L 4.98709676953125 8.4322580625  C 5.0129032265625 8.45806451953125  5.05161289453125 8.45806451953125  5.0774193515625 8.4322580625  L 9.34193548828125 4.2322580625  C 9.3677419453125 4.20645160546875  9.3677419453125 4.1677419375  9.34193548828125 4.14193548046875  L 9.08387096484375 3.8903225859375  C 9.0580645078125 3.86451612890625  9.01290322265625 3.86451612890625  8.98709677734375 3.88387096875  L 5.0774193515625 7.14193548046875  C 5.05161289453125 7.1612903203125  5.006451609375 7.1677419375  4.974193546875 7.14193548046875  L 3.37419355078125 5.91612903515625  C 3.34838709375 5.8967741953125  3.30322580859375 5.9032258125  3.28387096875 5.9290322578125  L 3.01290322265625 6.29677419140625  Z M 5.9290322578125 0  C 9.31612903125 0  12 2.68387096875  12 6.0709677421875  C 12 9.3096774140625  9.31612903125 12  5.9290322578125 12  C 2.68387096875 12  0 9.31612903125  0 6.0709677421875  C 0 2.68387096875  2.68387096875 0  5.9290322578125 0  Z " fill-rule="nonzero" fill="#09bb07" stroke="none" transform="matrix(1 0 0 1 833 541 )" />
  </g>
</svg>