<?xml version="1.0" encoding="utf-8"?>
<svg version="1.1" xmlns:xlink="http://www.w3.org/1999/xlink" width="15px" height="17px" xmlns="http://www.w3.org/2000/svg">
  <g transform="matrix(1 0 0 1 -1117 -495 )">
    <path d="M 8.505859375 11.6100260416667  C 8.564453125 11.6764322916667  8.59375 11.7612847222222  8.59375 11.8645833333333  L 8.59375 13.6354166666667  C 8.59375 13.7387152777778  8.564453125 13.8235677083333  8.505859375 13.8899739583333  C 8.447265625 13.9563802083333  8.37239583333333 13.9895833333333  8.28125 13.9895833333333  L 6.71875 13.9895833333333  C 6.62760416666667 13.9895833333333  6.552734375 13.9563802083333  6.494140625 13.8899739583333  C 6.435546875 13.8235677083333  6.40625 13.7387152777778  6.40625 13.6354166666667  L 6.40625 11.8645833333333  C 6.40625 11.7612847222222  6.435546875 11.6764322916667  6.494140625 11.6100260416667  C 6.552734375 11.5436197916667  6.62760416666667 11.5104166666667  6.71875 11.5104166666667  L 8.28125 11.5104166666667  C 8.37239583333333 11.5104166666667  8.447265625 11.5436197916667  8.505859375 11.6100260416667  Z M 10.0244140625 4.0009765625  C 10.7373046875 4.66134982638889  11.09375 5.45269097222222  11.09375 6.375  C 11.09375 6.74392361111111  11.044921875 7.07595486111111  10.947265625 7.37109375  C 10.849609375 7.66623263888889  10.7014973958333 7.92078993055556  10.5029296875 8.134765625  C 10.3043619791667 8.34874131944444  10.1350911458333 8.51106770833333  9.9951171875 8.62174479166667  C 9.85514322916667 8.732421875  9.66145833333334 8.865234375  9.4140625 9.02018229166667  C 9.20572916666667 9.15299479166667  9.05436197916667 9.25629340277778  8.9599609375 9.330078125  C 8.86555989583333 9.40386284722222  8.78092447916667 9.49240451388889  8.7060546875 9.595703125  C 8.63118489583333 9.69900173611111  8.59375 9.80598958333333  8.59375 9.91666666666667  L 8.59375 10.2708333333333  C 8.59375 10.3741319444444  8.564453125 10.458984375  8.505859375 10.525390625  C 8.447265625 10.591796875  8.37239583333333 10.625  8.28125 10.625  L 6.71875 10.625  C 6.62760416666667 10.625  6.552734375 10.591796875  6.494140625 10.525390625  C 6.435546875 10.458984375  6.40625 10.3741319444444  6.40625 10.2708333333333  L 6.40625 9.51822916666667  C 6.40625 9.25998263888889  6.4404296875 9.02202690972222  6.5087890625 8.80436197916667  C 6.5771484375 8.58669704861111  6.6552734375 8.41145833333333  6.7431640625 8.27864583333333  C 6.8310546875 8.14583333333333  6.9580078125 8.01486545138889  7.1240234375 7.8857421875  C 7.2900390625 7.75661892361111  7.42350260416667 7.66254340277778  7.5244140625 7.603515625  C 7.62532552083333 7.54448784722222  7.77018229166667 7.46701388888889  7.958984375 7.37109375  C 8.30403645833333 7.18663194444444  8.54817708333333 7.02799479166667  8.69140625 6.89518229166667  C 8.83463541666667 6.76236979166667  8.90625 6.58159722222222  8.90625 6.35286458333333  C 8.90625 6.04296875  8.7646484375 5.77918836805555  8.4814453125 5.5615234375  C 8.1982421875 5.34385850694444  7.88736979166667 5.23502604166667  7.548828125 5.23502604166667  C 7.18424479166667 5.23502604166667  6.875 5.33463541666667  6.62109375 5.53385416666667  C 6.43229166666667 5.68142361111111  6.171875 5.98763020833333  5.83984375 6.45247395833333  C 5.78125 6.541015625  5.69986979166667 6.58528645833333  5.595703125 6.58528645833333  C 5.52408854166667 6.58528645833333  5.46223958333333 6.56315104166667  5.41015625 6.51888020833333  L 4.35546875 5.611328125  C 4.29036458333333 5.55967881944444  4.25130208333333 5.48589409722222  4.23828125 5.38997395833333  C 4.22526041666667 5.29405381944444  4.24153645833333 5.20920138888889  4.287109375 5.13541666666667  C 5.08138020833333 3.71875  6.21744791666667 3.01041666666667  7.6953125 3.01041666666667  C 8.53515625 3.01041666666667  9.3115234375 3.34060329861111  10.0244140625 4.0009765625  Z M 9.9267578125 1.98111979166667  C 9.1552734375 1.60481770833333  8.34635416666667 1.41666666666667  7.5 1.41666666666667  C 6.65364583333333 1.41666666666667  5.8447265625 1.60481770833333  5.0732421875 1.98111979166667  C 4.3017578125 2.357421875  3.6376953125 2.86100260416667  3.0810546875 3.49186197916667  C 2.5244140625 4.12272135416667  2.080078125 4.87532552083333  1.748046875 5.74967447916667  C 1.416015625 6.6240234375  1.25 7.54079861111111  1.25 8.5  C 1.25 9.45920138888889  1.416015625 10.3759765625  1.748046875 11.2503255208333  C 2.080078125 12.1246744791667  2.5244140625 12.8772786458333  3.0810546875 13.5081380208333  C 3.6376953125 14.1389973958333  4.3017578125 14.642578125  5.0732421875 15.0188802083333  C 5.8447265625 15.3951822916667  6.65364583333333 15.5833333333333  7.5 15.5833333333333  C 8.34635416666667 15.5833333333333  9.1552734375 15.3951822916667  9.9267578125 15.0188802083333  C 10.6982421875 14.642578125  11.3623046875 14.1389973958333  11.9189453125 13.5081380208333  C 12.4755859375 12.8772786458333  12.919921875 12.1246744791667  13.251953125 11.2503255208333  C 13.583984375 10.3759765625  13.75 9.45920138888889  13.75 8.5  C 13.75 7.54079861111111  13.583984375 6.6240234375  13.251953125 5.74967447916667  C 12.919921875 4.87532552083333  12.4755859375 4.12272135416667  11.9189453125 3.49186197916667  C 11.3623046875 2.86100260416667  10.6982421875 2.357421875  9.9267578125 1.98111979166667  Z M 13.994140625 4.2333984375  C 14.6647135416667 5.53569878472222  15 6.95789930555555  15 8.5  C 15 10.0421006944444  14.6647135416667 11.4643012152778  13.994140625 12.7666015625  C 13.3235677083333 14.0689019097222  12.4137369791667 15.1000434027778  11.2646484375 15.8600260416667  C 10.1155598958333 16.6200086805556  8.86067708333333 17  7.5 17  C 6.13932291666667 17  4.88444010416667 16.6200086805556  3.7353515625 15.8600260416667  C 2.58626302083333 15.1000434027778  1.67643229166667 14.0689019097222  1.005859375 12.7666015625  C 0.335286458333333 11.4643012152778  0 10.0421006944444  0 8.5  C 0 6.95789930555555  0.335286458333333 5.53569878472222  1.005859375 4.2333984375  C 1.67643229166667 2.93109809027778  2.58626302083333 1.89995659722222  3.7353515625 1.13997395833333  C 4.88444010416667 0.379991319444443  6.13932291666667 0  7.5 0  C 8.86067708333333 0  10.1155598958333 0.379991319444443  11.2646484375 1.13997395833333  C 12.4137369791667 1.89995659722222  13.3235677083333 2.93109809027778  13.994140625 4.2333984375  Z " fill-rule="nonzero" fill="#000000" stroke="none" transform="matrix(1 0 0 1 1117 495 )" />
  </g>
</svg>