<?xml version="1.0" encoding="utf-8"?>
<svg version="1.1" xmlns:xlink="http://www.w3.org/1999/xlink" width="12px" height="12px" xmlns="http://www.w3.org/2000/svg">
  <g transform="matrix(1 0 0 1 -859 -742 )">
    <path d="M 0 6  C 0 2.7  2.7 0  6 0  C 9.3 0  12 2.7  12 6  C 12 9.3  9.3 12  6 12  C 2.7 12  0 9.3  0 6  Z M 7.725 3.6  L 5.925 5.475  L 4.05 3.6  C 3.9 3.45  3.675 3.45  3.525 3.6  C 3.375 3.75  3.375 3.975  3.525 4.125  L 5.4 6  L 3.525 7.875  C 3.375 8.025  3.375 8.25  3.525 8.4  C 3.675 8.55  3.9 8.55  4.05 8.4  L 5.925 6.525  L 7.8 8.4  C 7.95 8.55  8.175 8.55  8.325 8.4  C 8.475 8.25  8.475 8.025  8.325 7.875  L 6.45 6  L 8.25 4.125  C 8.4 3.975  8.4 3.75  8.25 3.6  C 8.1 3.45  7.875 3.45  7.725 3.6  Z " fill-rule="nonzero" fill="#f5222d" stroke="none" transform="matrix(1 0 0 1 859 742 )" />
  </g>
</svg>