<?xml version="1.0" encoding="UTF-8"?>
<svg width="64px" height="64px" viewBox="0 0 64 64" version="1.1" xmlns="http://www.w3.org/2000/svg" xmlns:xlink="http://www.w3.org/1999/xlink">
    <title>产品控制台备份</title>
    <defs>
        <linearGradient x1="29.2495478%" y1="14.1222743%" x2="68.1661661%" y2="87.7088216%" id="linearGradient-1">
            <stop stop-color="#36CFFB" offset="0%"></stop>
            <stop stop-color="#465BF7" offset="100%"></stop>
        </linearGradient>
        <linearGradient x1="80.8247279%" y1="81.0732078%" x2="56.6061959%" y2="50%" id="linearGradient-2">
            <stop stop-color="#FFFFFF" stop-opacity="0" offset="0%"></stop>
            <stop stop-color="#FFFFFF" stop-opacity="0.152152535" offset="100%"></stop>
        </linearGradient>
        <linearGradient x1="41.3338993%" y1="50%" x2="65.7824954%" y2="66.1663177%" id="linearGradient-3">
            <stop stop-color="#FFFFFF" stop-opacity="0.150650131" offset="0%"></stop>
            <stop stop-color="#FFFFFF" stop-opacity="0" offset="100%"></stop>
        </linearGradient>
        <linearGradient x1="41.728114%" y1="46.075466%" x2="56.0468595%" y2="52.718406%" id="linearGradient-4">
            <stop stop-color="#EEEEEE" stop-opacity="0.146279502" offset="0%"></stop>
            <stop stop-color="#FFFFFF" stop-opacity="0" offset="100%"></stop>
        </linearGradient>
    </defs>
    <g id="产品控制台备份" stroke="none" stroke-width="1" fill="none" fill-rule="evenodd">
        <g id="编组" transform="translate(5.000000, -1.000000)">
            <polygon id="路径" fill="url(#linearGradient-1)" fill-rule="nonzero" points="0 17.0128308 0 49.0129231 27.5000611 65 55 49.0129231 55 17.0128308 27.5000611 1"></polygon>
            <g id="编组-2" transform="translate(1.000000, 0.268000)">
                <path d="M3,51.0127087 C23.4683226,45.4369199 38.8304773,33.0993504 49.0864639,14 C49.0864639,14 50.7243092,14.9684934 54,16.9054803 L54,48.4211051 L38.292911,58 C22.8168853,57.1064411 12.5651689,55.7185028 7.53776165,53.8361852 C7.53776165,53.8361852 6.02517443,52.8950263 3,51.0127087 Z" id="路径-4" fill="url(#linearGradient-2)"></path>
                <path d="M0,49.4584064 C16.643111,35.9027691 26.0240862,20.0833003 28.1429254,2 C28.1429254,2 35.0952836,5.98251372 49,13.9475412 C38.0438607,33.0923736 23.0884511,45.7765265 4.13377117,52 C4.13377117,52 2.75584744,51.1528021 0,49.4584064 Z" id="路径-3" fill="url(#linearGradient-3)"></path>
                <path d="M0,49.4584064 C0,49.4584064 6.47670139,32.9825171 5.51953951,12.5463694 C5.51953951,12.5463694 12.679693,8.36424629 27,-1.77635684e-14 C25.944616,19.1749469 16.944616,35.6610824 0,49.4584064 Z" id="路径-2" fill="url(#linearGradient-4)"></path>
                <polygon id="路径备份" fill="#FFFFFF" fill-rule="nonzero" points="25.4916316 11.7319996 7.5 22.1940406 7.5 32.6561725 16.5083684 27.4250914 16.5083684 48.5009185 25.4916316 53.7319996 25.4916316 22.1940406 34.5 16.9630201"></polygon>
                <polygon id="路径备份-2" fill="#FFFFFF" fill-rule="nonzero" points="34.5 27.1319996 34.5 48.7319996 44.5 43.3317817 44.5 21.7319996"></polygon>
            </g>
        </g>
    </g>
</svg>