<svg width="237" height="170" viewBox="0 0 237 170" fill="none" xmlns="http://www.w3.org/2000/svg">
<path d="M186.842 39.7661C165.145 1.80865 117.012 -11.2244 79.2075 10.5608C58.8365 22.2619 44.8136 42.4298 40.7394 65.6419C12.4094 72.206 -5.21389 100.65 1.32379 129.095C6.81924 153.068 28.1378 170.001 52.583 170.001C54.3833 170.001 56.1835 169.906 57.889 169.716H165.808C167.608 169.811 169.314 170.001 171.114 170.001C207.403 170.001 236.87 140.415 236.87 103.98C236.965 73.5378 216.309 47.0912 186.842 39.7661Z" fill="url(#paint0_linear)"/>
<path d="M118.434 41.3828L77.5974 64.9754V88.568L97.9685 76.7717V124.337L118.34 136.134V64.9754L138.711 53.1791L118.434 41.3828Z" fill="white"/>
<path d="M138.9 76.866V124.242L159.366 112.35V64.9746L138.9 76.866Z" fill="white"/>
<defs>
<linearGradient id="paint0_linear" x1="41.4252" y1="49.6468" x2="150.248" y2="204.243" gradientUnits="userSpaceOnUse">
<stop stop-color="#E30C34"/>
<stop offset="1" stop-color="#B7062C"/>
</linearGradient>
</defs>
</svg>
