<?xml version="1.0" encoding="utf-8"?>
<svg version="1.1" xmlns:xlink="http://www.w3.org/1999/xlink" width="13px" height="5px" xmlns="http://www.w3.org/2000/svg">
  <g transform="matrix(1 0 0 1 -908 -168 )">
    <path d="M 12.7587890625 0.164930555555556  C 12.9195963541667 0.274884259259258  13 0.405092592592591  13 0.555555555555556  C 13 0.706018518518518  12.9195963541667 0.836226851851851  12.7587890625 0.946180555555556  L 7.0712890625 4.83506944444444  C 6.91048177083333 4.94502314814815  6.72005208333333 5  6.5 5  C 6.27994791666667 5  6.08951822916667 4.94502314814815  5.9287109375 4.83506944444444  L 0.2412109375 0.946180555555556  C 0.0804036458333333 0.836226851851851  0 0.706018518518518  0 0.555555555555556  C 0 0.405092592592591  0.0804036458333333 0.274884259259258  0.2412109375 0.164930555555556  C 0.402018229166667 0.0549768518518512  0.592447916666667 0  0.8125 0  L 12.1875 0  C 12.4075520833333 0  12.5979817708333 0.0549768518518512  12.7587890625 0.164930555555556  Z " fill-rule="nonzero" fill="#555555" stroke="none" transform="matrix(1 0 0 1 908 168 )" />
  </g>
</svg>