<?xml version="1.0" encoding="utf-8"?>
<svg version="1.1" xmlns:xlink="http://www.w3.org/1999/xlink" width="10px" height="16px" xmlns="http://www.w3.org/2000/svg">
  <defs>
    <mask fill="white" id="clip225">
      <path d="M 9.32523625 7.99910654598133  C 9.32543878 7.8285121761067  9.25764468 7.66487124622696  9.1368582 7.5444008863155  L 1.7816694 0.189212061720888  C 1.6601239 0.0676153718102499  1.4951021 -0.00048512813970233  1.3231754 0  C 1.1512486 0.000490341859580989  0.9866159 0.0695260318088458  0.865762200000001 0.191810381718979  C 0.743956900000001 0.312920571629974  0.6752532 0.477458591509053  0.674765900000001 0.64922579138282  C 0.674278599999999 0.820992991256586  0.742047700000001 0.985918161135382  0.8631639 1.10771749104587  L 7.75650173 8.00040570598037  L 0.8644631 14.8930938909149  C 0.7428664 15.0146393908256  0.674765900000001 15.1796611907043  0.6752536 15.3515878905779  C 0.6757414 15.5235146904516  0.7447771 15.6881473903306  0.867061400000001 15.8090009902418  C 0.988171599999999 15.9308062901523  1.1527096 15.9995100901018  1.3244768 15.9999973901014  C 1.496244 16.0004846901011  1.6611692 15.9327155901509  1.7829685 15.8115993902399  L 9.13620862 8.45641052564525  C 9.25717256 8.33600616573374  9.32519492 8.17237848585399  9.32523625 8.00170486597942  L 9.32458667 7.99910654598133  Z " fill-rule="evenodd" />
    </mask>
  </defs>
  <g transform="matrix(1 0 0 1 -228 -130 )">
    <path d="M 9.32523625 7.99910654598133  C 9.32543878 7.8285121761067  9.25764468 7.66487124622696  9.1368582 7.5444008863155  L 1.7816694 0.189212061720888  C 1.6601239 0.0676153718102499  1.4951021 -0.00048512813970233  1.3231754 0  C 1.1512486 0.000490341859580989  0.9866159 0.0695260318088458  0.865762200000001 0.191810381718979  C 0.743956900000001 0.312920571629974  0.6752532 0.477458591509053  0.674765900000001 0.64922579138282  C 0.674278599999999 0.820992991256586  0.742047700000001 0.985918161135382  0.8631639 1.10771749104587  L 7.75650173 8.00040570598037  L 0.8644631 14.8930938909149  C 0.7428664 15.0146393908256  0.674765900000001 15.1796611907043  0.6752536 15.3515878905779  C 0.6757414 15.5235146904516  0.7447771 15.6881473903306  0.867061400000001 15.8090009902418  C 0.988171599999999 15.9308062901523  1.1527096 15.9995100901018  1.3244768 15.9999973901014  C 1.496244 16.0004846901011  1.6611692 15.9327155901509  1.7829685 15.8115993902399  L 9.13620862 8.45641052564525  C 9.25717256 8.33600616573374  9.32519492 8.17237848585399  9.32523625 8.00170486597942  L 9.32458667 7.99910654598133  Z " fill-rule="nonzero" fill="#cccccc" stroke="none" transform="matrix(1 0 0 1 228 130 )" />
    <path d="M 9.32523625 7.99910654598133  C 9.32543878 7.8285121761067  9.25764468 7.66487124622696  9.1368582 7.5444008863155  L 1.7816694 0.189212061720888  C 1.6601239 0.0676153718102499  1.4951021 -0.00048512813970233  1.3231754 0  C 1.1512486 0.000490341859580989  0.9866159 0.0695260318088458  0.865762200000001 0.191810381718979  C 0.743956900000001 0.312920571629974  0.6752532 0.477458591509053  0.674765900000001 0.64922579138282  C 0.674278599999999 0.820992991256586  0.742047700000001 0.985918161135382  0.8631639 1.10771749104587  L 7.75650173 8.00040570598037  L 0.8644631 14.8930938909149  C 0.7428664 15.0146393908256  0.674765900000001 15.1796611907043  0.6752536 15.3515878905779  C 0.6757414 15.5235146904516  0.7447771 15.6881473903306  0.867061400000001 15.8090009902418  C 0.988171599999999 15.9308062901523  1.1527096 15.9995100901018  1.3244768 15.9999973901014  C 1.496244 16.0004846901011  1.6611692 15.9327155901509  1.7829685 15.8115993902399  L 9.13620862 8.45641052564525  C 9.25717256 8.33600616573374  9.32519492 8.17237848585399  9.32523625 8.00170486597942  L 9.32458667 7.99910654598133  Z " stroke-width="2" stroke="#d9d9d9" fill="none" transform="matrix(1 0 0 1 228 130 )" mask="url(#clip225)" />
  </g>
</svg>