<?xml version="1.0" encoding="utf-8"?>
<svg version="1.1" xmlns:xlink="http://www.w3.org/1999/xlink" width="10px" height="7px" xmlns="http://www.w3.org/2000/svg">
  <g transform="matrix(1 0 0 1 -656 -279 )">
    <path d="M 9.99999976923077 0.606734523140051  C 10.0001348461538 0.765196228250445  9.93224869230794 0.917151868916424  9.81141223076994 1.02886736558259  L 3.95241063848415 6.47794836111347  C 3.75743021540796 6.65928711777932  3.5560570000241 6.89710843888936  3.23641698464068 6.59983179333515  L 0.20622959849816 3.71030275001489  C -0.0434359962701365 3.48724169112701  -0.0697381205008074 3.12417532001754  0.14549800003685 2.87198260224091  C 0.261946129267183 2.74701378779703  0.429095665420404 2.67279599224181  0.606799499265893 2.66715534557517  C 0.784503330803691 2.66151469890853  0.95670475387997 2.72496086335268  1.08204324618719 2.84225492446327  L 3.49532540002432 5.08669364000866  C 3.51459591540887 5.10522119334191  3.54112596925492 5.11568228111964  3.56884260771636 5.11568228111964  C 3.59655924617779 5.11568228111964  3.62308929233154 5.10522119334191  3.64235980771608 5.08669364000866  L 8.92920576923477 0.166765070919821  C 9.07428676923423 0.0245853203871312  9.29134330769496 -0.0324402038792781  9.4949686153865 0.0181267550649377  C 9.78781107692387 0.0844491480313041  9.99545315384617 0.326453421030209  9.99999976923077 0.606734523140051  Z " fill-rule="nonzero" fill="#ffffff" stroke="none" transform="matrix(1 0 0 1 656 279 )" />
  </g>
</svg>